if (_typeface_js && _typeface_js.loadFace) _typeface_js.loadFace({"glyphs":{"ợ":{"x_min":69.21875,"x_max":946.546875,"ha":895,"o":"m 779 376 q 685 89 779 192 q 422 -14 591 -14 q 236 33 317 -14 q 112 169 156 81 q 69 376 69 258 q 162 661 69 558 q 426 764 256 764 q 565 739 500 764 q 676 669 629 715 q 748 728 724 683 q 772 864 772 772 l 936 864 l 946 848 q 872 666 921 727 q 737 580 823 605 q 779 376 779 489 m 233 376 q 278 182 233 247 q 425 116 324 116 q 570 182 525 116 q 615 376 615 247 q 570 568 615 503 q 424 633 524 633 q 278 568 323 633 q 233 376 233 503 m 333 -177 q 357 -112 333 -135 q 424 -89 380 -89 q 490 -112 467 -89 q 512 -177 512 -135 q 489 -241 512 -217 q 424 -265 466 -265 q 357 -241 380 -265 q 333 -177 333 -218 "},"¦":{"x_min":320.78125,"x_max":442.859375,"ha":765,"o":"m 320 1053 l 442 1053 l 442 514 l 320 514 l 320 1053 m 320 214 l 442 214 l 442 -326 l 320 -326 l 320 214 "},"Ẩ":{"x_min":0,"x_max":918,"ha":918,"o":"m 745 0 l 646 275 l 267 275 l 170 0 l 0 0 l 370 996 l 547 996 l 918 0 l 745 0 m 604 415 l 511 685 q 483 770 501 712 q 458 856 465 829 q 404 673 440 772 l 315 415 l 604 415 m 683 1071 l 597 1071 q 454 1183 521 1121 q 310 1071 376 1115 l 223 1071 l 223 1087 q 370 1271 329 1210 l 537 1271 q 683 1087 597 1184 l 683 1071 m 808 1339 q 723 1248 808 1266 l 719 1200 l 648 1200 l 641 1282 q 704 1299 685 1287 q 723 1331 723 1310 q 662 1369 723 1369 q 613 1363 637 1369 l 613 1434 q 671 1439 630 1439 q 808 1339 808 1439 "},"Ỷ":{"x_min":0,"x_max":822,"ha":822,"o":"m 411 539 l 645 992 l 822 992 l 491 384 l 491 0 l 328 0 l 328 379 l 0 992 l 176 992 l 411 539 m 570 1240 q 459 1114 570 1140 l 452 1051 l 358 1051 l 345 1160 q 421 1185 396 1169 q 445 1231 445 1202 q 371 1281 445 1281 q 293 1271 331 1281 l 293 1363 q 388 1375 339 1375 q 524 1341 477 1375 q 570 1240 570 1307 "},"Ő":{"x_min":82.046875,"x_max":1010.953125,"ha":1093,"o":"m 1010 496 q 889 120 1010 254 q 547 -14 768 -14 q 202 119 322 -14 q 82 498 82 252 q 203 875 82 743 q 548 1007 324 1007 q 890 873 769 1007 q 1010 496 1010 739 m 254 496 q 328 219 254 313 q 547 124 402 124 q 765 217 691 124 q 838 496 838 311 q 765 773 838 679 q 548 867 692 867 q 328 773 402 867 q 254 496 254 679 m 333 1071 l 333 1087 q 459 1293 404 1185 l 625 1293 l 625 1278 q 539 1178 605 1245 q 421 1071 474 1111 l 333 1071 m 588 1071 l 588 1087 q 656 1187 617 1126 q 715 1293 694 1249 l 880 1293 l 880 1278 q 794 1178 860 1245 q 676 1071 729 1111 l 588 1071 "},"Ổ":{"x_min":82.046875,"x_max":1010.953125,"ha":1093,"o":"m 1010 496 q 889 120 1010 254 q 547 -14 768 -14 q 202 119 322 -14 q 82 498 82 252 q 203 875 82 743 q 548 1007 324 1007 q 890 873 769 1007 q 1010 496 1010 739 m 254 496 q 328 219 254 313 q 547 124 402 124 q 765 217 691 124 q 838 496 838 311 q 765 773 838 679 q 548 867 692 867 q 328 773 402 867 q 254 496 254 679 m 772 1071 l 686 1071 q 543 1183 610 1121 q 399 1071 465 1115 l 312 1071 l 312 1087 q 459 1271 418 1210 l 626 1271 q 772 1087 686 1184 l 772 1071 m 897 1339 q 812 1248 897 1266 l 808 1200 l 737 1200 l 730 1282 q 793 1299 774 1287 q 812 1331 812 1310 q 751 1369 812 1369 q 702 1363 726 1369 l 702 1434 q 760 1439 719 1439 q 897 1339 897 1439 "},"Ừ":{"x_min":122.125,"x_max":1183.953125,"ha":1148,"o":"m 908 992 l 908 860 q 986 919 961 872 q 1011 1056 1011 966 l 1174 1056 l 1183 1041 q 1132 890 1165 944 q 1044 803 1099 837 q 908 756 989 769 l 908 349 q 805 82 908 179 q 515 -14 702 -14 q 225 83 328 -14 q 122 352 122 181 l 122 992 l 284 992 l 284 355 q 519 124 284 124 q 746 356 746 124 l 746 992 l 908 992 m 504 1071 q 386 1172 458 1106 q 282 1278 315 1239 l 282 1293 l 467 1293 q 537 1184 493 1245 q 612 1087 582 1122 l 612 1071 l 504 1071 "},"Ž":{"x_min":44.765625,"x_max":754.234375,"ha":799,"o":"m 754 0 l 44 0 l 44 112 l 544 852 l 58 852 l 58 992 l 740 992 l 740 878 l 238 139 l 754 139 l 754 0 m 664 1293 l 664 1274 q 543 1144 578 1186 q 490 1071 508 1102 l 314 1071 q 141 1274 270 1142 l 141 1293 l 249 1293 q 401 1169 342 1232 q 556 1293 467 1236 l 664 1293 "},"Á":{"x_min":0,"x_max":918,"ha":918,"o":"m 745 0 l 646 275 l 267 275 l 170 0 l 0 0 l 370 996 l 547 996 l 918 0 l 745 0 m 604 415 l 511 685 q 483 770 501 712 q 458 856 465 829 q 404 673 440 772 l 315 415 l 604 415 m 360 1071 l 360 1087 q 440 1193 399 1135 q 504 1293 481 1251 l 690 1293 l 690 1278 q 584 1172 654 1237 q 466 1071 514 1106 l 360 1071 "},"ĥ":{"x_min":113.984375,"x_max":774.125,"ha":882,"o":"m 774 0 l 614 0 l 614 461 q 579 591 614 548 q 468 633 544 633 q 320 573 367 633 q 273 372 273 513 l 273 0 l 113 0 l 113 1055 l 273 1055 l 273 787 q 265 650 273 723 l 275 650 q 366 734 307 704 q 501 764 424 764 q 774 489 774 764 l 774 0 m 596 1109 q 441 1230 512 1158 q 289 1109 371 1161 l 181 1109 l 181 1125 q 354 1331 311 1259 l 530 1331 q 704 1125 573 1256 l 704 1109 l 596 1109 "},"Î":{"x_min":-51.078125,"x_max":471.046875,"ha":424,"o":"m 130 0 l 130 992 l 293 992 l 293 0 l 130 0 m 363 1071 q 208 1192 279 1120 q 56 1071 138 1123 l -51 1071 l -51 1087 q 121 1293 78 1221 l 297 1293 q 471 1087 340 1218 l 471 1071 l 363 1071 "},"e":{"x_min":69.15625,"x_max":732.875,"ha":800,"o":"m 441 -14 q 167 88 266 -14 q 69 369 69 190 q 160 658 69 553 q 412 764 252 764 q 646 673 560 764 q 732 424 732 583 l 732 338 l 233 338 q 292 170 236 229 q 448 112 347 112 q 572 124 515 112 q 695 166 629 137 l 695 36 q 577 -2 637 9 q 441 -14 517 -14 m 412 643 q 290 594 336 643 q 236 454 244 546 l 576 454 q 531 595 574 547 q 412 643 488 643 "},"»":{"x_min":54.296875,"x_max":717.34375,"ha":773,"o":"m 717 362 l 473 70 l 359 135 l 551 371 l 359 609 l 473 673 l 717 379 l 717 362 m 411 362 l 168 70 l 54 135 l 245 371 l 54 609 l 168 673 l 411 379 l 411 362 "},"Ề":{"x_min":13.84375,"x_max":691.59375,"ha":775,"o":"m 691 0 l 130 0 l 130 992 l 691 992 l 691 855 l 292 855 l 292 585 l 666 585 l 666 449 l 292 449 l 292 137 l 691 137 l 691 0 m 186 1087 q 288 1209 262 1176 q 333 1271 314 1243 l 500 1271 q 645 1087 559 1184 l 645 1071 l 559 1071 q 416 1183 494 1115 q 273 1071 344 1118 l 186 1071 l 186 1087 m 243 1203 l 159 1203 q 13 1342 65 1274 l 13 1357 l 154 1357 q 243 1219 190 1282 l 243 1203 "},"ļ":{"x_min":62.984375,"x_max":273.25,"ha":387,"o":"m 273 0 l 113 0 l 113 1055 l 273 1055 l 273 0 m 62 -290 q 93 -188 78 -246 q 113 -85 107 -129 l 265 -85 l 265 -98 q 214 -210 246 -152 q 155 -307 183 -269 l 62 -307 l 62 -290 "},"Ĕ":{"x_min":130.859375,"x_max":691.59375,"ha":775,"o":"m 691 0 l 130 0 l 130 992 l 691 992 l 691 855 l 292 855 l 292 585 l 666 585 l 666 449 l 292 449 l 292 137 l 691 137 l 691 0 m 409 1071 q 242 1125 303 1071 q 175 1277 180 1179 l 268 1277 q 286 1224 271 1244 q 328 1197 301 1205 q 412 1189 356 1189 q 518 1211 483 1189 q 557 1277 552 1234 l 651 1277 q 578 1126 643 1181 q 409 1071 513 1071 "},"ị":{"x_min":102.90625,"x_max":283.421875,"ha":387,"o":"m 273 0 l 113 0 l 113 750 l 273 750 l 273 0 m 104 949 q 127 1014 104 991 q 194 1038 151 1038 q 260 1014 236 1038 q 283 949 283 991 q 260 885 283 908 q 194 862 236 862 q 127 885 151 862 q 104 949 104 908 m 102 -177 q 126 -112 102 -135 q 193 -89 149 -89 q 259 -112 236 -89 q 281 -177 281 -135 q 258 -241 281 -217 q 193 -265 235 -265 q 126 -241 149 -265 q 102 -177 102 -218 "}," ":{"x_min":0,"x_max":0,"ha":695},"ỹ":{"x_min":0,"x_max":745,"ha":745,"o":"m 0 750 l 173 750 l 326 324 q 372 153 360 233 l 377 153 q 400 244 384 191 q 572 750 416 297 l 745 750 l 424 -99 q 132 -334 336 -334 q 29 -322 79 -334 l 29 -196 q 111 -204 65 -204 q 273 -70 226 -204 l 301 0 l 0 750 m 475 841 q 419 853 446 841 q 365 879 391 865 q 313 906 338 894 q 265 918 288 918 q 191 840 210 918 l 109 840 q 161 984 117 934 q 275 1034 205 1034 q 332 1021 304 1034 q 386 995 359 1009 q 437 968 412 980 q 485 956 462 956 q 557 1035 538 956 l 642 1035 q 589 892 633 943 q 475 841 545 841 "},"ò":{"x_min":69.140625,"x_max":778.859375,"ha":848,"o":"m 778 376 q 684 89 778 192 q 422 -14 590 -14 q 236 33 317 -14 q 112 169 155 81 q 69 376 69 258 q 162 661 69 558 q 426 764 256 764 q 683 659 589 764 q 778 376 778 554 m 233 376 q 425 116 233 116 q 614 376 614 116 q 423 633 614 633 q 278 567 323 633 q 233 376 233 500 m 420 842 q 302 943 374 877 q 198 1049 231 1010 l 198 1064 l 383 1064 q 453 955 409 1016 q 528 858 498 893 l 528 842 l 420 842 "},"ţ":{"x_min":26.453125,"x_max":510.046875,"ha":546,"o":"m 393 114 q 510 133 451 114 l 510 13 q 441 -6 483 1 q 355 -14 400 -14 q 128 224 128 -14 l 128 629 l 26 629 l 26 699 l 136 758 l 190 917 l 288 917 l 288 750 l 502 750 l 502 629 l 288 629 l 288 227 q 317 142 288 169 q 393 114 346 114 m 456 -183 q 249 -334 456 -334 q 167 -323 204 -334 l 167 -230 q 250 -240 203 -240 q 308 -229 287 -240 q 330 -187 330 -218 q 208 -112 330 -129 l 265 0 l 368 0 l 340 -60 q 425 -106 395 -74 q 456 -183 456 -138 "},"^":{"x_min":19.671875,"x_max":726.328125,"ha":746,"o":"m 19 363 l 315 997 l 397 997 l 726 363 l 594 363 l 358 833 l 149 363 l 19 363 "},"«":{"x_min":55.65625,"x_max":717.34375,"ha":773,"o":"m 55 379 l 297 673 l 411 609 l 219 371 l 411 135 l 297 70 l 55 362 l 55 379 m 361 379 l 603 673 l 717 609 l 525 371 l 717 135 l 603 70 l 361 362 l 361 379 "},"ử":{"x_min":107.171875,"x_max":1044.625,"ha":989,"o":"m 643 0 l 620 97 l 611 97 q 517 15 577 45 q 379 -14 457 -14 q 174 53 242 -14 q 107 259 107 121 l 107 750 l 267 750 l 267 287 q 303 157 267 201 q 413 114 338 114 q 561 174 514 114 q 608 376 608 234 l 608 750 l 768 750 l 768 669 q 847 729 822 681 q 872 865 872 776 l 1035 865 l 1044 849 q 992 696 1025 751 q 903 608 959 641 q 768 565 848 574 l 768 0 l 643 0 m 600 1011 q 489 885 600 911 l 482 822 l 388 822 l 375 931 q 451 956 426 940 q 475 1002 475 973 q 401 1052 475 1052 q 323 1042 361 1052 l 323 1134 q 418 1146 369 1146 q 554 1112 507 1146 q 600 1011 600 1078 "},"í":{"x_min":105.515625,"x_max":435.125,"ha":387,"o":"m 273 0 l 113 0 l 113 750 l 273 750 l 273 0 m 105 842 l 105 858 q 185 964 144 906 q 249 1064 226 1022 l 435 1064 l 435 1049 q 329 943 399 1008 q 211 842 259 877 l 105 842 "},"ˆ":{"x_min":153.921875,"x_max":676.046875,"ha":832,"o":"m 568 842 q 413 963 484 891 q 261 842 343 894 l 153 842 l 153 858 q 326 1064 283 992 l 502 1064 q 676 858 545 989 l 676 842 l 568 842 "},"ū":{"x_min":107.203125,"x_max":768.703125,"ha":882,"o":"m 643 0 l 620 97 l 612 97 q 518 15 579 45 q 377 -14 456 -14 q 174 53 241 -14 q 107 259 107 121 l 107 750 l 267 750 l 267 287 q 303 157 267 201 q 413 114 338 114 q 561 174 514 114 q 608 376 608 234 l 608 750 l 768 750 l 768 0 l 643 0 m 221 960 l 654 960 l 654 842 l 221 842 l 221 960 "},"Ẅ":{"x_min":8.140625,"x_max":1304.5,"ha":1314,"o":"m 1046 0 l 869 0 l 701 591 q 674 703 690 630 q 654 804 658 776 q 632 692 647 761 q 607 588 617 622 l 442 0 l 266 0 l 138 496 l 8 992 l 173 992 l 315 413 q 362 168 348 274 q 385 297 370 225 q 412 412 400 368 l 573 992 l 734 992 l 900 409 q 950 168 923 329 q 999 415 960 265 l 1140 992 l 1304 992 l 1046 0 m 442 1177 q 465 1238 442 1219 q 520 1257 488 1257 q 578 1235 556 1257 q 599 1177 599 1214 q 577 1119 599 1141 q 520 1098 555 1098 q 465 1117 488 1098 q 442 1177 442 1137 m 709 1177 q 731 1238 709 1219 q 787 1257 754 1257 q 844 1235 823 1257 q 866 1177 866 1214 q 844 1119 866 1140 q 787 1098 821 1098 q 731 1117 754 1098 q 709 1177 709 1137 "},"ņ":{"x_min":113.984375,"x_max":774.125,"ha":882,"o":"m 774 0 l 614 0 l 614 461 q 579 591 614 548 q 468 633 544 633 q 320 574 367 633 q 273 373 273 514 l 273 0 l 113 0 l 113 750 l 238 750 l 261 652 l 269 652 q 365 734 303 705 q 504 764 428 764 q 774 489 774 764 l 774 0 m 310 -290 q 341 -188 326 -246 q 361 -85 355 -129 l 513 -85 l 513 -98 q 462 -210 494 -152 q 403 -307 431 -269 l 310 -307 l 310 -290 "},"µ":{"x_min":113.96875,"x_max":774.03125,"ha":888,"o":"m 273 285 q 421 114 273 114 q 567 174 520 114 q 613 376 613 234 l 613 750 l 774 750 l 774 0 l 649 0 l 626 99 l 618 99 q 536 14 585 43 q 417 -14 488 -14 q 269 47 322 -14 l 266 47 q 270 -32 268 28 q 273 -117 273 -92 l 273 -334 l 113 -334 l 113 750 l 273 750 l 273 285 "},"ỳ":{"x_min":0,"x_max":745,"ha":745,"o":"m 0 750 l 173 750 l 326 324 q 372 153 360 233 l 377 153 q 400 244 384 191 q 572 750 416 297 l 745 750 l 424 -99 q 132 -334 336 -334 q 29 -322 79 -334 l 29 -196 q 111 -204 65 -204 q 273 -70 226 -204 l 301 0 l 0 750 m 356 842 q 238 943 310 877 q 134 1049 167 1010 l 134 1064 l 319 1064 q 389 955 345 1016 q 464 858 434 893 l 464 842 l 356 842 "},"č":{"x_min":69.203125,"x_max":673.046875,"ha":688,"o":"m 416 -14 q 157 85 246 -14 q 69 370 69 184 q 161 662 69 560 q 429 764 254 764 q 643 719 548 764 l 595 591 q 428 631 493 631 q 233 372 233 631 q 281 182 233 245 q 424 118 330 118 q 625 171 530 118 l 625 32 q 534 -3 582 7 q 416 -14 485 -14 m 673 1064 l 673 1045 q 552 915 587 957 q 499 842 517 873 l 323 842 q 150 1045 279 913 l 150 1064 l 258 1064 q 410 940 351 1003 q 565 1064 476 1007 l 673 1064 "},"’":{"x_min":16.96875,"x_max":251.65625,"ha":268,"o":"m 241 992 l 251 977 q 132 652 215 835 l 16 652 q 84 992 63 848 l 241 992 "},"-":{"x_min":48.84375,"x_max":397.484375,"ha":447,"o":"m 48 304 l 48 440 l 397 440 l 397 304 l 48 304 "},"Q":{"x_min":82.046875,"x_max":1010.953125,"ha":1093,"o":"m 1010 496 q 942 192 1010 316 q 741 19 873 69 l 979 -236 l 760 -236 l 573 -14 l 547 -14 q 202 119 322 -14 q 82 498 82 252 q 203 875 82 743 q 548 1007 324 1007 q 890 873 769 1007 q 1010 496 1010 739 m 254 496 q 328 219 254 313 q 547 124 402 124 q 765 217 691 124 q 838 496 838 311 q 765 773 838 679 q 548 867 692 867 q 328 773 402 867 q 254 496 254 679 "},"M":{"x_min":130.90625,"x_max":1151.765625,"ha":1282,"o":"m 559 0 l 271 828 l 266 828 q 278 482 278 643 l 278 0 l 130 0 l 130 992 l 359 992 l 634 202 l 638 202 l 922 992 l 1151 992 l 1151 0 l 995 0 l 995 490 q 999 683 995 564 q 1005 827 1003 802 l 1000 827 l 702 0 l 559 0 "},"œ":{"x_min":69.15625,"x_max":1266.546875,"ha":1333,"o":"m 975 -14 q 690 117 784 -14 q 419 -14 600 -14 q 164 91 259 -14 q 69 376 69 196 q 162 662 69 561 q 421 764 254 764 q 572 730 503 764 q 686 632 641 697 q 943 764 775 764 q 1179 673 1092 764 q 1266 424 1266 582 l 1266 338 l 766 338 q 824 169 773 227 q 979 112 874 112 q 1105 124 1048 112 q 1228 166 1163 137 l 1228 36 q 1112 -2 1171 9 q 975 -14 1052 -14 m 233 376 q 277 182 233 247 q 421 116 322 116 q 561 181 516 116 q 605 373 605 245 q 560 568 605 504 q 417 633 516 633 q 277 569 320 633 q 233 376 233 504 m 944 643 q 824 595 869 643 q 770 454 778 548 l 1107 454 q 1065 594 1107 545 q 944 643 1022 643 "},"ě":{"x_min":69.15625,"x_max":732.875,"ha":800,"o":"m 441 -14 q 167 88 266 -14 q 69 369 69 190 q 160 658 69 553 q 412 764 252 764 q 646 673 560 764 q 732 424 732 583 l 732 338 l 233 338 q 292 170 236 229 q 448 112 347 112 q 572 124 515 112 q 695 166 629 137 l 695 36 q 577 -2 637 9 q 441 -14 517 -14 m 412 643 q 290 594 336 643 q 236 454 244 546 l 576 454 q 531 595 574 547 q 412 643 488 643 m 675 1064 l 675 1045 q 554 915 589 957 q 501 842 519 873 l 325 842 q 152 1045 281 913 l 152 1064 l 260 1064 q 412 940 353 1003 q 567 1064 478 1007 l 675 1064 "},"Ộ":{"x_min":82.046875,"x_max":1010.953125,"ha":1093,"o":"m 1010 496 q 889 120 1010 254 q 547 -14 768 -14 q 202 119 322 -14 q 82 498 82 252 q 203 875 82 743 q 548 1007 324 1007 q 890 873 769 1007 q 1010 496 1010 739 m 254 496 q 328 219 254 313 q 547 124 402 124 q 765 217 691 124 q 838 496 838 311 q 765 773 838 679 q 548 867 692 867 q 328 773 402 867 q 254 496 254 679 m 456 -177 q 480 -112 456 -135 q 547 -89 503 -89 q 613 -112 590 -89 q 635 -177 635 -135 q 612 -241 635 -217 q 547 -265 589 -265 q 480 -241 503 -265 q 456 -177 456 -218 m 699 1071 q 544 1192 615 1120 q 392 1071 474 1123 l 284 1071 l 284 1087 q 457 1293 414 1221 l 633 1293 q 807 1087 676 1218 l 807 1071 l 699 1071 "},"ũ":{"x_min":107.203125,"x_max":768.703125,"ha":882,"o":"m 643 0 l 620 97 l 612 97 q 518 15 579 45 q 377 -14 456 -14 q 174 53 241 -14 q 107 259 107 121 l 107 750 l 267 750 l 267 287 q 303 157 267 201 q 413 114 338 114 q 561 174 514 114 q 608 376 608 234 l 608 750 l 768 750 l 768 0 l 643 0 m 538 841 q 482 853 509 841 q 428 879 454 865 q 376 906 401 894 q 328 918 351 918 q 254 840 273 918 l 172 840 q 224 984 180 934 q 338 1034 268 1034 q 395 1021 367 1034 q 449 995 422 1009 q 500 968 475 980 q 548 956 525 956 q 620 1035 601 956 l 705 1035 q 652 892 696 943 q 538 841 608 841 "},"Ậ":{"x_min":0,"x_max":918,"ha":918,"o":"m 745 0 l 646 275 l 267 275 l 170 0 l 0 0 l 370 996 l 547 996 l 918 0 l 745 0 m 604 415 l 511 685 q 483 770 501 712 q 458 856 465 829 q 404 673 440 772 l 315 415 l 604 415 m 369 -177 q 393 -112 369 -135 q 460 -89 416 -89 q 526 -112 503 -89 q 548 -177 548 -135 q 525 -241 548 -217 q 460 -265 502 -265 q 393 -241 416 -265 q 369 -177 369 -218 m 613 1071 q 458 1192 529 1120 q 306 1071 388 1123 l 198 1071 l 198 1087 q 371 1293 328 1221 l 547 1293 q 721 1087 590 1218 l 721 1071 l 613 1071 "},"ŭ":{"x_min":107.203125,"x_max":768.703125,"ha":882,"o":"m 643 0 l 620 97 l 612 97 q 518 15 579 45 q 377 -14 456 -14 q 174 53 241 -14 q 107 259 107 121 l 107 750 l 267 750 l 267 287 q 303 157 267 201 q 413 114 338 114 q 561 174 514 114 q 608 376 608 234 l 608 750 l 768 750 l 768 0 l 643 0 m 432 842 q 265 896 326 842 q 198 1048 203 950 l 291 1048 q 309 995 294 1015 q 351 968 324 976 q 435 960 379 960 q 541 982 506 960 q 580 1048 575 1005 l 674 1048 q 601 897 666 952 q 432 842 536 842 "},"―":{"x_min":55.609375,"x_max":1333.390625,"ha":1389,"o":"m 55 308 l 55 437 l 1333 437 l 1333 308 l 55 308 "},"{":{"x_min":30.5,"x_max":504.828125,"ha":536,"o":"m 210 194 q 30 320 210 320 l 30 450 q 166 480 121 450 q 210 574 210 511 l 210 786 q 284 942 210 892 q 504 992 357 992 l 504 868 q 392 836 427 865 q 357 753 357 808 l 357 551 q 202 389 357 416 l 202 381 q 357 220 357 357 l 357 18 q 392 -66 357 -37 q 504 -95 426 -94 l 504 -220 q 279 -166 348 -218 q 210 1 210 -114 l 210 194 "},"¼":{"x_min":40.984375,"x_max":1074.796875,"ha":1153,"o":"m 903 992 l 323 0 l 193 0 l 774 992 l 903 992 m 344 397 l 218 397 l 218 744 l 220 814 l 224 876 q 196 849 212 864 q 100 773 180 834 l 40 850 l 231 992 l 344 992 l 344 397 m 1074 120 l 989 120 l 989 0 l 859 0 l 859 120 l 593 120 l 593 206 l 862 599 l 989 599 l 989 217 l 1074 217 l 1074 120 m 859 217 l 859 337 q 863 471 859 403 q 804 364 828 400 l 703 217 l 859 217 "},"#":{"x_min":31.828125,"x_max":863.8125,"ha":897,"o":"m 670 590 l 633 397 l 816 397 l 816 283 l 610 283 l 556 0 l 435 0 l 490 283 l 322 283 l 267 0 l 149 0 l 201 283 l 31 283 l 31 397 l 223 397 l 262 590 l 83 590 l 83 704 l 282 704 l 336 990 l 458 990 l 404 704 l 574 704 l 629 990 l 747 990 l 692 704 l 863 704 l 863 590 l 670 590 m 343 397 l 512 397 l 551 590 l 381 590 l 343 397 "},"Ḿ":{"x_min":130.90625,"x_max":1151.765625,"ha":1282,"o":"m 559 0 l 271 828 l 266 828 q 278 482 278 643 l 278 0 l 130 0 l 130 992 l 359 992 l 634 202 l 638 202 l 922 992 l 1151 992 l 1151 0 l 995 0 l 995 490 q 999 683 995 564 q 1005 827 1003 802 l 1000 827 l 702 0 l 559 0 m 537 1073 l 537 1089 q 617 1195 576 1137 q 681 1295 658 1253 l 867 1295 l 867 1280 q 761 1174 831 1239 q 643 1073 691 1108 l 537 1073 "},"Ĳ":{"x_min":130.9375,"x_max":712.890625,"ha":839,"o":"m 130 0 l 130 992 l 293 992 l 293 0 l 130 0 m 429 -277 q 318 -260 362 -277 l 318 -123 q 417 -137 375 -137 q 550 30 550 -137 l 550 992 l 712 992 l 712 35 q 640 -196 712 -116 q 429 -277 568 -277 "},"Ê":{"x_min":130.859375,"x_max":691.59375,"ha":775,"o":"m 691 0 l 130 0 l 130 992 l 691 992 l 691 855 l 292 855 l 292 585 l 666 585 l 666 449 l 292 449 l 292 137 l 691 137 l 691 0 m 563 1071 q 408 1192 479 1120 q 256 1071 338 1123 l 148 1071 l 148 1087 q 321 1293 278 1221 l 497 1293 q 671 1087 540 1218 l 671 1071 l 563 1071 "},")":{"x_min":41.359375,"x_max":384.40625,"ha":440,"o":"m 384 380 q 331 48 384 202 q 180 -220 279 -106 l 42 -220 q 186 61 136 -93 q 235 381 235 216 q 185 705 235 548 q 41 992 135 863 l 180 992 q 332 716 280 873 q 384 380 384 559 "},"Å":{"x_min":0,"x_max":918,"ha":918,"o":"m 745 0 l 646 275 l 267 275 l 170 0 l 0 0 l 370 996 l 547 996 l 918 0 l 745 0 m 604 415 l 511 685 q 483 770 501 712 q 458 856 465 829 q 404 673 440 772 l 315 415 l 604 415 m 619 1069 q 574 956 619 999 q 456 913 530 913 q 340 956 383 913 q 296 1067 296 998 q 339 1178 296 1136 q 456 1220 383 1220 q 573 1178 527 1220 q 619 1069 619 1136 m 528 1067 q 508 1120 528 1101 q 456 1140 488 1140 q 404 1120 425 1140 q 384 1067 384 1101 q 456 996 384 996 q 508 1014 488 996 q 528 1067 528 1033 "},"¸":{"x_min":0,"x_max":289.140625,"ha":300,"o":"m 289 -183 q 82 -334 289 -334 q 0 -323 37 -334 l 0 -230 q 83 -240 36 -240 q 141 -229 120 -240 q 163 -187 163 -218 q 41 -112 163 -129 l 98 0 l 201 0 l 173 -60 q 258 -106 228 -74 q 289 -183 289 -138 "},"a":{"x_min":61.0625,"x_max":697.453125,"ha":806,"o":"m 583 0 l 551 104 l 546 104 q 436 10 491 35 q 295 -14 382 -14 q 123 45 185 -14 q 61 215 61 105 q 147 390 61 331 q 409 454 233 449 l 539 459 l 539 498 q 505 606 539 570 q 401 641 472 641 q 291 624 344 641 q 189 584 238 608 l 137 698 q 271 747 198 730 q 408 764 343 764 q 624 701 551 764 q 697 505 697 639 l 697 0 l 583 0 m 346 108 q 485 156 432 108 q 538 293 538 205 l 538 358 l 441 354 q 277 316 329 350 q 226 213 226 283 q 256 135 226 163 q 346 108 286 108 "},"Ę":{"x_min":130.859375,"x_max":691.59375,"ha":775,"o":"m 691 0 l 130 0 l 130 992 l 691 992 l 691 855 l 292 855 l 292 585 l 666 585 l 666 449 l 292 449 l 292 137 l 691 137 l 691 0 m 538 -157 q 598 -218 538 -218 q 668 -206 627 -218 l 668 -304 q 574 -318 622 -318 q 458 -279 498 -318 q 419 -176 419 -241 q 445 -90 419 -132 q 534 0 470 -48 l 635 0 q 563 -81 588 -44 q 538 -157 538 -118 "},"=":{"x_min":69.1875,"x_max":722.453125,"ha":793,"o":"m 69 563 l 69 685 l 722 685 l 722 563 l 69 563 m 69 293 l 69 413 l 722 413 l 722 293 l 69 293 "},"ạ":{"x_min":61.0625,"x_max":697.453125,"ha":806,"o":"m 583 0 l 551 104 l 546 104 q 436 10 491 35 q 295 -14 382 -14 q 123 45 185 -14 q 61 215 61 105 q 147 390 61 331 q 409 454 233 449 l 539 459 l 539 498 q 505 606 539 570 q 401 641 472 641 q 291 624 344 641 q 189 584 238 608 l 137 698 q 271 747 198 730 q 408 764 343 764 q 624 701 551 764 q 697 505 697 639 l 697 0 l 583 0 m 346 108 q 485 156 432 108 q 538 293 538 205 l 538 358 l 441 354 q 277 316 329 350 q 226 213 226 283 q 256 135 226 163 q 346 108 286 108 m 288 -177 q 312 -112 288 -135 q 379 -89 335 -89 q 445 -112 422 -89 q 467 -177 467 -135 q 444 -241 467 -217 q 379 -265 421 -265 q 312 -241 335 -265 q 288 -177 288 -218 "},"˚":{"x_min":238.828125,"x_max":561.125,"ha":802,"o":"m 561 995 q 516 883 561 926 q 398 840 472 840 q 282 882 325 840 q 238 993 238 924 q 281 1104 238 1062 q 398 1147 325 1147 q 515 1104 469 1147 q 561 995 561 1062 m 470 993 q 450 1047 470 1027 q 398 1066 430 1066 q 346 1047 367 1066 q 326 993 326 1027 q 398 922 326 922 q 450 940 430 922 q 470 993 470 959 "},"ú":{"x_min":107.203125,"x_max":768.703125,"ha":882,"o":"m 643 0 l 620 97 l 612 97 q 518 15 579 45 q 377 -14 456 -14 q 174 53 241 -14 q 107 259 107 121 l 107 750 l 267 750 l 267 287 q 303 157 267 201 q 413 114 338 114 q 561 174 514 114 q 608 376 608 234 l 608 750 l 768 750 l 768 0 l 643 0 m 339 842 l 339 858 q 419 964 378 906 q 483 1064 460 1022 l 669 1064 l 669 1049 q 563 943 633 1008 q 445 842 493 877 l 339 842 "},"¯":{"x_min":-4.0625,"x_max":699.0625,"ha":695,"o":"m 699 1055 l -4 1055 l -4 1167 l 699 1167 l 699 1055 "},"Z":{"x_min":44.765625,"x_max":754.234375,"ha":799,"o":"m 754 0 l 44 0 l 44 112 l 544 852 l 58 852 l 58 992 l 740 992 l 740 878 l 238 139 l 754 139 l 754 0 "}," ":{"x_min":0,"x_max":0,"ha":232},"u":{"x_min":107.203125,"x_max":768.703125,"ha":882,"o":"m 643 0 l 620 97 l 612 97 q 518 15 579 45 q 377 -14 456 -14 q 174 53 241 -14 q 107 259 107 121 l 107 750 l 267 750 l 267 287 q 303 157 267 201 q 413 114 338 114 q 561 174 514 114 q 608 376 608 234 l 608 750 l 768 750 l 768 0 l 643 0 "},"k":{"x_min":113.90625,"x_max":787.21875,"ha":794,"o":"m 267 396 l 358 508 l 584 750 l 768 750 l 466 427 l 787 0 l 600 0 l 359 328 l 271 257 l 271 0 l 113 0 l 113 1055 l 271 1055 l 271 540 l 263 396 l 267 396 "},"Ù":{"x_min":122.09375,"x_max":908.234375,"ha":1031,"o":"m 908 992 l 908 349 q 861 157 908 239 q 724 30 813 74 q 511 -14 635 -14 q 224 83 326 -14 q 122 352 122 181 l 122 992 l 284 992 l 284 364 q 341 182 284 241 q 516 124 398 124 q 746 365 746 124 l 746 992 l 908 992 m 504 1071 q 386 1172 458 1106 q 282 1278 315 1239 l 282 1293 l 467 1293 q 537 1184 493 1245 q 612 1087 582 1122 l 612 1071 l 504 1071 "},"ẻ":{"x_min":69.15625,"x_max":732.875,"ha":800,"o":"m 441 -14 q 167 88 266 -14 q 69 369 69 190 q 160 658 69 553 q 412 764 252 764 q 646 673 560 764 q 732 424 732 583 l 732 338 l 233 338 q 292 170 236 229 q 448 112 347 112 q 572 124 515 112 q 695 166 629 137 l 695 36 q 577 -2 637 9 q 441 -14 517 -14 m 412 643 q 290 594 336 643 q 236 454 244 546 l 576 454 q 531 595 574 547 q 412 643 488 643 m 581 1011 q 470 885 581 911 l 463 822 l 369 822 l 356 931 q 432 956 407 940 q 456 1002 456 973 q 382 1052 456 1052 q 304 1042 342 1052 l 304 1134 q 399 1146 350 1146 q 535 1112 488 1146 q 581 1011 581 1078 "},"ẵ":{"x_min":61.0625,"x_max":697.453125,"ha":806,"o":"m 583 0 l 551 104 l 546 104 q 436 10 491 35 q 295 -14 382 -14 q 123 45 185 -14 q 61 215 61 105 q 147 390 61 331 q 409 454 233 449 l 539 459 l 539 498 q 505 606 539 570 q 401 641 472 641 q 291 624 344 641 q 189 584 238 608 l 137 698 q 271 747 198 730 q 408 764 343 764 q 624 701 551 764 q 697 505 697 639 l 697 0 l 583 0 m 346 108 q 485 156 432 108 q 538 293 538 205 l 538 358 l 441 354 q 277 316 329 350 q 226 213 226 283 q 256 135 226 163 q 346 108 286 108 m 500 1077 q 451 1086 476 1077 q 403 1106 427 1095 q 357 1127 380 1117 q 316 1136 335 1136 q 275 1123 289 1136 q 251 1076 260 1109 l 182 1076 q 222 1183 188 1142 q 313 1224 256 1224 q 364 1214 338 1224 q 413 1193 389 1205 q 458 1172 437 1182 q 498 1163 480 1163 q 539 1177 525 1163 q 563 1225 553 1192 l 631 1225 q 590 1115 624 1154 q 500 1077 555 1077 m 401 842 q 240 892 297 842 q 177 1031 182 942 l 264 1031 q 300 964 269 985 q 401 943 332 943 q 499 964 468 943 q 536 1031 530 985 l 623 1031 q 558 889 615 937 q 401 842 501 842 "},"Ů":{"x_min":122.09375,"x_max":908.234375,"ha":1031,"o":"m 908 992 l 908 349 q 861 157 908 239 q 724 30 813 74 q 511 -14 635 -14 q 224 83 326 -14 q 122 352 122 181 l 122 992 l 284 992 l 284 364 q 341 182 284 241 q 516 124 398 124 q 746 365 746 124 l 746 992 l 908 992 m 676 1224 q 631 1112 676 1155 q 513 1069 587 1069 q 397 1111 440 1069 q 353 1222 353 1153 q 396 1333 353 1291 q 513 1376 440 1376 q 630 1333 584 1376 q 676 1224 676 1291 m 585 1222 q 565 1276 585 1256 q 513 1295 545 1295 q 461 1276 482 1295 q 441 1222 441 1256 q 513 1151 441 1151 q 565 1169 545 1151 q 585 1222 585 1188 "},"¢":{"x_min":112.609375,"x_max":687.859375,"ha":793,"o":"m 669 161 q 494 118 588 121 l 494 -14 l 388 -14 l 388 122 q 180 238 248 143 q 112 502 112 333 q 180 771 112 674 q 388 890 248 868 l 388 1006 l 495 1006 l 495 896 q 687 851 598 892 l 640 723 q 470 763 541 763 q 324 699 371 763 q 276 503 276 634 q 325 311 276 372 q 468 251 374 251 q 564 261 518 251 q 669 297 610 271 l 669 161 "},"ữ":{"x_min":107.171875,"x_max":1044.625,"ha":989,"o":"m 643 0 l 620 97 l 611 97 q 517 15 577 45 q 379 -14 457 -14 q 174 53 242 -14 q 107 259 107 121 l 107 750 l 267 750 l 267 287 q 303 157 267 201 q 413 114 338 114 q 561 174 514 114 q 608 376 608 234 l 608 750 l 768 750 l 768 669 q 847 729 822 681 q 872 865 872 776 l 1035 865 l 1044 849 q 992 696 1025 751 q 903 608 959 641 q 768 565 848 574 l 768 0 l 643 0 m 543 841 q 487 853 514 841 q 433 879 459 865 q 381 906 406 894 q 333 918 356 918 q 259 840 278 918 l 177 840 q 229 984 185 934 q 343 1034 273 1034 q 400 1021 372 1034 q 454 995 427 1009 q 505 968 480 980 q 553 956 530 956 q 625 1035 606 956 l 710 1035 q 657 892 701 943 q 543 841 613 841 "},"Ş":{"x_min":67.84375,"x_max":702.9375,"ha":764,"o":"m 702 269 q 607 61 702 136 q 343 -14 511 -14 q 67 38 175 -14 l 67 191 q 212 141 135 159 q 354 123 288 123 q 496 159 450 123 q 542 258 542 196 q 500 352 542 313 q 326 444 458 391 q 135 569 190 499 q 79 739 79 640 q 167 934 79 863 q 404 1006 255 1006 q 688 943 546 1006 l 636 811 q 400 866 504 866 q 280 832 321 866 q 240 742 240 798 q 256 675 240 703 q 310 623 272 648 q 444 559 347 599 q 604 474 553 513 q 679 385 655 435 q 702 269 702 336 m 509 -183 q 302 -334 509 -334 q 220 -323 257 -334 l 220 -230 q 303 -240 256 -240 q 361 -229 340 -240 q 383 -187 383 -218 q 261 -112 383 -129 l 318 0 l 421 0 l 393 -60 q 478 -106 448 -74 q 509 -183 509 -138 "},"é":{"x_min":69.15625,"x_max":732.875,"ha":800,"o":"m 441 -14 q 167 88 266 -14 q 69 369 69 190 q 160 658 69 553 q 412 764 252 764 q 646 673 560 764 q 732 424 732 583 l 732 338 l 233 338 q 292 170 236 229 q 448 112 347 112 q 572 124 515 112 q 695 166 629 137 l 695 36 q 577 -2 637 9 q 441 -14 517 -14 m 412 643 q 290 594 336 643 q 236 454 244 546 l 576 454 q 531 595 574 547 q 412 643 488 643 m 310 842 l 310 858 q 390 964 349 906 q 454 1064 431 1022 l 640 1064 l 640 1049 q 534 943 604 1008 q 416 842 464 877 l 310 842 "},"B":{"x_min":130.90625,"x_max":841.71875,"ha":917,"o":"m 130 992 l 425 992 q 721 932 630 992 q 812 743 812 872 q 767 599 812 656 q 638 526 723 541 l 638 519 q 792 441 743 499 q 841 284 841 383 q 748 75 841 151 q 489 0 655 0 l 130 0 l 130 992 m 293 582 l 449 582 q 597 614 550 582 q 644 723 644 646 q 593 825 644 793 q 433 856 543 856 l 293 856 l 293 582 m 293 450 l 293 136 l 465 136 q 618 175 567 136 q 670 298 670 214 q 617 413 670 375 q 457 450 565 450 l 293 450 "},"…":{"x_min":90.171875,"x_max":1046.890625,"ha":1137,"o":"m 90 84 q 115 160 90 133 q 190 186 141 186 q 265 159 240 186 q 291 84 291 131 q 265 8 291 36 q 190 -20 239 -20 q 115 7 141 -20 q 90 84 90 35 m 467 84 q 493 160 467 133 q 568 186 519 186 q 643 159 617 186 q 669 84 669 131 q 643 8 669 36 q 568 -20 617 -20 q 493 7 519 -20 q 467 84 467 35 m 845 84 q 871 160 845 133 q 945 186 897 186 q 1021 159 995 186 q 1046 84 1046 131 q 1020 8 1046 36 q 945 -20 994 -20 q 871 7 897 -20 q 845 84 845 35 "},"Ủ":{"x_min":122.09375,"x_max":908.234375,"ha":1031,"o":"m 908 992 l 908 349 q 861 157 908 239 q 724 30 813 74 q 511 -14 635 -14 q 224 83 326 -14 q 122 352 122 181 l 122 992 l 284 992 l 284 364 q 341 182 284 241 q 516 124 398 124 q 746 365 746 124 l 746 992 l 908 992 m 673 1240 q 562 1114 673 1140 l 555 1051 l 461 1051 l 448 1160 q 524 1185 499 1169 q 548 1231 548 1202 q 474 1281 548 1281 q 396 1271 434 1281 l 396 1363 q 491 1375 442 1375 q 627 1341 580 1375 q 673 1240 673 1307 "},"ē":{"x_min":69.15625,"x_max":732.875,"ha":800,"o":"m 441 -14 q 167 88 266 -14 q 69 369 69 190 q 160 658 69 553 q 412 764 252 764 q 646 673 560 764 q 732 424 732 583 l 732 338 l 233 338 q 292 170 236 229 q 448 112 347 112 q 572 124 515 112 q 695 166 629 137 l 695 36 q 577 -2 637 9 q 441 -14 517 -14 m 412 643 q 290 594 336 643 q 236 454 244 546 l 576 454 q 531 595 574 547 q 412 643 488 643 m 198 960 l 631 960 l 631 842 l 198 842 l 198 960 "},"H":{"x_min":130.890625,"x_max":912.796875,"ha":1043,"o":"m 912 0 l 750 0 l 750 446 l 293 446 l 293 0 l 130 0 l 130 992 l 293 992 l 293 586 l 750 586 l 750 992 l 912 992 l 912 0 "},"î":{"x_min":-68.078125,"x_max":454.046875,"ha":387,"o":"m 273 0 l 113 0 l 113 750 l 273 750 l 273 0 m 346 842 q 191 963 262 891 q 39 842 121 894 l -68 842 l -68 858 q 104 1064 61 992 l 280 1064 q 454 858 323 989 l 454 842 l 346 842 "},"Ẹ":{"x_min":130.859375,"x_max":691.59375,"ha":775,"o":"m 691 0 l 130 0 l 130 992 l 691 992 l 691 855 l 292 855 l 292 585 l 666 585 l 666 449 l 292 449 l 292 137 l 691 137 l 691 0 m 319 -177 q 343 -112 319 -135 q 410 -89 366 -89 q 476 -112 453 -89 q 498 -177 498 -135 q 475 -241 498 -217 q 410 -265 452 -265 q 343 -241 366 -265 q 319 -177 319 -218 "},"‼":{"x_min":90.15625,"x_max":675.59375,"ha":765,"o":"m 251 301 l 133 301 l 98 992 l 286 992 l 251 301 m 90 84 q 116 160 90 134 q 191 186 143 186 q 265 159 240 186 q 291 84 291 132 q 265 8 291 36 q 191 -20 239 -20 q 116 7 143 -20 q 90 84 90 34 m 635 301 l 517 301 l 482 992 l 670 992 l 635 301 m 474 84 q 500 160 474 134 q 575 186 527 186 q 649 159 624 186 q 675 84 675 132 q 649 8 675 36 q 575 -20 623 -20 q 500 7 527 -20 q 474 84 474 34 "},"¥":{"x_min":12.203125,"x_max":779.4375,"ha":793,"o":"m 396 540 l 613 992 l 779 992 l 508 476 l 662 476 l 662 373 l 472 373 l 472 269 l 662 269 l 662 165 l 472 165 l 472 0 l 319 0 l 319 165 l 127 165 l 127 269 l 319 269 l 319 373 l 127 373 l 127 476 l 279 476 l 12 992 l 179 992 l 396 540 "},"Ĥ":{"x_min":130.890625,"x_max":912.796875,"ha":1043,"o":"m 912 0 l 750 0 l 750 446 l 293 446 l 293 0 l 130 0 l 130 992 l 293 992 l 293 586 l 750 586 l 750 992 l 912 992 l 912 0 m 672 1071 q 517 1192 588 1120 q 365 1071 447 1123 l 257 1071 l 257 1087 q 430 1293 387 1221 l 606 1293 q 780 1087 649 1218 l 780 1071 l 672 1071 "},"U":{"x_min":122.09375,"x_max":908.234375,"ha":1031,"o":"m 908 992 l 908 349 q 861 157 908 239 q 724 30 813 74 q 511 -14 635 -14 q 224 83 326 -14 q 122 352 122 181 l 122 992 l 284 992 l 284 364 q 341 182 284 241 q 516 124 398 124 q 746 365 746 124 l 746 992 l 908 992 "},"Ñ":{"x_min":130.90625,"x_max":957.09375,"ha":1088,"o":"m 957 0 l 758 0 l 270 790 l 265 790 l 268 746 q 278 515 278 620 l 278 0 l 130 0 l 130 992 l 327 992 l 814 205 l 818 205 q 812 319 816 221 q 808 472 808 417 l 808 992 l 957 992 l 957 0 m 647 1070 q 591 1082 618 1070 q 537 1108 563 1094 q 485 1135 510 1123 q 437 1147 460 1147 q 363 1069 382 1147 l 281 1069 q 333 1213 289 1163 q 447 1263 377 1263 q 504 1250 476 1263 q 558 1224 531 1238 q 609 1197 584 1209 q 657 1185 634 1185 q 729 1264 710 1185 l 814 1264 q 761 1121 805 1172 q 647 1070 717 1070 "},"F":{"x_min":130.84375,"x_max":690.1875,"ha":739,"o":"m 291 0 l 130 0 l 130 992 l 690 992 l 690 855 l 291 855 l 291 545 l 665 545 l 665 407 l 291 407 l 291 0 "},"ả":{"x_min":61.0625,"x_max":697.453125,"ha":806,"o":"m 583 0 l 551 104 l 546 104 q 436 10 491 35 q 295 -14 382 -14 q 123 45 185 -14 q 61 215 61 105 q 147 390 61 331 q 409 454 233 449 l 539 459 l 539 498 q 505 606 539 570 q 401 641 472 641 q 291 624 344 641 q 189 584 238 608 l 137 698 q 271 747 198 730 q 408 764 343 764 q 624 701 551 764 q 697 505 697 639 l 697 0 l 583 0 m 346 108 q 485 156 432 108 q 538 293 538 205 l 538 358 l 441 354 q 277 316 329 350 q 226 213 226 283 q 256 135 226 163 q 346 108 286 108 m 564 1011 q 453 885 564 911 l 446 822 l 352 822 l 339 931 q 415 956 390 940 q 439 1002 439 973 q 365 1052 439 1052 q 287 1042 325 1052 l 287 1134 q 382 1146 333 1146 q 518 1112 471 1146 q 564 1011 564 1078 "},"ĵ":{"x_min":-82.140625,"x_max":452.046875,"ha":387,"o":"m 37 -334 q -82 -317 -34 -334 l -82 -190 q 12 -203 -36 -203 q 113 -87 113 -203 l 113 750 l 273 750 l 273 -98 q 212 -274 273 -214 q 37 -334 151 -334 m 344 842 q 189 963 260 891 q 37 842 119 894 l -70 842 l -70 858 q 102 1064 59 992 l 278 1064 q 452 858 321 989 l 452 842 l 344 842 "},"ā":{"x_min":61.0625,"x_max":697.453125,"ha":806,"o":"m 583 0 l 551 104 l 546 104 q 436 10 491 35 q 295 -14 382 -14 q 123 45 185 -14 q 61 215 61 105 q 147 390 61 331 q 409 454 233 449 l 539 459 l 539 498 q 505 606 539 570 q 401 641 472 641 q 291 624 344 641 q 189 584 238 608 l 137 698 q 271 747 198 730 q 408 764 343 764 q 624 701 551 764 q 697 505 697 639 l 697 0 l 583 0 m 346 108 q 485 156 432 108 q 538 293 538 205 l 538 358 l 441 354 q 277 316 329 350 q 226 213 226 283 q 256 135 226 163 q 346 108 286 108 m 197 960 l 630 960 l 630 842 l 197 842 l 197 960 "},"Ĩ":{"x_min":-52.96875,"x_max":480,"ha":424,"o":"m 130 0 l 130 992 l 293 992 l 293 0 l 130 0 m 313 1070 q 257 1082 284 1070 q 203 1108 229 1094 q 151 1135 176 1123 q 103 1147 126 1147 q 29 1069 48 1147 l -52 1069 q 0 1213 -44 1163 q 113 1263 43 1263 q 170 1250 142 1263 q 224 1224 197 1238 q 275 1197 250 1209 q 323 1185 300 1185 q 395 1264 376 1185 l 480 1264 q 427 1121 471 1172 q 313 1070 383 1070 "},"ă":{"x_min":61.0625,"x_max":697.453125,"ha":806,"o":"m 583 0 l 551 104 l 546 104 q 436 10 491 35 q 295 -14 382 -14 q 123 45 185 -14 q 61 215 61 105 q 147 390 61 331 q 409 454 233 449 l 539 459 l 539 498 q 505 606 539 570 q 401 641 472 641 q 291 624 344 641 q 189 584 238 608 l 137 698 q 271 747 198 730 q 408 764 343 764 q 624 701 551 764 q 697 505 697 639 l 697 0 l 583 0 m 346 108 q 485 156 432 108 q 538 293 538 205 l 538 358 l 441 354 q 277 316 329 350 q 226 213 226 283 q 256 135 226 163 q 346 108 286 108 m 405 842 q 238 896 299 842 q 171 1048 176 950 l 264 1048 q 282 995 267 1015 q 324 968 297 976 q 408 960 352 960 q 514 982 479 960 q 553 1048 548 1005 l 647 1048 q 574 897 639 952 q 405 842 509 842 "},"*":{"x_min":50.1875,"x_max":708.09375,"ha":761,"o":"m 455 1055 l 427 795 l 689 869 l 708 722 l 463 702 l 624 491 l 489 419 l 376 648 l 275 419 l 136 491 l 293 702 l 50 722 l 73 869 l 328 795 l 301 1055 l 455 1055 "},"†":{"x_min":83.453125,"x_max":624.21875,"ha":707,"o":"m 624 653 l 392 673 l 426 0 l 265 0 l 301 673 l 83 653 l 83 793 l 301 772 l 265 1055 l 426 1055 l 392 772 l 624 793 l 624 653 "},"ờ":{"x_min":69.21875,"x_max":946.546875,"ha":895,"o":"m 779 376 q 685 89 779 192 q 422 -14 591 -14 q 236 33 317 -14 q 112 169 156 81 q 69 376 69 258 q 162 661 69 558 q 426 764 256 764 q 565 739 500 764 q 676 669 629 715 q 748 728 724 683 q 772 864 772 772 l 936 864 l 946 848 q 872 666 921 727 q 737 580 823 605 q 779 376 779 489 m 233 376 q 278 182 233 247 q 425 116 324 116 q 570 182 525 116 q 615 376 615 247 q 570 568 615 503 q 424 633 524 633 q 278 568 323 633 q 233 376 233 503 m 422 842 q 304 943 376 877 q 200 1049 233 1010 l 200 1064 l 385 1064 q 455 955 411 1016 q 530 858 500 893 l 530 842 l 422 842 "},"°":{"x_min":73.953125,"x_max":519.6875,"ha":595,"o":"m 73 782 q 138 939 73 873 q 297 1006 202 1006 q 455 940 390 1006 q 519 782 519 875 q 454 624 519 688 q 297 560 389 560 q 185 589 237 560 q 103 670 133 618 q 73 782 73 722 m 177 782 q 212 699 177 734 q 297 664 246 664 q 381 699 347 664 q 416 782 416 734 q 381 868 416 833 q 297 902 346 902 q 213 867 248 902 q 177 782 177 832 "},"å":{"x_min":61.0625,"x_max":697.453125,"ha":806,"o":"m 583 0 l 551 104 l 546 104 q 436 10 491 35 q 295 -14 382 -14 q 123 45 185 -14 q 61 215 61 105 q 147 390 61 331 q 409 454 233 449 l 539 459 l 539 498 q 505 606 539 570 q 401 641 472 641 q 291 624 344 641 q 189 584 238 608 l 137 698 q 271 747 198 730 q 408 764 343 764 q 624 701 551 764 q 697 505 697 639 l 697 0 l 583 0 m 346 108 q 485 156 432 108 q 538 293 538 205 l 538 358 l 441 354 q 277 316 329 350 q 226 213 226 283 q 256 135 226 163 q 346 108 286 108 m 571 995 q 526 883 571 926 q 408 840 482 840 q 292 882 335 840 q 248 993 248 924 q 291 1104 248 1062 q 408 1147 335 1147 q 525 1104 479 1147 q 571 995 571 1062 m 480 993 q 460 1047 480 1027 q 408 1066 440 1066 q 356 1047 377 1066 q 336 993 336 1027 q 408 922 336 922 q 460 940 440 922 q 480 993 480 959 "},"ồ":{"x_min":22.84375,"x_max":778.859375,"ha":848,"o":"m 778 376 q 684 89 778 192 q 422 -14 590 -14 q 236 33 317 -14 q 112 169 155 81 q 69 376 69 258 q 162 661 69 558 q 426 764 256 764 q 683 659 589 764 q 778 376 778 554 m 233 376 q 425 116 233 116 q 614 376 614 116 q 423 633 614 633 q 278 567 323 633 q 233 376 233 500 m 195 858 q 297 980 271 947 q 342 1042 323 1014 l 509 1042 q 654 858 568 955 l 654 842 l 568 842 q 425 954 503 886 q 282 842 353 889 l 195 842 l 195 858 m 252 974 l 168 974 q 22 1113 74 1045 l 22 1128 l 163 1128 q 252 990 199 1053 l 252 974 "},"0":{"x_min":59.703125,"x_max":733.296875,"ha":793,"o":"m 733 495 q 650 111 733 237 q 396 -14 567 -14 q 145 115 230 -14 q 59 495 59 245 q 142 882 59 758 q 396 1007 225 1007 q 647 876 562 1007 q 733 495 733 746 m 221 495 q 262 205 221 292 q 396 118 304 118 q 530 207 487 118 q 572 495 572 295 q 530 784 572 694 q 396 873 487 873 q 262 785 304 873 q 221 495 221 698 "},"ō":{"x_min":69.140625,"x_max":778.859375,"ha":848,"o":"m 778 376 q 684 89 778 192 q 422 -14 590 -14 q 236 33 317 -14 q 112 169 155 81 q 69 376 69 258 q 162 661 69 558 q 426 764 256 764 q 683 659 589 764 q 778 376 778 554 m 233 376 q 425 116 233 116 q 614 376 614 116 q 423 633 614 633 q 278 567 323 633 q 233 376 233 500 m 207 960 l 640 960 l 640 842 l 207 842 l 207 960 "},"”":{"x_min":16.9375,"x_max":534.171875,"ha":551,"o":"m 251 977 q 132 652 215 835 l 16 652 q 84 992 63 848 l 241 992 l 251 977 m 534 977 q 414 652 498 835 l 298 652 q 368 992 344 835 l 524 992 l 534 977 "},"ŵ":{"x_min":13.5625,"x_max":1120.078125,"ha":1135,"o":"m 729 0 l 632 349 q 568 608 614 405 l 562 608 q 499 348 523 425 l 400 0 l 223 0 l 13 750 l 176 750 l 272 380 q 318 145 304 243 l 322 145 q 342 259 329 195 q 367 355 356 323 l 481 750 l 656 750 l 766 355 q 792 253 776 322 q 810 147 807 185 l 815 147 q 862 380 825 230 l 960 750 l 1120 750 l 908 0 l 729 0 m 719 842 q 564 963 635 891 q 412 842 494 894 l 304 842 l 304 858 q 477 1064 434 992 l 653 1064 q 827 858 696 989 l 827 842 l 719 842 "},"Ķ":{"x_min":130.921875,"x_max":888,"ha":888,"o":"m 888 0 l 700 0 l 388 449 l 293 371 l 293 0 l 130 0 l 130 992 l 293 992 l 293 518 q 425 675 359 599 l 693 992 l 877 992 q 505 557 618 686 l 888 0 m 340 -290 q 371 -188 356 -246 q 391 -85 385 -129 l 543 -85 l 543 -98 q 492 -210 524 -152 q 433 -307 461 -269 l 340 -307 l 340 -290 "},"ö":{"x_min":69.140625,"x_max":778.859375,"ha":848,"o":"m 778 376 q 684 89 778 192 q 422 -14 590 -14 q 236 33 317 -14 q 112 169 155 81 q 69 376 69 258 q 162 661 69 558 q 426 764 256 764 q 683 659 589 764 q 778 376 778 554 m 233 376 q 425 116 233 116 q 614 376 614 116 q 423 633 614 633 q 278 567 323 633 q 233 376 233 500 m 210 948 q 233 1009 210 990 q 288 1028 256 1028 q 346 1006 324 1028 q 367 948 367 985 q 345 890 367 912 q 288 869 323 869 q 233 888 256 869 q 210 948 210 908 m 477 948 q 499 1009 477 990 q 555 1028 522 1028 q 612 1006 591 1028 q 634 948 634 985 q 612 890 634 911 q 555 869 589 869 q 499 888 522 869 q 477 948 477 908 "},"Ļ":{"x_min":130.921875,"x_max":712.96875,"ha":753,"o":"m 130 0 l 130 992 l 293 992 l 293 139 l 712 139 l 712 0 l 130 0 m 283 -290 q 314 -188 299 -246 q 334 -85 328 -129 l 486 -85 l 486 -98 q 435 -210 467 -152 q 376 -307 404 -269 l 283 -307 l 283 -290 "},"Õ":{"x_min":82.046875,"x_max":1010.953125,"ha":1093,"o":"m 1010 496 q 889 120 1010 254 q 547 -14 768 -14 q 202 119 322 -14 q 82 498 82 252 q 203 875 82 743 q 548 1007 324 1007 q 890 873 769 1007 q 1010 496 1010 739 m 254 496 q 328 219 254 313 q 547 124 402 124 q 765 217 691 124 q 838 496 838 311 q 765 773 838 679 q 548 867 692 867 q 328 773 402 867 q 254 496 254 679 m 644 1070 q 588 1082 615 1070 q 534 1108 560 1094 q 482 1135 507 1123 q 434 1147 457 1147 q 360 1069 379 1147 l 278 1069 q 330 1213 286 1163 q 444 1263 374 1263 q 501 1250 473 1263 q 555 1224 528 1238 q 606 1197 581 1209 q 654 1185 631 1185 q 726 1264 707 1185 l 811 1264 q 758 1121 802 1172 q 644 1070 714 1070 "},"ć":{"x_min":69.203125,"x_max":643.21875,"ha":688,"o":"m 416 -14 q 157 85 246 -14 q 69 370 69 184 q 161 662 69 560 q 429 764 254 764 q 643 719 548 764 l 595 591 q 428 631 493 631 q 233 372 233 631 q 281 182 233 245 q 424 118 330 118 q 625 171 530 118 l 625 32 q 534 -3 582 7 q 416 -14 485 -14 m 305 842 l 305 858 q 385 964 344 906 q 449 1064 426 1022 l 635 1064 l 635 1049 q 529 943 599 1008 q 411 842 459 877 l 305 842 "},"þ":{"x_min":113.890625,"x_max":793.828125,"ha":865,"o":"m 273 651 q 369 737 314 710 q 496 764 425 764 q 715 661 636 764 q 793 376 793 558 q 714 88 793 191 q 496 -14 635 -14 q 273 87 348 -14 l 263 87 l 269 38 l 273 -24 l 273 -334 l 113 -334 l 113 1055 l 273 1055 l 273 763 l 268 670 l 266 651 l 273 651 m 456 633 q 316 578 360 633 q 273 401 273 522 l 273 376 q 316 177 273 239 q 458 116 360 116 q 630 377 630 116 q 588 570 630 506 q 456 633 547 633 "},"]":{"x_min":34.546875,"x_max":352.3125,"ha":458,"o":"m 34 -99 l 207 -99 l 207 872 l 34 872 l 34 992 l 352 992 l 352 -220 l 34 -220 l 34 -99 "},"′":{"x_min":90.265625,"x_max":247.609375,"ha":338,"o":"m 247 992 l 219 634 l 118 634 l 90 992 l 247 992 "},"ẁ":{"x_min":13.5625,"x_max":1120.078125,"ha":1135,"o":"m 729 0 l 632 349 q 568 608 614 405 l 562 608 q 499 348 523 425 l 400 0 l 223 0 l 13 750 l 176 750 l 272 380 q 318 145 304 243 l 322 145 q 342 259 329 195 q 367 355 356 323 l 481 750 l 656 750 l 766 355 q 792 253 776 322 q 810 147 807 185 l 815 147 q 862 380 825 230 l 960 750 l 1120 750 l 908 0 l 729 0 m 552 842 q 434 943 506 877 q 330 1049 363 1010 l 330 1064 l 515 1064 q 585 955 541 1016 q 660 858 630 893 l 660 842 l 552 842 "},"ệ":{"x_min":69.15625,"x_max":732.875,"ha":800,"o":"m 441 -14 q 167 88 266 -14 q 69 369 69 190 q 160 658 69 553 q 412 764 252 764 q 646 673 560 764 q 732 424 732 583 l 732 338 l 233 338 q 292 170 236 229 q 448 112 347 112 q 572 124 515 112 q 695 166 629 137 l 695 36 q 577 -2 637 9 q 441 -14 517 -14 m 412 643 q 290 594 336 643 q 236 454 244 546 l 576 454 q 531 595 574 547 q 412 643 488 643 m 314 -177 q 338 -112 314 -135 q 405 -89 361 -89 q 471 -112 448 -89 q 493 -177 493 -135 q 470 -241 493 -217 q 405 -265 447 -265 q 338 -241 361 -265 q 314 -177 314 -218 m 559 842 q 404 963 475 891 q 252 842 334 894 l 144 842 l 144 858 q 317 1064 274 992 l 493 1064 q 667 858 536 989 l 667 842 l 559 842 "},"ĭ":{"x_min":-45.703125,"x_max":430.984375,"ha":387,"o":"m 273 0 l 113 0 l 113 750 l 273 750 l 273 0 m 188 842 q 21 896 82 842 q -45 1048 -40 950 l 47 1048 q 65 995 50 1015 q 107 968 80 976 q 191 960 135 960 q 297 982 262 960 q 336 1048 331 1005 l 430 1048 q 357 897 422 952 q 188 842 292 842 "},"8":{"x_min":59.703125,"x_max":733.296875,"ha":793,"o":"m 396 1004 q 619 939 537 1004 q 701 765 701 874 q 518 522 701 613 q 684 400 634 464 q 733 256 733 335 q 643 59 733 133 q 398 -14 552 -14 q 148 55 237 -14 q 59 251 59 124 q 106 399 59 333 q 258 517 152 465 q 128 632 167 571 q 90 767 90 692 q 175 939 90 875 q 396 1004 259 1004 m 212 256 q 261 147 212 186 q 396 108 311 108 q 532 148 483 108 q 580 257 580 188 q 535 358 580 312 q 400 442 491 403 l 380 451 q 251 364 291 411 q 212 256 212 317 m 394 881 q 285 847 326 881 q 244 756 244 814 q 259 693 244 721 q 302 642 274 665 q 398 588 331 619 q 513 663 480 623 q 547 756 547 703 q 505 847 547 814 q 394 881 463 881 "},"Ữ":{"x_min":122.125,"x_max":1183.953125,"ha":1148,"o":"m 908 992 l 908 860 q 986 919 961 872 q 1011 1056 1011 966 l 1174 1056 l 1183 1041 q 1132 890 1165 944 q 1044 803 1099 837 q 908 756 989 769 l 908 349 q 805 82 908 179 q 515 -14 702 -14 q 225 83 328 -14 q 122 352 122 181 l 122 992 l 284 992 l 284 355 q 519 124 284 124 q 746 356 746 124 l 746 992 l 908 992 m 620 1070 q 564 1082 591 1070 q 510 1108 536 1094 q 458 1135 483 1123 q 410 1147 433 1147 q 336 1069 355 1147 l 254 1069 q 306 1213 262 1163 q 420 1263 350 1263 q 477 1250 449 1263 q 531 1224 504 1238 q 582 1197 557 1209 q 630 1185 607 1185 q 702 1264 683 1185 l 787 1264 q 734 1121 778 1172 q 620 1070 690 1070 "},"R":{"x_min":130.921875,"x_max":875.109375,"ha":888,"o":"m 293 531 l 405 531 q 569 573 518 531 q 620 697 620 615 q 565 818 620 781 q 400 855 510 855 l 293 855 l 293 531 m 293 396 l 293 0 l 130 0 l 130 992 l 411 992 q 695 920 603 992 q 787 703 787 848 q 594 439 787 518 l 875 0 l 690 0 l 453 396 l 293 396 "},"ť":{"x_min":26.453125,"x_max":574.203125,"ha":546,"o":"m 393 114 q 510 133 451 114 l 510 13 q 441 -6 483 1 q 355 -14 400 -14 q 128 224 128 -14 l 128 629 l 26 629 l 26 699 l 136 758 l 190 917 l 288 917 l 288 750 l 502 750 l 502 629 l 288 629 l 288 227 q 317 142 288 169 q 393 114 346 114 m 376 856 q 420 1062 408 963 l 574 1062 l 574 1048 q 528 945 558 1006 q 468 840 497 884 l 376 840 l 376 856 "},"Ľ":{"x_min":130.921875,"x_max":712.96875,"ha":753,"o":"m 130 0 l 130 992 l 293 992 l 293 139 l 712 139 l 712 0 l 130 0 m 473 786 q 517 992 505 893 l 671 992 l 671 978 q 625 875 655 936 q 565 770 594 814 l 473 770 l 473 786 "},"Ż":{"x_min":44.765625,"x_max":754.234375,"ha":799,"o":"m 754 0 l 44 0 l 44 112 l 544 852 l 58 852 l 58 992 l 740 992 l 740 878 l 238 139 l 754 139 l 754 0 m 308 1177 q 331 1242 308 1219 q 398 1266 355 1266 q 464 1242 440 1266 q 487 1177 487 1219 q 464 1113 487 1136 q 398 1090 440 1090 q 331 1113 355 1090 q 308 1177 308 1136 "},"o":{"x_min":69.140625,"x_max":778.859375,"ha":848,"o":"m 778 376 q 684 89 778 192 q 422 -14 590 -14 q 236 33 317 -14 q 112 169 155 81 q 69 376 69 258 q 162 661 69 558 q 426 764 256 764 q 683 659 589 764 q 778 376 778 554 m 233 376 q 425 116 233 116 q 614 376 614 116 q 423 633 614 633 q 278 567 323 633 q 233 376 233 500 "},"5":{"x_min":79.375,"x_max":722.453125,"ha":793,"o":"m 397 619 q 634 539 547 619 q 722 323 722 460 q 623 75 722 164 q 340 -14 523 -14 q 79 39 174 -14 l 79 184 q 205 135 134 152 q 337 118 276 118 q 502 167 445 118 q 558 308 558 215 q 331 486 558 486 q 253 479 299 486 q 170 465 206 473 l 99 507 l 137 992 l 653 992 l 653 850 l 278 850 l 255 604 q 313 613 279 608 q 397 619 347 619 "},"ħ":{"x_min":8.140625,"x_max":774.125,"ha":882,"o":"m 774 0 l 614 0 l 614 427 q 579 556 614 513 q 468 599 544 599 q 320 539 367 599 q 273 338 273 479 l 273 0 l 113 0 l 113 826 l 8 826 l 8 937 l 113 937 l 113 1055 l 273 1055 l 273 937 l 531 937 l 531 826 l 273 826 l 273 753 q 272 706 273 734 q 265 616 270 679 l 275 616 q 371 702 312 675 q 502 730 430 730 q 774 455 774 730 l 774 0 "},"õ":{"x_min":69.140625,"x_max":778.859375,"ha":848,"o":"m 778 376 q 684 89 778 192 q 422 -14 590 -14 q 236 33 317 -14 q 112 169 155 81 q 69 376 69 258 q 162 661 69 558 q 426 764 256 764 q 683 659 589 764 q 778 376 778 554 m 233 376 q 425 116 233 116 q 614 376 614 116 q 423 633 614 633 q 278 567 323 633 q 233 376 233 500 m 525 841 q 469 853 496 841 q 415 879 441 865 q 363 906 388 894 q 315 918 338 918 q 241 840 260 918 l 159 840 q 211 984 167 934 q 325 1034 255 1034 q 382 1021 354 1034 q 436 995 409 1009 q 487 968 462 980 q 535 956 512 956 q 607 1035 588 956 l 692 1035 q 639 892 683 943 q 525 841 595 841 "},"ẫ":{"x_min":61.0625,"x_max":697.453125,"ha":806,"o":"m 583 0 l 551 104 l 546 104 q 436 10 491 35 q 295 -14 382 -14 q 123 45 185 -14 q 61 215 61 105 q 147 390 61 331 q 409 454 233 449 l 539 459 l 539 498 q 505 606 539 570 q 401 641 472 641 q 291 624 344 641 q 189 584 238 608 l 137 698 q 271 747 198 730 q 408 764 343 764 q 624 701 551 764 q 697 505 697 639 l 697 0 l 583 0 m 346 108 q 485 156 432 108 q 538 293 538 205 l 538 358 l 441 354 q 277 316 329 350 q 226 213 226 283 q 256 135 226 163 q 346 108 286 108 m 495 1070 q 446 1079 471 1070 q 398 1099 422 1088 q 352 1120 375 1111 q 311 1130 330 1130 q 270 1116 284 1130 q 246 1069 255 1102 l 177 1069 q 218 1182 183 1139 q 308 1226 253 1226 q 359 1216 333 1226 q 408 1195 384 1206 q 453 1173 432 1183 q 493 1164 475 1164 q 534 1178 520 1164 q 558 1227 548 1193 l 626 1227 q 584 1111 619 1153 q 495 1070 549 1070 m 630 842 l 551 842 q 401 949 468 889 q 251 842 339 894 l 171 842 l 171 859 q 325 1036 285 978 l 478 1036 q 630 859 523 970 l 630 842 "},",":{"x_min":42.734375,"x_max":279.4375,"ha":371,"o":"m 279 145 q 160 -179 246 19 l 42 -179 q 112 161 89 3 l 269 161 l 279 145 "},"d":{"x_min":69.140625,"x_max":751.109375,"ha":865,"o":"m 366 -14 q 147 87 226 -14 q 69 373 69 189 q 148 661 69 558 q 369 764 228 764 q 594 654 517 764 l 602 654 q 591 782 591 735 l 591 1055 l 751 1055 l 751 0 l 626 0 l 598 98 l 591 98 q 366 -14 514 -14 m 409 114 q 552 170 507 114 q 598 349 597 225 l 598 372 q 552 574 598 514 q 408 633 506 633 q 278 565 324 633 q 233 370 233 497 q 277 180 233 245 q 409 114 321 114 "},"\"":{"x_min":90.25,"x_max":515.75,"ha":606,"o":"m 247 992 l 219 634 l 118 634 l 90 992 l 247 992 m 515 992 l 487 634 l 386 634 l 358 992 l 515 992 "},"˙":{"x_min":104.375,"x_max":283.421875,"ha":387,"o":"m 104 948 q 127 1013 104 990 q 194 1037 151 1037 q 260 1013 236 1037 q 283 948 283 990 q 260 884 283 907 q 194 861 236 861 q 127 884 151 861 q 104 948 104 907 "},"ê":{"x_min":69.15625,"x_max":732.875,"ha":800,"o":"m 441 -14 q 167 88 266 -14 q 69 369 69 190 q 160 658 69 553 q 412 764 252 764 q 646 673 560 764 q 732 424 732 583 l 732 338 l 233 338 q 292 170 236 229 q 448 112 347 112 q 572 124 515 112 q 695 166 629 137 l 695 36 q 577 -2 637 9 q 441 -14 517 -14 m 412 643 q 290 594 336 643 q 236 454 244 546 l 576 454 q 531 595 574 547 q 412 643 488 643 m 568 842 q 413 963 484 891 q 261 842 343 894 l 153 842 l 153 858 q 326 1064 283 992 l 502 1064 q 676 858 545 989 l 676 842 l 568 842 "},"″":{"x_min":90.25,"x_max":515.75,"ha":606,"o":"m 247 992 l 219 634 l 118 634 l 90 992 l 247 992 m 515 992 l 487 634 l 386 634 l 358 992 l 515 992 "},"„":{"x_min":29.15625,"x_max":548.53125,"ha":640,"o":"m 265 145 q 145 -179 227 0 l 29 -179 q 98 161 73 -2 l 255 161 l 265 145 m 548 145 q 429 -179 515 19 l 312 -179 q 381 161 357 -2 l 539 161 l 548 145 "},"ľ":{"x_min":113.859375,"x_max":534.203125,"ha":387,"o":"m 273 0 l 113 0 l 113 1055 l 273 1055 l 273 0 m 336 849 q 380 1055 368 956 l 534 1055 l 534 1041 q 488 938 518 999 q 428 833 457 877 l 336 833 l 336 849 "},"Â":{"x_min":0,"x_max":918,"ha":918,"o":"m 745 0 l 646 275 l 267 275 l 170 0 l 0 0 l 370 996 l 547 996 l 918 0 l 745 0 m 604 415 l 511 685 q 483 770 501 712 q 458 856 465 829 q 404 673 440 772 l 315 415 l 604 415 m 608 1071 q 453 1192 524 1120 q 301 1071 383 1123 l 193 1071 l 193 1087 q 366 1293 323 1221 l 542 1293 q 716 1087 585 1218 l 716 1071 l 608 1071 "},"Į":{"x_min":51.578125,"x_max":300.78125,"ha":424,"o":"m 130 0 l 130 992 l 293 992 l 293 0 l 130 0 m 170 -157 q 230 -218 170 -218 q 300 -206 259 -218 l 300 -304 q 206 -318 254 -318 q 90 -279 130 -318 q 51 -176 51 -241 q 77 -90 51 -132 q 166 0 102 -48 l 267 0 q 195 -81 220 -44 q 170 -157 170 -118 "},"ė":{"x_min":69.15625,"x_max":732.875,"ha":800,"o":"m 441 -14 q 167 88 266 -14 q 69 369 69 190 q 160 658 69 553 q 412 764 252 764 q 646 673 560 764 q 732 424 732 583 l 732 338 l 233 338 q 292 170 236 229 q 448 112 347 112 q 572 124 515 112 q 695 166 629 137 l 695 36 q 577 -2 637 9 q 441 -14 517 -14 m 412 643 q 290 594 336 643 q 236 454 244 546 l 576 454 q 531 595 574 547 q 412 643 488 643 m 328 948 q 351 1013 328 990 q 418 1037 375 1037 q 484 1013 460 1037 q 507 948 507 990 q 484 884 507 907 q 418 861 460 861 q 351 884 375 861 q 328 948 328 907 "},"ề":{"x_min":13.84375,"x_max":732.875,"ha":800,"o":"m 441 -14 q 167 88 266 -14 q 69 369 69 190 q 160 658 69 553 q 412 764 252 764 q 646 673 560 764 q 732 424 732 583 l 732 338 l 233 338 q 292 170 236 229 q 448 112 347 112 q 572 124 515 112 q 695 166 629 137 l 695 36 q 577 -2 637 9 q 441 -14 517 -14 m 412 643 q 290 594 336 643 q 236 454 244 546 l 576 454 q 531 595 574 547 q 412 643 488 643 m 186 858 q 288 980 262 947 q 333 1042 314 1014 l 500 1042 q 645 858 559 955 l 645 842 l 559 842 q 416 954 494 886 q 273 842 344 889 l 186 842 l 186 858 m 243 974 l 159 974 q 13 1113 65 1045 l 13 1128 l 154 1128 q 243 990 190 1053 l 243 974 "},"Ţ":{"x_min":19.671875,"x_max":764.984375,"ha":786,"o":"m 473 0 l 311 0 l 311 852 l 19 852 l 19 992 l 764 992 l 764 852 l 473 852 l 473 0 m 530 -183 q 323 -334 530 -334 q 241 -323 278 -334 l 241 -230 q 324 -240 277 -240 q 382 -229 361 -240 q 404 -187 404 -218 q 282 -112 404 -129 l 339 0 l 442 0 l 414 -60 q 499 -106 469 -74 q 530 -183 530 -138 "},"Í":{"x_min":121.515625,"x_max":451.125,"ha":424,"o":"m 130 0 l 130 992 l 293 992 l 293 0 l 130 0 m 121 1071 l 121 1087 q 201 1193 160 1135 q 265 1293 242 1251 l 451 1293 l 451 1278 q 345 1172 415 1237 q 227 1071 275 1106 l 121 1071 "},"´":{"x_min":245.515625,"x_max":575.125,"ha":822,"o":"m 245 842 l 245 858 q 325 964 284 906 q 389 1064 366 1022 l 575 1064 l 575 1049 q 469 943 539 1008 q 351 842 399 877 l 245 842 "},"Ú":{"x_min":122.09375,"x_max":908.234375,"ha":1031,"o":"m 908 992 l 908 349 q 861 157 908 239 q 724 30 813 74 q 511 -14 635 -14 q 224 83 326 -14 q 122 352 122 181 l 122 992 l 284 992 l 284 364 q 341 182 284 241 q 516 124 398 124 q 746 365 746 124 l 746 992 l 908 992 m 406 1071 l 406 1087 q 486 1193 445 1135 q 550 1293 527 1251 l 736 1293 l 736 1278 q 630 1172 700 1237 q 512 1071 560 1106 l 406 1071 "}," ":{"x_min":0,"x_max":0,"ha":278},"Ŷ":{"x_min":0,"x_max":822,"ha":822,"o":"m 411 539 l 645 992 l 822 992 l 491 384 l 491 0 l 328 0 l 328 379 l 0 992 l 176 992 l 411 539 m 565 1071 q 410 1192 481 1120 q 258 1071 340 1123 l 150 1071 l 150 1087 q 323 1293 280 1221 l 499 1293 q 673 1087 542 1218 l 673 1071 l 565 1071 "},"ỏ":{"x_min":69.140625,"x_max":778.859375,"ha":848,"o":"m 778 376 q 684 89 778 192 q 422 -14 590 -14 q 236 33 317 -14 q 112 169 155 81 q 69 376 69 258 q 162 661 69 558 q 426 764 256 764 q 683 659 589 764 q 778 376 778 554 m 233 376 q 425 116 233 116 q 614 376 614 116 q 423 633 614 633 q 278 567 323 633 q 233 376 233 500 m 587 1011 q 476 885 587 911 l 469 822 l 375 822 l 362 931 q 438 956 413 940 q 462 1002 462 973 q 388 1052 462 1052 q 310 1042 348 1052 l 310 1134 q 405 1146 356 1146 q 541 1112 494 1146 q 587 1011 587 1078 "},"Ự":{"x_min":122.125,"x_max":1183.953125,"ha":1148,"o":"m 908 992 l 908 860 q 986 919 961 872 q 1011 1056 1011 966 l 1174 1056 l 1183 1041 q 1132 890 1165 944 q 1044 803 1099 837 q 908 756 989 769 l 908 349 q 805 82 908 179 q 515 -14 702 -14 q 225 83 328 -14 q 122 352 122 181 l 122 992 l 284 992 l 284 355 q 519 124 284 124 q 746 356 746 124 l 746 992 l 908 992 m 421 -177 q 445 -112 421 -135 q 512 -89 468 -89 q 578 -112 555 -89 q 600 -177 600 -135 q 577 -241 600 -217 q 512 -265 554 -265 q 445 -241 468 -265 q 421 -177 421 -218 "},"ŝ":{"x_min":66.453125,"x_max":617.6875,"ha":676,"o":"m 617 213 q 537 44 617 103 q 308 -14 457 -14 q 67 31 158 -14 l 67 169 q 313 108 200 108 q 461 197 461 108 q 444 244 461 225 q 391 284 428 263 q 287 330 353 304 q 112 430 157 380 q 66 561 66 480 q 144 710 66 657 q 355 764 221 764 q 605 710 487 764 l 553 590 q 349 640 432 640 q 223 568 223 640 q 256 508 223 533 q 400 441 289 484 q 534 375 492 405 q 597 306 577 345 q 617 213 617 267 m 501 842 q 346 963 417 891 q 194 842 276 894 l 86 842 l 86 858 q 259 1064 216 992 l 435 1064 q 609 858 478 989 l 609 842 l 501 842 "},"Ý":{"x_min":0,"x_max":822,"ha":822,"o":"m 411 539 l 645 992 l 822 992 l 491 384 l 491 0 l 328 0 l 328 379 l 0 992 l 176 992 l 411 539 m 305 1071 l 305 1087 q 385 1193 344 1135 q 449 1293 426 1251 l 635 1293 l 635 1278 q 529 1172 599 1237 q 411 1071 459 1106 l 305 1071 "},"Ĉ":{"x_min":82.03125,"x_max":834.578125,"ha":880,"o":"m 552 866 q 332 767 412 866 q 252 494 252 668 q 329 218 252 311 q 552 124 406 124 q 674 136 615 124 q 797 169 733 149 l 797 30 q 532 -14 680 -14 q 198 117 315 -14 q 82 495 82 249 q 138 766 82 650 q 302 944 195 882 q 553 1006 409 1006 q 834 942 705 1006 l 776 807 q 670 849 726 831 q 552 866 614 866 m 683 1071 q 528 1192 599 1120 q 376 1071 458 1123 l 268 1071 l 268 1087 q 441 1293 398 1221 l 617 1293 q 791 1087 660 1218 l 791 1071 l 683 1071 "}," ":{"x_min":0,"x_max":0,"ha":1389},"ą":{"x_min":61.0625,"x_max":718.78125,"ha":806,"o":"m 583 0 l 551 104 l 546 104 q 436 10 491 35 q 295 -14 382 -14 q 123 45 185 -14 q 61 215 61 105 q 147 390 61 331 q 409 454 233 449 l 539 459 l 539 498 q 505 606 539 570 q 401 641 472 641 q 291 624 344 641 q 189 584 238 608 l 137 698 q 271 747 198 730 q 408 764 343 764 q 624 701 551 764 q 697 505 697 639 l 697 0 l 583 0 m 346 108 q 485 156 432 108 q 538 293 538 205 l 538 358 l 441 354 q 277 316 329 350 q 226 213 226 283 q 256 135 226 163 q 346 108 286 108 m 588 -157 q 648 -218 588 -218 q 718 -206 677 -218 l 718 -304 q 624 -318 672 -318 q 508 -279 548 -318 q 469 -176 469 -241 q 495 -90 469 -132 q 584 0 520 -48 l 685 0 q 613 -81 638 -44 q 588 -157 588 -118 "},"Ờ":{"x_min":82.09375,"x_max":1149.265625,"ha":1114,"o":"m 1010 496 q 889 120 1010 254 q 547 -14 768 -14 q 202 119 322 -14 q 82 498 82 252 q 203 875 82 743 q 548 1007 324 1007 q 897 865 776 1007 q 956 926 937 880 q 975 1055 975 971 l 1139 1055 l 1149 1040 q 1081 863 1127 926 q 957 770 1034 800 q 1010 496 1010 652 m 254 496 q 328 217 254 311 q 547 124 402 124 q 838 496 838 124 q 548 867 838 867 q 328 774 402 867 q 254 496 254 681 m 546 1071 q 428 1172 500 1106 q 324 1278 357 1239 l 324 1293 l 509 1293 q 579 1184 535 1245 q 654 1087 624 1122 l 654 1071 l 546 1071 "},"​":{"x_min":0,"x_max":0,"ha":0},"Ö":{"x_min":82.046875,"x_max":1010.953125,"ha":1093,"o":"m 1010 496 q 889 120 1010 254 q 547 -14 768 -14 q 202 119 322 -14 q 82 498 82 252 q 203 875 82 743 q 548 1007 324 1007 q 890 873 769 1007 q 1010 496 1010 739 m 254 496 q 328 219 254 313 q 547 124 402 124 q 765 217 691 124 q 838 496 838 311 q 765 773 838 679 q 548 867 692 867 q 328 773 402 867 q 254 496 254 679 m 336 1177 q 359 1238 336 1219 q 414 1257 382 1257 q 472 1235 450 1257 q 493 1177 493 1214 q 471 1119 493 1141 q 414 1098 449 1098 q 359 1117 382 1098 q 336 1177 336 1137 m 603 1177 q 625 1238 603 1219 q 681 1257 648 1257 q 738 1235 717 1257 q 760 1177 760 1214 q 738 1119 760 1140 q 681 1098 715 1098 q 625 1117 648 1098 q 603 1177 603 1137 "},"z":{"x_min":46.125,"x_max":615.171875,"ha":664,"o":"m 615 0 l 46 0 l 46 98 l 425 627 l 69 627 l 69 750 l 604 750 l 604 638 l 233 122 l 615 122 l 615 0 "},"ặ":{"x_min":61.0625,"x_max":697.453125,"ha":806,"o":"m 583 0 l 551 104 l 546 104 q 436 10 491 35 q 295 -14 382 -14 q 123 45 185 -14 q 61 215 61 105 q 147 390 61 331 q 409 454 233 449 l 539 459 l 539 498 q 505 606 539 570 q 401 641 472 641 q 291 624 344 641 q 189 584 238 608 l 137 698 q 271 747 198 730 q 408 764 343 764 q 624 701 551 764 q 697 505 697 639 l 697 0 l 583 0 m 346 108 q 485 156 432 108 q 538 293 538 205 l 538 358 l 441 354 q 277 316 329 350 q 226 213 226 283 q 256 135 226 163 q 346 108 286 108 m 395 842 q 228 896 289 842 q 161 1048 166 950 l 254 1048 q 272 995 257 1015 q 314 968 287 976 q 398 960 342 960 q 504 982 469 960 q 543 1048 538 1005 l 637 1048 q 564 897 629 952 q 395 842 499 842 m 288 -177 q 312 -112 288 -135 q 379 -89 335 -89 q 445 -112 422 -89 q 467 -177 467 -135 q 444 -241 467 -217 q 379 -265 421 -265 q 312 -241 335 -265 q 288 -177 288 -218 "},"Ř":{"x_min":130.921875,"x_max":875.109375,"ha":888,"o":"m 293 531 l 405 531 q 569 573 518 531 q 620 697 620 615 q 565 818 620 781 q 400 855 510 855 l 293 855 l 293 531 m 293 396 l 293 0 l 130 0 l 130 992 l 411 992 q 695 920 603 992 q 787 703 787 848 q 594 439 787 518 l 875 0 l 690 0 l 453 396 l 293 396 m 702 1293 l 702 1274 q 581 1144 616 1186 q 528 1071 546 1102 l 352 1071 q 179 1274 308 1142 l 179 1293 l 287 1293 q 439 1169 380 1232 q 594 1293 505 1236 l 702 1293 "},"Ắ":{"x_min":0,"x_max":918,"ha":918,"o":"m 745 0 l 646 275 l 267 275 l 170 0 l 0 0 l 370 996 l 547 996 l 918 0 l 745 0 m 604 415 l 511 685 q 483 770 501 712 q 458 856 465 829 q 404 673 440 772 l 315 415 l 604 415 m 404 1264 q 487 1402 454 1332 l 620 1402 l 620 1387 q 481 1247 559 1308 l 404 1247 l 404 1264 m 458 1071 q 299 1122 356 1071 q 237 1274 242 1174 l 323 1274 q 359 1197 328 1222 q 459 1172 391 1172 q 554 1198 518 1172 q 595 1274 589 1223 l 683 1274 q 616 1124 676 1177 q 458 1071 557 1071 "},"ã":{"x_min":61.0625,"x_max":697.453125,"ha":806,"o":"m 583 0 l 551 104 l 546 104 q 436 10 491 35 q 295 -14 382 -14 q 123 45 185 -14 q 61 215 61 105 q 147 390 61 331 q 409 454 233 449 l 539 459 l 539 498 q 505 606 539 570 q 401 641 472 641 q 291 624 344 641 q 189 584 238 608 l 137 698 q 271 747 198 730 q 408 764 343 764 q 624 701 551 764 q 697 505 697 639 l 697 0 l 583 0 m 346 108 q 485 156 432 108 q 538 293 538 205 l 538 358 l 441 354 q 277 316 329 350 q 226 213 226 283 q 256 135 226 163 q 346 108 286 108 m 507 841 q 451 853 478 841 q 397 879 423 865 q 345 906 370 894 q 297 918 320 918 q 223 840 242 918 l 141 840 q 193 984 149 934 q 307 1034 237 1034 q 364 1021 336 1034 q 418 995 391 1009 q 469 968 444 980 q 517 956 494 956 q 589 1035 570 956 l 674 1035 q 621 892 665 943 q 507 841 577 841 "},"Ň":{"x_min":130.90625,"x_max":957.09375,"ha":1088,"o":"m 957 0 l 758 0 l 270 790 l 265 790 l 268 746 q 278 515 278 620 l 278 0 l 130 0 l 130 992 l 327 992 l 814 205 l 818 205 q 812 319 816 221 q 808 472 808 417 l 808 992 l 957 992 l 957 0 m 812 1293 l 812 1274 q 691 1144 726 1186 q 638 1071 656 1102 l 462 1071 q 289 1274 418 1142 l 289 1293 l 397 1293 q 549 1169 490 1232 q 704 1293 615 1236 l 812 1293 "},"æ":{"x_min":61.03125,"x_max":1166.234375,"ha":1232,"o":"m 61 215 q 143 390 61 331 q 394 454 225 449 l 522 459 l 522 510 q 385 641 522 641 q 177 586 290 641 l 127 698 q 258 747 187 730 q 396 764 328 764 q 626 658 559 764 q 861 764 707 764 q 1083 672 1000 764 q 1166 426 1166 581 l 1166 340 l 683 340 q 887 112 690 112 q 1128 166 1012 112 l 1128 36 q 1012 -2 1070 9 q 880 -14 954 -14 q 711 23 785 -14 q 592 134 638 60 q 463 17 528 49 q 299 -14 398 -14 q 124 47 187 -14 q 61 215 61 108 m 226 213 q 339 108 226 108 q 471 157 423 108 q 520 293 520 206 l 520 358 l 429 354 q 275 317 324 350 q 226 213 226 284 m 858 643 q 738 595 782 643 q 687 454 693 548 l 1008 454 q 968 592 1008 542 q 858 643 928 643 "},"ừ":{"x_min":107.171875,"x_max":1044.625,"ha":989,"o":"m 643 0 l 620 97 l 611 97 q 517 15 577 45 q 379 -14 457 -14 q 174 53 242 -14 q 107 259 107 121 l 107 750 l 267 750 l 267 287 q 303 157 267 201 q 413 114 338 114 q 561 174 514 114 q 608 376 608 234 l 608 750 l 768 750 l 768 669 q 847 729 822 681 q 872 865 872 776 l 1035 865 l 1044 849 q 992 696 1025 751 q 903 608 959 641 q 768 565 848 574 l 768 0 l 643 0 m 412 842 q 294 943 366 877 q 190 1049 223 1010 l 190 1064 l 375 1064 q 445 955 401 1016 q 520 858 490 893 l 520 842 l 412 842 "},"Ợ":{"x_min":82.09375,"x_max":1149.265625,"ha":1114,"o":"m 1010 496 q 889 120 1010 254 q 547 -14 768 -14 q 202 119 322 -14 q 82 498 82 252 q 203 875 82 743 q 548 1007 324 1007 q 897 865 776 1007 q 956 926 937 880 q 975 1055 975 971 l 1139 1055 l 1149 1040 q 1081 863 1127 926 q 957 770 1034 800 q 1010 496 1010 652 m 254 496 q 328 217 254 311 q 547 124 402 124 q 838 496 838 124 q 548 867 838 867 q 328 774 402 867 q 254 496 254 681 m 455 -177 q 479 -112 455 -135 q 546 -89 502 -89 q 612 -112 589 -89 q 634 -177 634 -135 q 611 -241 634 -217 q 546 -265 588 -265 q 479 -241 502 -265 q 455 -177 455 -218 "},"ĩ":{"x_min":-70.96875,"x_max":462,"ha":387,"o":"m 273 0 l 113 0 l 113 750 l 273 750 l 273 0 m 295 841 q 239 853 266 841 q 185 879 211 865 q 133 906 158 894 q 85 918 108 918 q 11 840 30 918 l -70 840 q -18 984 -62 934 q 95 1034 25 1034 q 152 1021 124 1034 q 206 995 179 1009 q 257 968 232 980 q 305 956 282 956 q 377 1035 358 956 l 462 1035 q 409 892 453 943 q 295 841 365 841 "},"É":{"x_min":130.859375,"x_max":691.59375,"ha":775,"o":"m 691 0 l 130 0 l 130 992 l 691 992 l 691 855 l 292 855 l 292 585 l 666 585 l 666 449 l 292 449 l 292 137 l 691 137 l 691 0 m 298 1071 l 298 1087 q 378 1193 337 1135 q 442 1293 419 1251 l 628 1293 l 628 1278 q 522 1172 592 1237 q 404 1071 452 1106 l 298 1071 "},"ŀ":{"x_min":113.859375,"x_max":541.421875,"ha":515,"o":"m 273 0 l 113 0 l 113 1055 l 273 1055 l 273 0 m 362 465 q 385 530 362 507 q 452 554 409 554 q 518 530 494 554 q 541 465 541 507 q 518 401 541 424 q 452 378 494 378 q 385 401 409 378 q 362 465 362 424 "},"~":{"x_min":65.125,"x_max":727.875,"ha":793,"o":"m 223 469 q 148 448 189 469 q 65 387 106 428 l 65 516 q 234 590 132 590 q 319 581 279 590 q 419 547 359 572 q 568 509 508 509 q 646 530 603 509 q 727 591 688 551 l 727 462 q 558 387 656 387 q 471 397 514 387 q 372 431 429 408 q 223 469 286 469 "},"Ċ":{"x_min":82.03125,"x_max":834.578125,"ha":880,"o":"m 552 866 q 332 767 412 866 q 252 494 252 668 q 329 218 252 311 q 552 124 406 124 q 674 136 615 124 q 797 169 733 149 l 797 30 q 532 -14 680 -14 q 198 117 315 -14 q 82 495 82 249 q 138 766 82 650 q 302 944 195 882 q 553 1006 409 1006 q 834 942 705 1006 l 776 807 q 670 849 726 831 q 552 866 614 866 m 447 1177 q 470 1242 447 1219 q 537 1266 494 1266 q 603 1242 579 1266 q 626 1177 626 1219 q 603 1113 626 1136 q 537 1090 579 1090 q 470 1113 494 1090 q 447 1177 447 1136 "},"³":{"x_min":30.53125,"x_max":457.1875,"ha":504,"o":"m 437 848 q 410 764 437 797 q 328 706 382 732 q 424 654 392 692 q 457 565 457 617 q 394 432 457 479 q 213 386 331 386 q 30 428 113 386 l 30 534 q 213 480 128 480 q 335 572 335 480 q 200 656 335 656 l 122 656 l 122 747 l 193 747 q 318 834 318 747 q 294 888 318 869 q 233 907 271 907 q 161 894 194 907 q 90 855 128 880 l 33 932 q 124 983 74 963 q 240 1004 173 1004 q 384 962 331 1004 q 437 848 437 920 "},"¡":{"x_min":90.15625,"x_max":291.59375,"ha":383,"o":"m 130 437 l 248 437 l 283 -252 l 95 -252 l 130 437 m 291 654 q 266 577 291 604 q 190 551 240 551 q 115 577 141 551 q 90 654 90 604 q 115 729 90 701 q 190 758 141 758 q 265 730 239 758 q 291 654 291 703 "},"ẅ":{"x_min":13.5625,"x_max":1120.078125,"ha":1135,"o":"m 729 0 l 632 349 q 568 608 614 405 l 562 608 q 499 348 523 425 l 400 0 l 223 0 l 13 750 l 176 750 l 272 380 q 318 145 304 243 l 322 145 q 342 259 329 195 q 367 355 356 323 l 481 750 l 656 750 l 766 355 q 792 253 776 322 q 810 147 807 185 l 815 147 q 862 380 825 230 l 960 750 l 1120 750 l 908 0 l 729 0 m 353 948 q 376 1009 353 990 q 431 1028 399 1028 q 489 1006 467 1028 q 510 948 510 985 q 488 890 510 912 q 431 869 466 869 q 376 888 399 869 q 353 948 353 908 m 620 948 q 642 1009 620 990 q 698 1028 665 1028 q 755 1006 734 1028 q 777 948 777 985 q 755 890 777 911 q 698 869 732 869 q 642 888 665 869 q 620 948 620 908 "},"ậ":{"x_min":61.0625,"x_max":697.453125,"ha":806,"o":"m 583 0 l 551 104 l 546 104 q 436 10 491 35 q 295 -14 382 -14 q 123 45 185 -14 q 61 215 61 105 q 147 390 61 331 q 409 454 233 449 l 539 459 l 539 498 q 505 606 539 570 q 401 641 472 641 q 291 624 344 641 q 189 584 238 608 l 137 698 q 271 747 198 730 q 408 764 343 764 q 624 701 551 764 q 697 505 697 639 l 697 0 l 583 0 m 346 108 q 485 156 432 108 q 538 293 538 205 l 538 358 l 441 354 q 277 316 329 350 q 226 213 226 283 q 256 135 226 163 q 346 108 286 108 m 292 -177 q 316 -112 292 -135 q 383 -89 339 -89 q 449 -112 426 -89 q 471 -177 471 -135 q 448 -241 471 -217 q 383 -265 425 -265 q 316 -241 339 -265 q 292 -177 292 -218 m 552 842 q 397 963 468 891 q 245 842 327 894 l 137 842 l 137 858 q 310 1064 267 992 l 486 1064 q 660 858 529 989 l 660 842 l 552 842 "},"[":{"x_min":104.34375,"x_max":423.453125,"ha":458,"o":"m 423 -220 l 104 -220 l 104 992 l 423 992 l 423 872 l 250 872 l 250 -99 l 423 -99 l 423 -220 "},"Ử":{"x_min":122.125,"x_max":1183.953125,"ha":1148,"o":"m 908 992 l 908 860 q 986 919 961 872 q 1011 1056 1011 966 l 1174 1056 l 1183 1041 q 1132 890 1165 944 q 1044 803 1099 837 q 908 756 989 769 l 908 349 q 805 82 908 179 q 515 -14 702 -14 q 225 83 328 -14 q 122 352 122 181 l 122 992 l 284 992 l 284 355 q 519 124 284 124 q 746 356 746 124 l 746 992 l 908 992 m 680 1240 q 569 1114 680 1140 l 562 1051 l 468 1051 l 455 1160 q 531 1185 506 1169 q 555 1231 555 1202 q 481 1281 555 1281 q 403 1271 441 1281 l 403 1363 q 498 1375 449 1375 q 634 1341 587 1375 q 680 1240 680 1307 "},"%":{"x_min":56.96875,"x_max":1140.03125,"ha":1197,"o":"m 189 694 q 208 543 189 593 q 273 494 228 494 q 362 694 362 494 q 273 894 362 894 q 208 845 228 894 q 189 694 189 795 m 494 695 q 438 461 494 539 q 273 383 382 383 q 113 464 170 383 q 56 695 56 545 q 273 1006 56 1006 q 437 925 379 1006 q 494 695 494 845 m 834 298 q 854 146 834 197 q 919 96 874 96 q 1008 298 1008 96 q 919 497 1008 497 q 854 448 874 497 q 834 298 834 399 m 1140 298 q 1083 64 1140 142 q 919 -14 1027 -14 q 759 66 816 -14 q 702 298 702 147 q 919 609 702 609 q 1082 528 1024 609 q 1140 298 1140 448 m 938 992 l 388 0 l 257 0 l 807 992 l 938 992 "},"P":{"x_min":130.96875,"x_max":787.828125,"ha":855,"o":"m 787 692 q 686 454 787 537 q 396 371 584 371 l 293 371 l 293 0 l 130 0 l 130 992 l 416 992 q 695 916 602 992 q 787 692 787 840 m 293 508 l 379 508 q 562 551 504 508 q 620 686 620 594 q 568 814 620 772 q 405 856 516 856 l 293 856 l 293 508 "},"_":{"x_min":-2.71875,"x_max":598.71875,"ha":596,"o":"m 598 -216 l -2 -216 l -2 -125 l 598 -125 l 598 -216 "},"Ŕ":{"x_min":130.921875,"x_max":875.109375,"ha":888,"o":"m 293 531 l 405 531 q 569 573 518 531 q 620 697 620 615 q 565 818 620 781 q 400 855 510 855 l 293 855 l 293 531 m 293 396 l 293 0 l 130 0 l 130 992 l 411 992 q 695 920 603 992 q 787 703 787 848 q 594 439 787 518 l 875 0 l 690 0 l 453 396 l 293 396 m 335 1071 l 335 1087 q 415 1193 374 1135 q 479 1293 456 1251 l 665 1293 l 665 1278 q 559 1172 629 1237 q 441 1071 489 1106 l 335 1071 "},"ñ":{"x_min":113.984375,"x_max":774.125,"ha":882,"o":"m 774 0 l 614 0 l 614 461 q 579 591 614 548 q 468 633 544 633 q 320 574 367 633 q 273 373 273 514 l 273 0 l 113 0 l 113 750 l 238 750 l 261 652 l 269 652 q 365 734 303 705 q 504 764 428 764 q 774 489 774 764 l 774 0 m 548 841 q 492 853 519 841 q 438 879 464 865 q 386 906 411 894 q 338 918 361 918 q 264 840 283 918 l 182 840 q 234 984 190 934 q 348 1034 278 1034 q 405 1021 377 1034 q 459 995 432 1009 q 510 968 485 980 q 558 956 535 956 q 630 1035 611 956 l 715 1035 q 662 892 706 943 q 548 841 618 841 "},"‚":{"x_min":42.6875,"x_max":279.328125,"ha":372,"o":"m 279 145 q 159 -179 246 19 l 42 -179 q 112 161 89 3 l 269 161 l 279 145 "},"Æ":{"x_min":-1.359375,"x_max":1184.9375,"ha":1267,"o":"m 1184 0 l 634 0 l 634 275 l 293 275 l 165 0 l -1 0 l 458 992 l 1184 992 l 1184 855 l 797 855 l 797 585 l 1158 585 l 1158 449 l 797 449 l 797 137 l 1184 137 l 1184 0 m 354 415 l 634 415 l 634 850 l 551 850 l 354 415 "},"ğ":{"x_min":15.609375,"x_max":747.890625,"ha":773,"o":"m 747 750 l 747 662 l 619 638 q 648 580 637 615 q 660 507 660 545 q 580 324 660 391 q 359 258 500 258 q 294 263 323 258 q 242 189 242 231 q 266 150 242 163 q 355 138 291 138 l 486 138 q 675 85 610 138 q 739 -67 739 32 q 634 -264 739 -195 q 330 -334 529 -334 q 96 -279 177 -334 q 15 -124 15 -225 q 59 -8 15 -55 q 181 57 103 38 q 129 100 149 70 q 108 164 108 131 q 132 235 108 206 q 202 292 156 264 q 108 374 144 317 q 71 507 71 431 q 148 696 71 629 q 368 764 226 764 q 435 759 400 764 q 487 750 470 754 l 747 750 m 158 -116 q 204 -196 158 -168 q 335 -224 251 -224 q 529 -186 465 -224 q 593 -87 593 -149 q 558 -17 593 -38 q 428 3 523 3 l 307 3 q 198 -29 238 3 q 158 -116 158 -61 m 226 507 q 262 398 226 436 q 367 360 299 360 q 505 508 505 360 q 471 621 505 582 q 367 661 437 661 q 262 622 297 661 q 226 507 226 582 m 383 842 q 216 896 277 842 q 149 1048 154 950 l 242 1048 q 260 995 245 1015 q 302 968 275 976 q 386 960 330 960 q 492 982 457 960 q 531 1048 526 1005 l 625 1048 q 552 897 617 952 q 383 842 487 842 "},"Ở":{"x_min":82.09375,"x_max":1149.265625,"ha":1114,"o":"m 1010 496 q 889 120 1010 254 q 547 -14 768 -14 q 202 119 322 -14 q 82 498 82 252 q 203 875 82 743 q 548 1007 324 1007 q 897 865 776 1007 q 956 926 937 880 q 975 1055 975 971 l 1139 1055 l 1149 1040 q 1081 863 1127 926 q 957 770 1034 800 q 1010 496 1010 652 m 254 496 q 328 217 254 311 q 547 124 402 124 q 838 496 838 124 q 548 867 838 867 q 328 774 402 867 q 254 496 254 681 m 718 1240 q 607 1114 718 1140 l 600 1051 l 506 1051 l 493 1160 q 569 1185 544 1169 q 593 1231 593 1202 q 519 1281 593 1281 q 441 1271 479 1281 l 441 1363 q 536 1375 487 1375 q 672 1341 625 1375 q 718 1240 718 1307 "},"Ū":{"x_min":122.09375,"x_max":908.234375,"ha":1031,"o":"m 908 992 l 908 349 q 861 157 908 239 q 724 30 813 74 q 511 -14 635 -14 q 224 83 326 -14 q 122 352 122 181 l 122 992 l 284 992 l 284 364 q 341 182 284 241 q 516 124 398 124 q 746 365 746 124 l 746 992 l 908 992 m 299 1189 l 732 1189 l 732 1071 l 299 1071 l 299 1189 "},"ª":{"x_min":38.625,"x_max":446.609375,"ha":511,"o":"m 370 530 l 350 595 q 279 540 319 558 q 191 522 239 522 q 76 557 115 522 q 38 665 38 593 q 95 773 38 735 q 266 815 152 811 l 338 818 q 315 891 338 866 q 245 915 292 915 q 103 877 184 915 l 66 955 q 259 1003 164 1003 q 399 960 353 1003 q 446 833 446 918 l 446 530 l 370 530 m 271 744 q 186 721 223 743 q 149 666 149 699 q 214 606 149 606 q 307 634 276 606 q 338 718 338 662 l 338 747 l 271 744 "},"Œ":{"x_min":82.0625,"x_max":1233.578125,"ha":1317,"o":"m 1233 0 l 677 0 q 534 -14 608 -14 q 199 119 317 -14 q 82 498 82 252 q 198 874 82 742 q 531 1007 315 1007 q 673 992 609 1007 l 1233 992 l 1233 855 l 842 855 l 842 585 l 1208 585 l 1208 449 l 842 449 l 842 137 l 1233 137 l 1233 0 m 537 867 q 324 773 396 867 q 251 496 251 679 q 323 219 251 314 q 536 124 395 124 q 680 148 623 124 l 680 842 q 537 867 626 867 "},"Ạ":{"x_min":0,"x_max":918,"ha":918,"o":"m 745 0 l 646 275 l 267 275 l 170 0 l 0 0 l 370 996 l 547 996 l 918 0 l 745 0 m 604 415 l 511 685 q 483 770 501 712 q 458 856 465 829 q 404 673 440 772 l 315 415 l 604 415 m 369 -177 q 393 -112 369 -135 q 460 -89 416 -89 q 526 -112 503 -89 q 548 -177 548 -135 q 525 -241 548 -217 q 460 -265 502 -265 q 393 -241 416 -265 q 369 -177 369 -218 "},"Ą":{"x_min":0,"x_max":918,"ha":918,"o":"m 745 0 l 646 275 l 267 275 l 170 0 l 0 0 l 370 996 l 547 996 l 918 0 l 745 0 m 604 415 l 511 685 q 483 770 501 712 q 458 856 465 829 q 404 673 440 772 l 315 415 l 604 415 m 751 -157 q 811 -218 751 -218 q 881 -206 840 -218 l 881 -304 q 787 -318 835 -318 q 671 -279 711 -318 q 632 -176 632 -241 q 658 -90 632 -132 q 747 0 683 -48 l 848 0 q 776 -81 801 -44 q 751 -157 751 -118 "},"T":{"x_min":19.671875,"x_max":764.984375,"ha":786,"o":"m 473 0 l 311 0 l 311 852 l 19 852 l 19 992 l 764 992 l 764 852 l 473 852 l 473 0 "},"š":{"x_min":66.453125,"x_max":617.6875,"ha":676,"o":"m 617 213 q 537 44 617 103 q 308 -14 457 -14 q 67 31 158 -14 l 67 169 q 313 108 200 108 q 461 197 461 108 q 444 244 461 225 q 391 284 428 263 q 287 330 353 304 q 112 430 157 380 q 66 561 66 480 q 144 710 66 657 q 355 764 221 764 q 605 710 487 764 l 553 590 q 349 640 432 640 q 223 568 223 640 q 256 508 223 533 q 400 441 289 484 q 534 375 492 405 q 597 306 577 345 q 617 213 617 267 m 613 1064 l 613 1045 q 492 915 527 957 q 439 842 457 873 l 263 842 q 90 1045 219 913 l 90 1064 l 198 1064 q 350 940 291 1003 q 505 1064 416 1007 l 613 1064 "},"ỷ":{"x_min":0,"x_max":745,"ha":745,"o":"m 0 750 l 173 750 l 326 324 q 372 153 360 233 l 377 153 q 400 244 384 191 q 572 750 416 297 l 745 750 l 424 -99 q 132 -334 336 -334 q 29 -322 79 -334 l 29 -196 q 111 -204 65 -204 q 273 -70 226 -204 l 301 0 l 0 750 m 530 1011 q 419 885 530 911 l 412 822 l 318 822 l 305 931 q 381 956 356 940 q 405 1002 405 973 q 331 1052 405 1052 q 253 1042 291 1052 l 253 1134 q 348 1146 299 1146 q 484 1112 437 1146 q 530 1011 530 1078 "},"Þ":{"x_min":130.90625,"x_max":792.859375,"ha":860,"o":"m 792 526 q 693 289 792 372 q 406 207 594 207 l 293 207 l 293 0 l 130 0 l 130 992 l 293 992 l 293 827 l 426 827 q 700 751 608 827 q 792 526 792 675 m 293 342 l 383 342 q 568 384 510 342 q 626 522 626 427 q 573 650 626 608 q 404 692 520 692 l 293 692 l 293 342 "},"j":{"x_min":-82.140625,"x_max":283.421875,"ha":387,"o":"m 37 -334 q -82 -317 -34 -334 l -82 -190 q 12 -203 -36 -203 q 113 -87 113 -203 l 113 750 l 273 750 l 273 -98 q 212 -274 273 -214 q 37 -334 151 -334 m 104 949 q 127 1014 104 991 q 194 1038 151 1038 q 260 1014 236 1038 q 283 949 283 991 q 260 885 283 908 q 194 862 236 862 q 127 885 151 862 q 104 949 104 908 "},"1":{"x_min":104.53125,"x_max":529.09375,"ha":793,"o":"m 529 0 l 369 0 l 369 640 q 375 822 369 755 q 336 786 359 806 q 184 661 314 766 l 104 762 l 396 992 l 529 992 l 529 0 "},"›":{"x_min":54.296875,"x_max":411.34375,"ha":467,"o":"m 411 362 l 168 70 l 54 135 l 245 371 l 54 609 l 168 673 l 411 379 l 411 362 "},"<":{"x_min":65.125,"x_max":727.875,"ha":793,"o":"m 727 150 l 65 441 l 65 523 l 727 855 l 727 722 l 230 489 l 727 283 l 727 150 "},"t":{"x_min":26.453125,"x_max":510.046875,"ha":546,"o":"m 393 114 q 510 133 451 114 l 510 13 q 441 -6 483 1 q 355 -14 400 -14 q 128 224 128 -14 l 128 629 l 26 629 l 26 699 l 136 758 l 190 917 l 288 917 l 288 750 l 502 750 l 502 629 l 288 629 l 288 227 q 317 142 288 169 q 393 114 346 114 "},"¬":{"x_min":65.125,"x_max":727.875,"ha":793,"o":"m 727 174 l 607 174 l 607 429 l 65 429 l 65 550 l 727 550 l 727 174 "},"ù":{"x_min":107.203125,"x_max":768.703125,"ha":882,"o":"m 643 0 l 620 97 l 612 97 q 518 15 579 45 q 377 -14 456 -14 q 174 53 241 -14 q 107 259 107 121 l 107 750 l 267 750 l 267 287 q 303 157 267 201 q 413 114 338 114 q 561 174 514 114 q 608 376 608 234 l 608 750 l 768 750 l 768 0 l 643 0 m 417 842 q 299 943 371 877 q 195 1049 228 1010 l 195 1064 l 380 1064 q 450 955 406 1016 q 525 858 495 893 l 525 842 l 417 842 "},"ĉ":{"x_min":69.203125,"x_max":656.046875,"ha":688,"o":"m 416 -14 q 157 85 246 -14 q 69 370 69 184 q 161 662 69 560 q 429 764 254 764 q 643 719 548 764 l 595 591 q 428 631 493 631 q 233 372 233 631 q 281 182 233 245 q 424 118 330 118 q 625 171 530 118 l 625 32 q 534 -3 582 7 q 416 -14 485 -14 m 548 842 q 393 963 464 891 q 241 842 323 894 l 133 842 l 133 858 q 306 1064 263 992 l 482 1064 q 656 858 525 989 l 656 842 l 548 842 "},"ï":{"x_min":-17.28125,"x_max":406.609375,"ha":387,"o":"m 273 0 l 113 0 l 113 750 l 273 750 l 273 0 m -17 948 q 5 1009 -17 990 q 60 1028 28 1028 q 118 1006 96 1028 q 139 948 139 985 q 117 890 139 912 q 60 869 95 869 q 5 888 28 869 q -17 948 -17 908 m 249 948 q 271 1009 249 990 q 327 1028 294 1028 q 384 1006 363 1028 q 406 948 406 985 q 384 890 406 911 q 327 869 361 869 q 271 888 294 869 q 249 948 249 908 "},"ī":{"x_min":-21.75,"x_max":411.390625,"ha":387,"o":"m 273 0 l 113 0 l 113 750 l 273 750 l 273 0 m -21 960 l 411 960 l 411 842 l -21 842 l -21 960 "},"Ò":{"x_min":82.046875,"x_max":1010.953125,"ha":1093,"o":"m 1010 496 q 889 120 1010 254 q 547 -14 768 -14 q 202 119 322 -14 q 82 498 82 252 q 203 875 82 743 q 548 1007 324 1007 q 890 873 769 1007 q 1010 496 1010 739 m 254 496 q 328 219 254 313 q 547 124 402 124 q 765 217 691 124 q 838 496 838 311 q 765 773 838 679 q 548 867 692 867 q 328 773 402 867 q 254 496 254 679 m 548 1071 q 430 1172 502 1106 q 326 1278 359 1239 l 326 1293 l 511 1293 q 581 1184 537 1245 q 656 1087 626 1122 l 656 1071 l 548 1071 "},"ầ":{"x_min":-0.15625,"x_max":697.453125,"ha":806,"o":"m 583 0 l 551 104 l 546 104 q 436 10 491 35 q 295 -14 382 -14 q 123 45 185 -14 q 61 215 61 105 q 147 390 61 331 q 409 454 233 449 l 539 459 l 539 498 q 505 606 539 570 q 401 641 472 641 q 291 624 344 641 q 189 584 238 608 l 137 698 q 271 747 198 730 q 408 764 343 764 q 624 701 551 764 q 697 505 697 639 l 697 0 l 583 0 m 346 108 q 485 156 432 108 q 538 293 538 205 l 538 358 l 441 354 q 277 316 329 350 q 226 213 226 283 q 256 135 226 163 q 346 108 286 108 m 172 858 q 274 980 248 947 q 319 1042 300 1014 l 486 1042 q 631 858 545 955 l 631 842 l 545 842 q 402 954 480 886 q 259 842 330 889 l 172 842 l 172 858 m 229 974 l 145 974 q 0 1113 51 1045 l 0 1128 l 140 1128 q 229 990 176 1053 l 229 974 "},"Ď":{"x_min":130.84375,"x_max":936.96875,"ha":1019,"o":"m 936 505 q 800 129 936 259 q 408 0 664 0 l 130 0 l 130 992 l 437 992 q 805 864 673 992 q 936 505 936 736 m 766 500 q 433 856 766 856 l 292 856 l 292 136 l 408 136 q 766 500 766 136 m 741 1293 l 741 1274 q 620 1144 655 1186 q 567 1071 585 1102 l 391 1071 q 218 1274 347 1142 l 218 1293 l 326 1293 q 478 1169 419 1232 q 633 1293 544 1236 l 741 1293 "},"&":{"x_min":65.09375,"x_max":1025.96875,"ha":1028,"o":"m 305 778 q 328 697 305 735 q 391 616 351 659 q 499 697 468 659 q 530 782 530 735 q 500 852 530 826 q 422 879 471 879 q 337 851 368 879 q 305 778 305 824 m 406 123 q 619 196 531 123 l 359 451 q 260 365 287 405 q 233 273 233 324 q 280 164 233 206 q 406 123 327 123 m 65 262 q 108 417 65 351 q 265 548 151 483 q 177 675 200 624 q 153 783 153 727 q 227 946 153 886 q 425 1006 301 1006 q 613 947 545 1006 q 682 791 682 889 q 636 651 682 714 q 483 524 590 588 l 718 298 q 809 511 773 371 l 973 511 q 821 197 926 318 l 1025 0 l 820 0 l 719 98 q 571 14 650 42 q 398 -14 493 -14 q 153 59 242 -14 q 65 262 65 133 "},"Ồ":{"x_min":82.046875,"x_max":1010.953125,"ha":1093,"o":"m 1010 496 q 889 120 1010 254 q 547 -14 768 -14 q 202 119 322 -14 q 82 498 82 252 q 203 875 82 743 q 548 1007 324 1007 q 890 873 769 1007 q 1010 496 1010 739 m 254 496 q 328 219 254 313 q 547 124 402 124 q 765 217 691 124 q 838 496 838 311 q 765 773 838 679 q 548 867 692 867 q 328 773 402 867 q 254 496 254 679 m 317 1087 q 419 1209 393 1176 q 464 1271 445 1243 l 631 1271 q 776 1087 690 1184 l 776 1071 l 690 1071 q 547 1183 625 1115 q 404 1071 475 1118 l 317 1071 l 317 1087 m 374 1203 l 290 1203 q 144 1342 196 1274 l 144 1357 l 285 1357 q 374 1219 321 1282 l 374 1203 "},"˝":{"x_min":130.828125,"x_max":677.171875,"ha":808,"o":"m 130 842 l 130 858 q 256 1064 201 956 l 422 1064 l 422 1049 q 336 949 402 1016 q 218 842 271 882 l 130 842 m 385 842 l 385 858 q 453 958 414 897 q 512 1064 491 1020 l 677 1064 l 677 1049 q 591 949 657 1016 q 473 842 526 882 l 385 842 "},"I":{"x_min":130.9375,"x_max":293.046875,"ha":424,"o":"m 130 0 l 130 992 l 293 992 l 293 0 l 130 0 "},"G":{"x_min":82.109375,"x_max":901.796875,"ha":1009,"o":"m 536 538 l 901 538 l 901 39 q 729 -1 812 10 q 551 -14 647 -14 q 204 119 326 -14 q 82 495 82 252 q 219 870 82 735 q 599 1006 357 1006 q 893 946 754 1006 l 836 811 q 595 866 715 866 q 343 767 436 866 q 251 494 251 667 q 334 217 251 312 q 574 123 417 123 q 742 142 652 123 l 742 398 l 536 398 l 536 538 "},"`":{"x_min":245.515625,"x_max":575.125,"ha":822,"o":"m 467 842 q 349 943 421 877 q 245 1049 278 1010 l 245 1064 l 430 1064 q 500 955 456 1016 q 575 858 545 893 l 575 842 l 467 842 "},"·":{"x_min":90.234375,"x_max":291.671875,"ha":382,"o":"m 90 490 q 116 566 90 540 q 190 593 141 593 q 265 565 240 593 q 291 490 291 538 q 265 414 291 442 q 190 386 239 386 q 116 413 141 386 q 90 490 90 441 "},"ỗ":{"x_min":69.140625,"x_max":778.859375,"ha":848,"o":"m 778 376 q 684 89 778 192 q 422 -14 590 -14 q 236 33 317 -14 q 112 169 155 81 q 69 376 69 258 q 162 661 69 558 q 426 764 256 764 q 683 659 589 764 q 778 376 778 554 m 233 376 q 425 116 233 116 q 614 376 614 116 q 423 633 614 633 q 278 567 323 633 q 233 376 233 500 m 519 1070 q 470 1079 495 1070 q 422 1099 446 1088 q 376 1120 399 1111 q 335 1130 354 1130 q 294 1116 308 1130 q 270 1069 279 1102 l 201 1069 q 242 1182 207 1139 q 332 1226 277 1226 q 383 1216 357 1226 q 432 1195 408 1206 q 477 1173 456 1183 q 517 1164 499 1164 q 558 1178 544 1164 q 582 1227 572 1193 l 650 1227 q 608 1111 643 1153 q 519 1070 573 1070 m 654 842 l 575 842 q 425 949 492 889 q 275 842 363 894 l 195 842 l 195 859 q 349 1036 309 978 l 502 1036 q 654 859 547 970 l 654 842 "},"Ễ":{"x_min":130.859375,"x_max":691.59375,"ha":775,"o":"m 691 0 l 130 0 l 130 992 l 691 992 l 691 855 l 292 855 l 292 585 l 666 585 l 666 449 l 292 449 l 292 137 l 691 137 l 691 0 m 506 1299 q 457 1308 482 1299 q 409 1328 433 1317 q 363 1349 386 1340 q 322 1359 341 1359 q 281 1345 295 1359 q 257 1298 266 1331 l 188 1298 q 229 1411 194 1368 q 319 1455 264 1455 q 370 1445 344 1455 q 419 1424 395 1435 q 464 1402 443 1412 q 504 1393 486 1393 q 545 1407 531 1393 q 569 1456 559 1422 l 637 1456 q 595 1340 630 1382 q 506 1299 560 1299 m 641 1071 l 562 1071 q 412 1178 479 1118 q 262 1071 350 1123 l 182 1071 l 182 1088 q 336 1265 296 1207 l 489 1265 q 641 1088 534 1199 l 641 1071 "},"ằ":{"x_min":61.0625,"x_max":697.453125,"ha":806,"o":"m 583 0 l 551 104 l 546 104 q 436 10 491 35 q 295 -14 382 -14 q 123 45 185 -14 q 61 215 61 105 q 147 390 61 331 q 409 454 233 449 l 539 459 l 539 498 q 505 606 539 570 q 401 641 472 641 q 291 624 344 641 q 189 584 238 608 l 137 698 q 271 747 198 730 q 408 764 343 764 q 624 701 551 764 q 697 505 697 639 l 697 0 l 583 0 m 346 108 q 485 156 432 108 q 538 293 538 205 l 538 358 l 441 354 q 277 316 329 350 q 226 213 226 283 q 256 135 226 163 q 346 108 286 108 m 449 1018 l 373 1018 q 234 1158 295 1079 l 234 1173 l 368 1173 q 449 1035 401 1100 l 449 1018 m 400 842 q 240 895 297 842 q 176 1045 182 948 l 263 1045 q 400 943 274 943 q 535 1045 523 943 l 622 1045 q 557 893 614 944 q 400 842 501 842 "},"ŏ":{"x_min":69.140625,"x_max":778.859375,"ha":848,"o":"m 778 376 q 684 89 778 192 q 422 -14 590 -14 q 236 33 317 -14 q 112 169 155 81 q 69 376 69 258 q 162 661 69 558 q 426 764 256 764 q 683 659 589 764 q 778 376 778 554 m 233 376 q 425 116 233 116 q 614 376 614 116 q 423 633 614 633 q 278 567 323 633 q 233 376 233 500 m 418 842 q 251 896 312 842 q 184 1048 189 950 l 277 1048 q 295 995 280 1015 q 337 968 310 976 q 421 960 365 960 q 527 982 492 960 q 566 1048 561 1005 l 660 1048 q 587 897 652 952 q 418 842 522 842 "},"¿":{"x_min":37.28125,"x_max":622.59375,"ha":629,"o":"m 441 437 l 441 394 q 413 271 441 322 q 316 166 385 220 q 211 66 232 99 q 190 -17 190 33 q 227 -102 190 -70 q 336 -134 263 -134 q 454 -115 397 -134 q 566 -70 511 -96 l 622 -192 q 335 -267 473 -267 q 115 -202 194 -267 q 37 -22 37 -137 q 51 65 37 26 q 94 139 65 103 q 201 235 124 174 q 286 320 265 287 q 307 406 307 352 l 307 437 l 441 437 m 469 654 q 443 577 469 604 q 368 551 418 551 q 293 577 319 551 q 267 654 267 604 q 293 729 267 701 q 368 758 319 758 q 443 730 416 758 q 469 654 469 703 "},"Ả":{"x_min":0,"x_max":918,"ha":918,"o":"m 745 0 l 646 275 l 267 275 l 170 0 l 0 0 l 370 996 l 547 996 l 918 0 l 745 0 m 604 415 l 511 685 q 483 770 501 712 q 458 856 465 829 q 404 673 440 772 l 315 415 l 604 415 m 623 1240 q 512 1114 623 1140 l 505 1051 l 411 1051 l 398 1160 q 474 1185 449 1169 q 498 1231 498 1202 q 424 1281 498 1281 q 346 1271 384 1281 l 346 1363 q 441 1375 392 1375 q 577 1341 530 1375 q 623 1240 623 1307 "},"ý":{"x_min":0,"x_max":745,"ha":745,"o":"m 0 750 l 173 750 l 326 324 q 372 153 360 233 l 377 153 q 400 244 384 191 q 572 750 416 297 l 745 750 l 424 -99 q 132 -334 336 -334 q 29 -322 79 -334 l 29 -196 q 111 -204 65 -204 q 273 -70 226 -204 l 301 0 l 0 750 m 271 842 l 271 858 q 351 964 310 906 q 415 1064 392 1022 l 601 1064 l 601 1049 q 495 943 565 1008 q 377 842 425 877 l 271 842 "},"Ứ":{"x_min":122.125,"x_max":1183.953125,"ha":1148,"o":"m 908 992 l 908 860 q 986 919 961 872 q 1011 1056 1011 966 l 1174 1056 l 1183 1041 q 1132 890 1165 944 q 1044 803 1099 837 q 908 756 989 769 l 908 349 q 805 82 908 179 q 515 -14 702 -14 q 225 83 328 -14 q 122 352 122 181 l 122 992 l 284 992 l 284 355 q 519 124 284 124 q 746 356 746 124 l 746 992 l 908 992 m 420 1071 l 420 1087 q 500 1193 459 1135 q 564 1293 541 1251 l 750 1293 l 750 1278 q 644 1172 714 1237 q 526 1071 574 1106 l 420 1071 "},"ſ":{"x_min":114.03125,"x_max":529.109375,"ha":488,"o":"m 379 933 q 273 803 273 933 l 273 0 l 114 0 l 114 807 q 175 999 114 936 q 368 1063 236 1063 q 529 1033 457 1063 l 490 913 q 379 933 427 933 "},"º":{"x_min":41.375,"x_max":487.625,"ha":529,"o":"m 487 762 q 428 586 487 650 q 262 522 368 522 q 101 586 160 522 q 41 762 41 651 q 101 939 41 876 q 265 1003 161 1003 q 427 938 368 1003 q 487 762 487 874 m 151 762 q 177 649 151 686 q 263 612 204 612 q 349 649 323 612 q 376 762 376 686 q 349 875 376 838 q 263 912 323 912 q 177 875 204 912 q 151 762 151 838 "},"ź":{"x_min":46.125,"x_max":615.171875,"ha":664,"o":"m 615 0 l 46 0 l 46 98 l 425 627 l 69 627 l 69 750 l 604 750 l 604 638 l 233 122 l 615 122 l 615 0 m 244 842 l 244 858 q 324 964 283 906 q 388 1064 365 1022 l 574 1064 l 574 1049 q 468 943 538 1008 q 350 842 398 877 l 244 842 "},"ű":{"x_min":107.203125,"x_max":775.171875,"ha":882,"o":"m 643 0 l 620 97 l 612 97 q 518 15 579 45 q 377 -14 456 -14 q 174 53 241 -14 q 107 259 107 121 l 107 750 l 267 750 l 267 287 q 303 157 267 201 q 413 114 338 114 q 561 174 514 114 q 608 376 608 234 l 608 750 l 768 750 l 768 0 l 643 0 m 228 842 l 228 858 q 354 1064 299 956 l 520 1064 l 520 1049 q 434 949 500 1016 q 316 842 369 882 l 228 842 m 483 842 l 483 858 q 551 958 512 897 q 610 1064 589 1020 l 775 1064 l 775 1049 q 689 949 755 1016 q 571 842 624 882 l 483 842 "},"ń":{"x_min":113.984375,"x_max":774.125,"ha":882,"o":"m 774 0 l 614 0 l 614 461 q 579 591 614 548 q 468 633 544 633 q 320 574 367 633 q 273 373 273 514 l 273 0 l 113 0 l 113 750 l 238 750 l 261 652 l 269 652 q 365 734 303 705 q 504 764 428 764 q 774 489 774 764 l 774 0 m 343 842 l 343 858 q 423 964 382 906 q 487 1064 464 1022 l 673 1064 l 673 1049 q 567 943 637 1008 q 449 842 497 877 l 343 842 "},";":{"x_min":42.734375,"x_max":290.3125,"ha":386,"o":"m 269 161 l 279 145 q 160 -179 246 19 l 42 -179 q 112 161 89 3 l 269 161 m 88 663 q 189 766 88 766 q 265 738 240 766 q 290 663 290 711 q 264 587 290 615 q 189 559 238 559 q 114 586 140 559 q 88 663 88 614 "}," ":{"x_min":0,"x_max":0,"ha":347},"Ġ":{"x_min":82.109375,"x_max":901.796875,"ha":1009,"o":"m 536 538 l 901 538 l 901 39 q 729 -1 812 10 q 551 -14 647 -14 q 204 119 326 -14 q 82 495 82 252 q 219 870 82 735 q 599 1006 357 1006 q 893 946 754 1006 l 836 811 q 595 866 715 866 q 343 767 436 866 q 251 494 251 667 q 334 217 251 312 q 574 123 417 123 q 742 142 652 123 l 742 398 l 536 398 l 536 538 m 483 1177 q 506 1242 483 1219 q 573 1266 530 1266 q 639 1242 615 1266 q 662 1177 662 1219 q 639 1113 662 1136 q 573 1090 615 1090 q 506 1113 530 1090 q 483 1177 483 1136 "},"6":{"x_min":63.765625,"x_max":737.375,"ha":793,"o":"m 63 422 q 537 1004 63 1004 q 664 992 612 1004 l 664 859 q 544 874 612 874 q 305 788 385 874 q 218 514 225 703 l 226 514 q 316 599 258 569 q 451 630 373 630 q 662 547 586 630 q 737 322 737 464 q 650 76 737 167 q 412 -14 563 -14 q 227 37 305 -14 q 106 186 148 88 q 63 422 63 284 m 409 117 q 536 170 491 117 q 580 321 580 223 q 538 455 580 406 q 413 504 497 504 q 318 482 362 504 q 250 422 275 460 q 225 343 225 383 q 277 182 225 248 q 409 117 329 117 "},"n":{"x_min":113.984375,"x_max":774.125,"ha":882,"o":"m 774 0 l 614 0 l 614 461 q 579 591 614 548 q 468 633 544 633 q 320 574 367 633 q 273 373 273 514 l 273 0 l 113 0 l 113 750 l 238 750 l 261 652 l 269 652 q 365 734 303 705 q 504 764 428 764 q 774 489 774 764 l 774 0 "},"﻿":{"x_min":0,"x_max":0,"ha":0},"ụ":{"x_min":107.203125,"x_max":768.703125,"ha":882,"o":"m 643 0 l 620 97 l 612 97 q 518 15 579 45 q 377 -14 456 -14 q 174 53 241 -14 q 107 259 107 121 l 107 750 l 267 750 l 267 287 q 303 157 267 201 q 413 114 338 114 q 561 174 514 114 q 608 376 608 234 l 608 750 l 768 750 l 768 0 l 643 0 m 340 -177 q 364 -112 340 -135 q 431 -89 387 -89 q 497 -112 474 -89 q 519 -177 519 -135 q 496 -241 519 -217 q 431 -265 473 -265 q 364 -241 387 -265 q 340 -177 340 -218 "},"ģ":{"x_min":15.609375,"x_max":747.890625,"ha":773,"o":"m 747 750 l 747 662 l 619 638 q 648 580 637 615 q 660 507 660 545 q 580 324 660 391 q 359 258 500 258 q 294 263 323 258 q 242 189 242 231 q 266 150 242 163 q 355 138 291 138 l 486 138 q 675 85 610 138 q 739 -67 739 32 q 634 -264 739 -195 q 330 -334 529 -334 q 96 -279 177 -334 q 15 -124 15 -225 q 59 -8 15 -55 q 181 57 103 38 q 129 100 149 70 q 108 164 108 131 q 132 235 108 206 q 202 292 156 264 q 108 374 144 317 q 71 507 71 431 q 148 696 71 629 q 368 764 226 764 q 435 759 400 764 q 487 750 470 754 l 747 750 m 158 -116 q 204 -196 158 -168 q 335 -224 251 -224 q 529 -186 465 -224 q 593 -87 593 -149 q 558 -17 593 -38 q 428 3 523 3 l 307 3 q 198 -29 238 3 q 158 -116 158 -61 m 226 507 q 262 398 226 436 q 367 360 299 360 q 505 508 505 360 q 471 621 505 582 q 367 661 437 661 q 262 622 297 661 q 226 507 226 582 m 498 1045 q 470 949 486 1009 q 449 842 455 890 l 296 842 l 296 854 q 346 965 315 906 q 407 1064 378 1024 l 498 1064 l 498 1045 "},"Ẵ":{"x_min":0,"x_max":918,"ha":918,"o":"m 745 0 l 646 275 l 267 275 l 170 0 l 0 0 l 370 996 l 547 996 l 918 0 l 745 0 m 604 415 l 511 685 q 483 770 501 712 q 458 856 465 829 q 404 673 440 772 l 315 415 l 604 415 m 556 1306 q 507 1315 532 1306 q 459 1335 483 1324 q 413 1356 436 1346 q 372 1365 391 1365 q 331 1352 345 1365 q 307 1305 316 1338 l 238 1305 q 278 1412 244 1371 q 369 1453 312 1453 q 420 1443 394 1453 q 469 1422 445 1434 q 514 1401 493 1411 q 554 1392 536 1392 q 595 1406 581 1392 q 619 1454 609 1421 l 687 1454 q 646 1344 680 1383 q 556 1306 611 1306 m 457 1071 q 296 1121 353 1071 q 233 1260 238 1171 l 320 1260 q 356 1193 325 1214 q 457 1172 388 1172 q 555 1193 524 1172 q 592 1260 586 1214 l 679 1260 q 614 1118 671 1166 q 457 1071 557 1071 "},"¤":{"x_min":79.390625,"x_max":712.9375,"ha":793,"o":"m 126 490 q 169 634 126 564 l 79 725 l 161 805 l 250 718 q 396 761 318 761 q 540 716 474 761 l 630 805 l 712 726 l 624 636 q 666 490 666 568 q 624 343 666 409 l 711 255 l 630 174 l 540 262 q 396 221 473 221 q 250 262 310 221 l 161 176 l 80 256 l 169 344 q 126 490 126 411 m 240 490 q 286 378 240 423 q 396 333 332 333 q 508 378 461 333 q 554 490 554 423 q 508 602 554 556 q 396 648 461 648 q 286 602 333 648 q 240 490 240 556 "},"Ĝ":{"x_min":82.109375,"x_max":901.796875,"ha":1009,"o":"m 536 538 l 901 538 l 901 39 q 729 -1 812 10 q 551 -14 647 -14 q 204 119 326 -14 q 82 495 82 252 q 219 870 82 735 q 599 1006 357 1006 q 893 946 754 1006 l 836 811 q 595 866 715 866 q 343 767 436 866 q 251 494 251 667 q 334 217 251 312 q 574 123 417 123 q 742 142 652 123 l 742 398 l 536 398 l 536 538 m 710 1071 q 555 1192 626 1120 q 403 1071 485 1123 l 295 1071 l 295 1087 q 468 1293 425 1221 l 644 1293 q 818 1087 687 1218 l 818 1071 l 710 1071 "},"p":{"x_min":113.890625,"x_max":793.828125,"ha":865,"o":"m 494 -14 q 273 88 351 -14 l 263 88 q 273 -26 273 -6 l 273 -334 l 113 -334 l 113 750 l 242 750 q 265 649 248 729 l 273 649 q 496 764 347 764 q 715 662 637 764 q 793 376 793 560 q 714 89 793 192 q 494 -14 634 -14 m 455 633 q 316 578 360 633 q 273 400 273 522 l 273 376 q 316 177 273 239 q 458 116 360 116 q 585 184 540 116 q 630 377 630 252 q 585 568 630 504 q 455 633 541 633 "},"‡":{"x_min":83.46875,"x_max":636.53125,"ha":720,"o":"m 404 354 l 636 375 l 636 236 l 404 255 l 438 0 l 278 0 l 312 255 l 83 236 l 83 375 l 312 354 l 282 532 l 312 700 l 83 680 l 83 819 l 312 798 l 278 1055 l 438 1055 l 404 798 l 636 819 l 636 680 l 404 700 l 434 532 l 404 354 "},"ň":{"x_min":113.984375,"x_max":774.125,"ha":882,"o":"m 774 0 l 614 0 l 614 461 q 579 591 614 548 q 468 633 544 633 q 320 574 367 633 q 273 373 273 514 l 273 0 l 113 0 l 113 750 l 238 750 l 261 652 l 269 652 q 365 734 303 705 q 504 764 428 764 q 774 489 774 764 l 774 0 m 712 1064 l 712 1045 q 591 915 626 957 q 538 842 556 873 l 362 842 q 189 1045 318 913 l 189 1064 l 297 1064 q 449 940 390 1003 q 604 1064 515 1007 l 712 1064 "},"ę":{"x_min":69.15625,"x_max":732.875,"ha":800,"o":"m 441 -14 q 167 88 266 -14 q 69 369 69 190 q 160 658 69 553 q 412 764 252 764 q 646 673 560 764 q 732 424 732 583 l 732 338 l 233 338 q 292 170 236 229 q 448 112 347 112 q 572 124 515 112 q 695 166 629 137 l 695 36 q 577 -2 637 9 q 441 -14 517 -14 m 412 643 q 290 594 336 643 q 236 454 244 546 l 576 454 q 531 595 574 547 q 412 643 488 643 m 537 -140 q 597 -201 537 -201 q 667 -189 626 -201 l 667 -287 q 573 -301 621 -301 q 457 -262 497 -301 q 418 -159 418 -224 q 444 -73 418 -115 q 533 17 469 -31 l 634 17 q 562 -64 587 -27 q 537 -140 537 -101 "},"ố":{"x_min":69.140625,"x_max":823.859375,"ha":848,"o":"m 778 376 q 684 89 778 192 q 422 -14 590 -14 q 236 33 317 -14 q 112 169 155 81 q 69 376 69 258 q 162 661 69 558 q 426 764 256 764 q 683 659 589 764 q 778 376 778 554 m 233 376 q 425 116 233 116 q 614 376 614 116 q 423 633 614 633 q 278 567 323 633 q 233 376 233 500 m 650 842 l 564 842 q 421 954 488 892 q 277 842 343 886 l 190 842 l 190 858 q 337 1042 296 981 l 504 1042 q 650 858 564 955 l 650 842 m 593 990 q 683 1128 649 1057 l 823 1128 l 823 1113 q 678 974 777 1051 l 593 974 l 593 990 "},"Ặ":{"x_min":0,"x_max":918,"ha":918,"o":"m 745 0 l 646 275 l 267 275 l 170 0 l 0 0 l 370 996 l 547 996 l 918 0 l 745 0 m 604 415 l 511 685 q 483 770 501 712 q 458 856 465 829 q 404 673 440 772 l 315 415 l 604 415 m 455 1077 q 288 1131 349 1077 q 221 1283 226 1185 l 314 1283 q 332 1230 317 1250 q 374 1203 347 1211 q 458 1195 402 1195 q 564 1217 529 1195 q 603 1283 598 1240 l 697 1283 q 624 1132 689 1187 q 455 1077 559 1077 m 369 -177 q 393 -112 369 -135 q 460 -89 416 -89 q 526 -112 503 -89 q 548 -177 548 -135 q 525 -241 548 -217 q 460 -265 502 -265 q 393 -241 416 -265 q 369 -177 369 -218 "},"S":{"x_min":67.84375,"x_max":702.9375,"ha":764,"o":"m 702 269 q 607 61 702 136 q 343 -14 511 -14 q 67 38 175 -14 l 67 191 q 212 141 135 159 q 354 123 288 123 q 496 159 450 123 q 542 258 542 196 q 500 352 542 313 q 326 444 458 391 q 135 569 190 499 q 79 739 79 640 q 167 934 79 863 q 404 1006 255 1006 q 688 943 546 1006 l 636 811 q 400 866 504 866 q 280 832 321 866 q 240 742 240 798 q 256 675 240 703 q 310 623 272 648 q 444 559 347 599 q 604 474 553 513 q 679 385 655 435 q 702 269 702 336 "},"ễ":{"x_min":69.15625,"x_max":732.875,"ha":800,"o":"m 441 -14 q 167 88 266 -14 q 69 369 69 190 q 160 658 69 553 q 412 764 252 764 q 646 673 560 764 q 732 424 732 583 l 732 338 l 233 338 q 292 170 236 229 q 448 112 347 112 q 572 124 515 112 q 695 166 629 137 l 695 36 q 577 -2 637 9 q 441 -14 517 -14 m 412 643 q 290 594 336 643 q 236 454 244 546 l 576 454 q 531 595 574 547 q 412 643 488 643 m 503 1070 q 454 1079 479 1070 q 406 1099 430 1088 q 360 1120 383 1111 q 319 1130 338 1130 q 278 1116 292 1130 q 254 1069 263 1102 l 185 1069 q 226 1182 191 1139 q 316 1226 261 1226 q 367 1216 341 1226 q 416 1195 392 1206 q 461 1173 440 1183 q 501 1164 483 1164 q 542 1178 528 1164 q 566 1227 556 1193 l 634 1227 q 592 1111 627 1153 q 503 1070 557 1070 m 638 842 l 559 842 q 409 949 476 889 q 259 842 347 894 l 179 842 l 179 859 q 333 1036 293 978 l 486 1036 q 638 859 531 970 l 638 842 "},"/":{"x_min":10.859375,"x_max":530.46875,"ha":542,"o":"m 530 992 l 161 0 l 10 0 l 380 992 l 530 992 "},"į":{"x_min":32.578125,"x_max":283.421875,"ha":387,"o":"m 273 0 l 113 0 l 113 750 l 273 750 l 273 0 m 104 949 q 127 1014 104 991 q 194 1038 151 1038 q 260 1014 236 1038 q 283 949 283 991 q 260 885 283 908 q 194 862 236 862 q 127 885 151 862 q 104 949 104 908 m 151 -157 q 211 -218 151 -218 q 281 -206 240 -218 l 281 -304 q 187 -318 235 -318 q 71 -279 111 -318 q 32 -176 32 -241 q 58 -90 32 -132 q 147 0 83 -48 l 248 0 q 176 -81 201 -44 q 151 -157 151 -118 "},"Ế":{"x_min":130.859375,"x_max":814.859375,"ha":775,"o":"m 691 0 l 130 0 l 130 992 l 691 992 l 691 855 l 292 855 l 292 585 l 666 585 l 666 449 l 292 449 l 292 137 l 691 137 l 691 0 m 641 1071 l 555 1071 q 412 1183 479 1121 q 268 1071 334 1115 l 181 1071 l 181 1087 q 328 1271 287 1210 l 495 1271 q 641 1087 555 1184 l 641 1071 m 584 1219 q 674 1357 640 1286 l 814 1357 l 814 1342 q 669 1203 768 1280 l 584 1203 l 584 1219 "},"Ọ":{"x_min":82.046875,"x_max":1010.953125,"ha":1093,"o":"m 1010 496 q 889 120 1010 254 q 547 -14 768 -14 q 202 119 322 -14 q 82 498 82 252 q 203 875 82 743 q 548 1007 324 1007 q 890 873 769 1007 q 1010 496 1010 739 m 254 496 q 328 219 254 313 q 547 124 402 124 q 765 217 691 124 q 838 496 838 311 q 765 773 838 679 q 548 867 692 867 q 328 773 402 867 q 254 496 254 679 m 456 -177 q 480 -112 456 -135 q 547 -89 503 -89 q 613 -112 590 -89 q 635 -177 635 -135 q 612 -241 635 -217 q 547 -265 589 -265 q 480 -241 503 -265 q 456 -177 456 -218 "},"ắ":{"x_min":61.0625,"x_max":697.453125,"ha":806,"o":"m 583 0 l 551 104 l 546 104 q 436 10 491 35 q 295 -14 382 -14 q 123 45 185 -14 q 61 215 61 105 q 147 390 61 331 q 409 454 233 449 l 539 459 l 539 498 q 505 606 539 570 q 401 641 472 641 q 291 624 344 641 q 189 584 238 608 l 137 698 q 271 747 198 730 q 408 764 343 764 q 624 701 551 764 q 697 505 697 639 l 697 0 l 583 0 m 346 108 q 485 156 432 108 q 538 293 538 205 l 538 358 l 441 354 q 277 316 329 350 q 226 213 226 283 q 256 135 226 163 q 346 108 286 108 m 344 1035 q 427 1173 394 1103 l 560 1173 l 560 1158 q 421 1018 499 1079 l 344 1018 l 344 1035 m 398 842 q 239 893 296 842 q 177 1045 182 945 l 263 1045 q 299 968 268 993 q 399 943 331 943 q 494 969 458 943 q 535 1045 529 994 l 623 1045 q 556 895 616 948 q 398 842 497 842 "},"Ŧ":{"x_min":19.671875,"x_max":764.984375,"ha":786,"o":"m 473 0 l 311 0 l 311 431 l 120 431 l 120 564 l 311 564 l 311 852 l 19 852 l 19 992 l 764 992 l 764 852 l 473 852 l 473 564 l 662 564 l 662 431 l 473 431 l 473 0 "},"y":{"x_min":0,"x_max":745,"ha":745,"o":"m 0 750 l 173 750 l 326 324 q 372 153 360 233 l 377 153 q 400 244 384 191 q 572 750 416 297 l 745 750 l 424 -99 q 132 -334 336 -334 q 29 -322 79 -334 l 29 -196 q 111 -204 65 -204 q 273 -70 226 -204 l 301 0 l 0 750 "},"‗":{"x_min":-2.71875,"x_max":573.71875,"ha":571,"o":"m 573 -315 l -2 -315 l -2 -220 l 573 -220 l 573 -315 m 573 -125 l -2 -125 l -2 -31 l 573 -31 l 573 -125 "},"g":{"x_min":15.609375,"x_max":747.890625,"ha":773,"o":"m 747 750 l 747 662 l 619 638 q 648 580 637 615 q 660 507 660 545 q 580 324 660 391 q 359 258 500 258 q 294 263 323 258 q 242 189 242 231 q 266 150 242 163 q 355 138 291 138 l 486 138 q 675 85 610 138 q 739 -67 739 32 q 634 -264 739 -195 q 330 -334 529 -334 q 96 -279 177 -334 q 15 -124 15 -225 q 59 -8 15 -55 q 181 57 103 38 q 129 100 149 70 q 108 164 108 131 q 132 235 108 206 q 202 292 156 264 q 108 374 144 317 q 71 507 71 431 q 148 696 71 629 q 368 764 226 764 q 435 759 400 764 q 487 750 470 754 l 747 750 m 158 -116 q 204 -196 158 -168 q 335 -224 251 -224 q 529 -186 465 -224 q 593 -87 593 -149 q 558 -17 593 -38 q 428 3 523 3 l 307 3 q 198 -29 238 3 q 158 -116 158 -61 m 226 507 q 262 398 226 436 q 367 360 299 360 q 505 508 505 360 q 471 621 505 582 q 367 661 437 661 q 262 622 297 661 q 226 507 226 582 "},"ĸ":{"x_min":113.921875,"x_max":785.9375,"ha":790,"o":"m 270 377 l 587 750 l 768 750 l 478 412 l 785 0 l 600 0 l 372 315 l 278 245 l 278 0 l 113 0 l 113 750 l 278 750 l 278 554 q 270 377 278 467 "},"́":{"x_min":-533.484375,"x_max":-203.875,"ha":0,"o":"m -533 842 l -533 858 q -453 964 -494 906 q -389 1064 -412 1022 l -203 1064 l -203 1049 q -309 943 -239 1008 q -427 842 -379 877 l -533 842 "},"²":{"x_min":34.59375,"x_max":459.90625,"ha":504,"o":"m 459 397 l 34 397 l 34 488 l 190 641 q 292 753 269 717 q 314 829 314 789 q 292 882 314 864 q 236 900 270 900 q 99 841 172 900 l 35 923 q 245 1004 130 1004 q 389 959 337 1004 q 440 837 440 914 q 409 729 440 780 q 284 592 377 678 l 190 504 l 459 504 l 459 397 "},"–":{"x_min":55.65625,"x_max":639.34375,"ha":695,"o":"m 55 308 l 55 437 l 639 437 l 639 308 l 55 308 "},"ë":{"x_min":69.15625,"x_max":732.875,"ha":800,"o":"m 441 -14 q 167 88 266 -14 q 69 369 69 190 q 160 658 69 553 q 412 764 252 764 q 646 673 560 764 q 732 424 732 583 l 732 338 l 233 338 q 292 170 236 229 q 448 112 347 112 q 572 124 515 112 q 695 166 629 137 l 695 36 q 577 -2 637 9 q 441 -14 517 -14 m 412 643 q 290 594 336 643 q 236 454 244 546 l 576 454 q 531 595 574 547 q 412 643 488 643 m 208 948 q 231 1009 208 990 q 286 1028 254 1028 q 344 1006 322 1028 q 365 948 365 985 q 343 890 365 912 q 286 869 321 869 q 231 888 254 869 q 208 948 208 908 m 475 948 q 497 1009 475 990 q 553 1028 520 1028 q 610 1006 589 1028 q 632 948 632 985 q 610 890 632 911 q 553 869 587 869 q 497 888 520 869 q 475 948 475 908 "},"J":{"x_min":-105.828125,"x_max":288.890625,"ha":415,"o":"m 5 -277 q -105 -260 -61 -277 l -105 -123 q -6 -137 -48 -137 q 126 30 126 -137 l 126 992 l 288 992 l 288 35 q 216 -196 288 -116 q 5 -277 144 -277 "},"Ã":{"x_min":0,"x_max":918,"ha":918,"o":"m 745 0 l 646 275 l 267 275 l 170 0 l 0 0 l 370 996 l 547 996 l 918 0 l 745 0 m 604 415 l 511 685 q 483 770 501 712 q 458 856 465 829 q 404 673 440 772 l 315 415 l 604 415 m 557 1070 q 501 1082 528 1070 q 447 1108 473 1094 q 395 1135 420 1123 q 347 1147 370 1147 q 273 1069 292 1147 l 191 1069 q 243 1213 199 1163 q 357 1263 287 1263 q 414 1250 386 1263 q 468 1224 441 1238 q 519 1197 494 1209 q 567 1185 544 1185 q 639 1264 620 1185 l 724 1264 q 671 1121 715 1172 q 557 1070 627 1070 "},"ŷ":{"x_min":0,"x_max":745,"ha":745,"o":"m 0 750 l 173 750 l 326 324 q 372 153 360 233 l 377 153 q 400 244 384 191 q 572 750 416 297 l 745 750 l 424 -99 q 132 -334 336 -334 q 29 -322 79 -334 l 29 -196 q 111 -204 65 -204 q 273 -70 226 -204 l 301 0 l 0 750 m 529 842 q 374 963 445 891 q 222 842 304 894 l 114 842 l 114 858 q 287 1064 244 992 l 463 1064 q 637 858 506 989 l 637 842 l 529 842 "},"ŕ":{"x_min":113.96875,"x_max":573.90625,"ha":599,"o":"m 494 764 q 573 757 542 764 l 558 608 q 487 616 524 616 q 332 554 392 616 q 273 392 273 491 l 273 0 l 113 0 l 113 750 l 238 750 l 259 618 l 267 618 q 365 724 305 685 q 494 764 425 764 m 236 842 l 236 858 q 316 964 275 906 q 380 1064 357 1022 l 566 1064 l 566 1049 q 460 943 530 1008 q 342 842 390 877 l 236 842 "},"©":{"x_min":67.84375,"x_max":1088.15625,"ha":1156,"o":"m 605 701 q 489 647 530 701 q 449 495 449 592 q 485 341 449 395 q 605 288 522 288 q 685 298 643 288 q 759 322 728 308 l 759 215 q 600 181 681 181 q 393 262 466 181 q 319 495 319 344 q 394 725 319 641 q 601 809 468 809 q 787 761 695 809 l 743 664 q 605 701 671 701 m 67 495 q 135 750 67 631 q 322 937 203 868 q 578 1006 440 1006 q 832 938 713 1006 q 1019 751 951 870 q 1088 495 1088 632 q 1022 244 1088 361 q 837 56 956 127 q 578 -14 719 -14 q 318 56 437 -14 q 133 243 200 126 q 67 495 67 361 m 151 495 q 208 281 151 380 q 364 125 265 182 q 578 68 464 68 q 792 126 693 68 q 948 282 891 184 q 1004 495 1004 380 q 947 709 1004 609 q 790 865 890 808 q 578 922 691 922 q 365 866 464 922 q 209 710 267 809 q 151 495 151 611 "},"˘":{"x_min":176.296875,"x_max":652.984375,"ha":832,"o":"m 410 842 q 243 896 304 842 q 176 1048 181 950 l 269 1048 q 287 995 272 1015 q 329 968 302 976 q 413 960 357 960 q 519 982 484 960 q 558 1048 553 1005 l 652 1048 q 579 897 644 952 q 410 842 514 842 "},"Ă":{"x_min":0,"x_max":918,"ha":918,"o":"m 745 0 l 646 275 l 267 275 l 170 0 l 0 0 l 370 996 l 547 996 l 918 0 l 745 0 m 604 415 l 511 685 q 483 770 501 712 q 458 856 465 829 q 404 673 440 772 l 315 415 l 604 415 m 453 1071 q 286 1125 347 1071 q 219 1277 224 1179 l 312 1277 q 330 1224 315 1244 q 372 1197 345 1205 q 456 1189 400 1189 q 562 1211 527 1189 q 601 1277 596 1234 l 695 1277 q 622 1126 687 1181 q 453 1071 557 1071 "},"D":{"x_min":130.84375,"x_max":936.96875,"ha":1019,"o":"m 936 505 q 800 129 936 259 q 408 0 664 0 l 130 0 l 130 992 l 437 992 q 805 864 673 992 q 936 505 936 736 m 766 500 q 433 856 766 856 l 292 856 l 292 136 l 408 136 q 766 500 766 136 "},"ł":{"x_min":-1.359375,"x_max":415.4375,"ha":410,"o":"m 282 608 l 351 655 l 415 550 l 282 464 l 282 0 l 122 0 l 122 364 l 59 325 l -1 429 l 122 509 l 122 1055 l 282 1055 l 282 608 "},"ÿ":{"x_min":0,"x_max":745,"ha":745,"o":"m 0 750 l 173 750 l 326 324 q 372 153 360 233 l 377 153 q 400 244 384 191 q 572 750 416 297 l 745 750 l 424 -99 q 132 -334 336 -334 q 29 -322 79 -334 l 29 -196 q 111 -204 65 -204 q 273 -70 226 -204 l 301 0 l 0 750 m 161 948 q 184 1009 161 990 q 239 1028 207 1028 q 297 1006 275 1028 q 318 948 318 985 q 296 890 318 912 q 239 869 274 869 q 184 888 207 869 q 161 948 161 908 m 428 948 q 450 1009 428 990 q 506 1028 473 1028 q 563 1006 542 1028 q 585 948 585 985 q 563 890 585 911 q 506 869 540 869 q 450 888 473 869 q 428 948 428 908 "},"ĺ":{"x_min":113.859375,"x_max":445.125,"ha":387,"o":"m 273 0 l 113 0 l 113 1055 l 273 1055 l 273 0 m 115 1110 l 115 1126 q 195 1232 154 1174 q 259 1332 236 1290 l 445 1332 l 445 1317 q 339 1211 409 1276 q 221 1110 269 1145 l 115 1110 "},"Ł":{"x_min":9.5,"x_max":713.25,"ha":756,"o":"m 130 0 l 130 338 l 70 304 l 9 409 l 130 481 l 130 992 l 293 992 l 293 579 l 441 668 l 504 560 l 293 435 l 293 139 l 713 139 l 713 0 l 130 0 "}," ":{"x_min":0,"x_max":0,"ha":382},"$":{"x_min":75.296875,"x_max":721.09375,"ha":793,"o":"m 721 306 q 649 144 721 208 q 441 66 577 81 l 441 -81 l 351 -81 l 351 62 q 75 113 183 64 l 75 256 q 211 208 133 228 q 351 188 289 189 l 351 442 l 294 463 q 131 565 183 506 q 80 712 80 625 q 153 866 80 806 q 351 939 226 927 l 351 1054 l 441 1054 l 441 942 q 702 886 579 937 l 653 762 q 441 812 546 804 l 441 565 l 493 545 q 671 441 622 496 q 721 306 721 386 m 561 296 q 533 361 561 336 q 441 410 506 387 l 441 194 q 561 296 561 212 m 240 714 q 264 649 240 675 q 351 598 288 623 l 351 809 q 268 776 297 801 q 240 714 240 751 "},"w":{"x_min":13.5625,"x_max":1120.078125,"ha":1135,"o":"m 729 0 l 632 349 q 568 608 614 405 l 562 608 q 499 348 523 425 l 400 0 l 223 0 l 13 750 l 176 750 l 272 380 q 318 145 304 243 l 322 145 q 342 259 329 195 q 367 355 356 323 l 481 750 l 656 750 l 766 355 q 792 253 776 322 q 810 147 807 185 l 815 147 q 862 380 825 230 l 960 750 l 1120 750 l 908 0 l 729 0 "},"\\":{"x_min":10.859375,"x_max":530.46875,"ha":542,"o":"m 161 992 l 530 0 l 380 0 l 10 992 l 161 992 "},"Ì":{"x_min":-4.484375,"x_max":325.125,"ha":424,"o":"m 130 0 l 130 992 l 293 992 l 293 0 l 130 0 m 217 1071 q 99 1172 171 1106 q -4 1278 28 1239 l -4 1293 l 180 1293 q 250 1184 206 1245 q 325 1087 295 1122 l 325 1071 l 217 1071 "},"Ç":{"x_min":82.03125,"x_max":834.578125,"ha":880,"o":"m 552 866 q 332 767 412 866 q 252 494 252 668 q 329 218 252 311 q 552 124 406 124 q 674 136 615 124 q 797 169 733 149 l 797 30 q 532 -14 680 -14 q 198 117 315 -14 q 82 495 82 249 q 138 766 82 650 q 302 944 195 882 q 553 1006 409 1006 q 834 942 705 1006 l 776 807 q 670 849 726 831 q 552 866 614 866 m 646 -183 q 439 -334 646 -334 q 357 -323 394 -334 l 357 -230 q 440 -240 393 -240 q 498 -229 477 -240 q 520 -187 520 -218 q 398 -112 520 -129 l 455 0 l 558 0 l 530 -60 q 615 -106 585 -74 q 646 -183 646 -138 "},"Ŝ":{"x_min":67.84375,"x_max":702.9375,"ha":764,"o":"m 702 269 q 607 61 702 136 q 343 -14 511 -14 q 67 38 175 -14 l 67 191 q 212 141 135 159 q 354 123 288 123 q 496 159 450 123 q 542 258 542 196 q 500 352 542 313 q 326 444 458 391 q 135 569 190 499 q 79 739 79 640 q 167 934 79 863 q 404 1006 255 1006 q 688 943 546 1006 l 636 811 q 400 866 504 866 q 280 832 321 866 q 240 742 240 798 q 256 675 240 703 q 310 623 272 648 q 444 559 347 599 q 604 474 553 513 q 679 385 655 435 q 702 269 702 336 m 553 1071 q 398 1192 469 1120 q 246 1071 328 1123 l 138 1071 l 138 1087 q 311 1293 268 1221 l 487 1293 q 661 1087 530 1218 l 661 1071 l 553 1071 "},"C":{"x_min":82.03125,"x_max":834.578125,"ha":880,"o":"m 552 866 q 332 767 412 866 q 252 494 252 668 q 329 218 252 311 q 552 124 406 124 q 674 136 615 124 q 797 169 733 149 l 797 30 q 532 -14 680 -14 q 198 117 315 -14 q 82 495 82 249 q 138 766 82 650 q 302 944 195 882 q 553 1006 409 1006 q 834 942 705 1006 l 776 807 q 670 849 726 831 q 552 866 614 866 "},"Ḁ":{"x_min":0,"x_max":918,"ha":918,"o":"m 745 0 l 646 275 l 267 275 l 170 0 l 0 0 l 370 996 l 547 996 l 918 0 l 745 0 m 604 415 l 511 685 q 483 770 501 712 q 458 856 465 829 q 404 673 440 772 l 315 415 l 604 415 m 623 -237 q 577 -349 623 -307 q 459 -392 531 -392 q 343 -350 387 -392 q 300 -238 300 -309 q 343 -126 300 -168 q 459 -85 387 -85 q 577 -128 532 -85 q 623 -237 623 -171 m 531 -238 q 510 -185 531 -204 q 459 -167 490 -167 q 406 -185 427 -167 q 386 -238 386 -204 q 404 -291 386 -272 q 459 -311 423 -311 q 511 -291 491 -311 q 531 -238 531 -272 "},"̉":{"x_min":-531.734375,"x_max":-254.328125,"ha":0,"o":"m -254 1011 q -365 885 -254 911 l -372 822 l -466 822 l -479 931 q -403 956 -428 940 q -379 1002 -379 973 q -453 1052 -379 1052 q -531 1042 -493 1052 l -531 1134 q -436 1146 -485 1146 q -300 1112 -347 1146 q -254 1011 -254 1078 "},"Ē":{"x_min":130.859375,"x_max":691.59375,"ha":775,"o":"m 691 0 l 130 0 l 130 992 l 691 992 l 691 855 l 292 855 l 292 585 l 666 585 l 666 449 l 292 449 l 292 137 l 691 137 l 691 0 m 200 1189 l 633 1189 l 633 1071 l 200 1071 l 200 1189 "},"!":{"x_min":90.15625,"x_max":291.59375,"ha":383,"o":"m 251 301 l 133 301 l 98 992 l 286 992 l 251 301 m 90 84 q 116 160 90 134 q 191 186 143 186 q 265 159 240 186 q 291 84 291 132 q 265 8 291 36 q 191 -20 239 -20 q 116 7 143 -20 q 90 84 90 34 "},"ç":{"x_min":69.203125,"x_max":643.21875,"ha":688,"o":"m 416 -14 q 157 85 246 -14 q 69 370 69 184 q 161 662 69 560 q 429 764 254 764 q 643 719 548 764 l 595 591 q 428 631 493 631 q 233 372 233 631 q 281 182 233 245 q 424 118 330 118 q 625 171 530 118 l 625 32 q 534 -3 582 7 q 416 -14 485 -14 m 530 -183 q 323 -334 530 -334 q 241 -323 278 -334 l 241 -230 q 324 -240 277 -240 q 382 -229 361 -240 q 404 -187 404 -218 q 282 -112 404 -129 l 339 0 l 442 0 l 414 -60 q 499 -106 469 -74 q 530 -183 530 -138 "},"Ĵ":{"x_min":-105.828125,"x_max":471.046875,"ha":415,"o":"m 5 -277 q -105 -260 -61 -277 l -105 -123 q -6 -137 -48 -137 q 126 30 126 -137 l 126 992 l 288 992 l 288 35 q 216 -196 288 -116 q 5 -277 144 -277 m 363 1071 q 208 1192 279 1120 q 56 1071 138 1123 l -51 1071 l -51 1087 q 121 1293 78 1221 l 297 1293 q 471 1087 340 1218 l 471 1071 l 363 1071 "},"Ẻ":{"x_min":130.859375,"x_max":691.59375,"ha":775,"o":"m 691 0 l 130 0 l 130 992 l 691 992 l 691 855 l 292 855 l 292 585 l 666 585 l 666 449 l 292 449 l 292 137 l 691 137 l 691 0 m 577 1240 q 466 1114 577 1140 l 459 1051 l 365 1051 l 352 1160 q 428 1185 403 1169 q 452 1231 452 1202 q 378 1281 452 1281 q 300 1271 338 1281 l 300 1363 q 395 1375 346 1375 q 531 1341 484 1375 q 577 1240 577 1307 "},"È":{"x_min":130.859375,"x_max":691.59375,"ha":775,"o":"m 691 0 l 130 0 l 130 992 l 691 992 l 691 855 l 292 855 l 292 585 l 666 585 l 666 449 l 292 449 l 292 137 l 691 137 l 691 0 m 417 1071 q 299 1172 371 1106 q 195 1278 228 1239 l 195 1293 l 380 1293 q 450 1184 406 1245 q 525 1087 495 1122 l 525 1071 l 417 1071 "},"X":{"x_min":2.71875,"x_max":861.28125,"ha":864,"o":"m 861 0 l 674 0 l 426 405 l 176 0 l 2 0 l 331 514 l 23 992 l 204 992 l 433 616 l 662 992 l 837 992 l 527 511 l 861 0 "},"ô":{"x_min":69.140625,"x_max":778.859375,"ha":848,"o":"m 778 376 q 684 89 778 192 q 422 -14 590 -14 q 236 33 317 -14 q 112 169 155 81 q 69 376 69 258 q 162 661 69 558 q 426 764 256 764 q 683 659 589 764 q 778 376 778 554 m 233 376 q 425 116 233 116 q 614 376 614 116 q 423 633 614 633 q 278 567 323 633 q 233 376 233 500 m 576 842 q 421 963 492 891 q 269 842 351 894 l 161 842 l 161 858 q 334 1064 291 992 l 510 1064 q 684 858 553 989 l 684 842 l 576 842 "},"̣":{"x_min":-514.09375,"x_max":-335.046875,"ha":0,"o":"m -514 -177 q -490 -112 -514 -135 q -423 -89 -467 -89 q -357 -112 -380 -89 q -335 -177 -335 -135 q -358 -241 -335 -217 q -423 -265 -381 -265 q -490 -241 -467 -265 q -514 -177 -514 -218 "},"Ė":{"x_min":130.859375,"x_max":691.59375,"ha":775,"o":"m 691 0 l 130 0 l 130 992 l 691 992 l 691 855 l 292 855 l 292 585 l 666 585 l 666 449 l 292 449 l 292 137 l 691 137 l 691 0 m 331 1158 q 354 1223 331 1200 q 421 1247 378 1247 q 487 1223 463 1247 q 510 1158 510 1200 q 487 1094 510 1117 q 421 1071 463 1071 q 354 1094 378 1071 q 331 1158 331 1117 "},"Ā":{"x_min":0,"x_max":918,"ha":918,"o":"m 745 0 l 646 275 l 267 275 l 170 0 l 0 0 l 370 996 l 547 996 l 918 0 l 745 0 m 604 415 l 511 685 q 483 770 501 712 q 458 856 465 829 q 404 673 440 772 l 315 415 l 604 415 m 249 1189 l 682 1189 l 682 1071 l 249 1071 l 249 1189 "},"ċ":{"x_min":69.203125,"x_max":643.21875,"ha":688,"o":"m 416 -14 q 157 85 246 -14 q 69 370 69 184 q 161 662 69 560 q 429 764 254 764 q 643 719 548 764 l 595 591 q 428 631 493 631 q 233 372 233 631 q 281 182 233 245 q 424 118 330 118 q 625 171 530 118 l 625 32 q 534 -3 582 7 q 416 -14 485 -14 m 325 948 q 348 1013 325 990 q 415 1037 372 1037 q 481 1013 457 1037 q 504 948 504 990 q 481 884 504 907 q 415 861 457 861 q 348 884 372 861 q 325 948 325 907 "},"đ":{"x_min":69.15625,"x_max":857.015625,"ha":876,"o":"m 364 -14 q 146 86 224 -14 q 69 362 69 186 q 144 646 69 550 q 366 743 218 743 q 594 633 517 743 l 602 633 q 595 686 600 639 q 591 763 591 733 l 591 826 l 331 826 l 331 937 l 591 937 l 591 1055 l 751 1055 l 751 937 l 857 937 l 857 826 l 751 826 l 751 0 l 620 0 l 591 97 l 584 97 q 364 -14 511 -14 m 413 114 q 554 168 509 114 q 598 340 598 222 l 598 362 q 554 556 598 500 q 408 612 511 612 q 281 552 323 612 q 240 360 240 492 q 413 114 240 114 "},"ấ":{"x_min":61.0625,"x_max":802.859375,"ha":806,"o":"m 583 0 l 551 104 l 546 104 q 436 10 491 35 q 295 -14 382 -14 q 123 45 185 -14 q 61 215 61 105 q 147 390 61 331 q 409 454 233 449 l 539 459 l 539 498 q 505 606 539 570 q 401 641 472 641 q 291 624 344 641 q 189 584 238 608 l 137 698 q 271 747 198 730 q 408 764 343 764 q 624 701 551 764 q 697 505 697 639 l 697 0 l 583 0 m 346 108 q 485 156 432 108 q 538 293 538 205 l 538 358 l 441 354 q 277 316 329 350 q 226 213 226 283 q 256 135 226 163 q 346 108 286 108 m 629 842 l 543 842 q 400 954 467 892 q 256 842 322 886 l 169 842 l 169 858 q 316 1042 275 981 l 483 1042 q 629 858 543 955 l 629 842 m 572 990 q 662 1128 628 1057 l 802 1128 l 802 1113 q 657 974 756 1051 l 572 974 l 572 990 "},"Ẃ":{"x_min":8.140625,"x_max":1304.5,"ha":1314,"o":"m 1046 0 l 869 0 l 701 591 q 674 703 690 630 q 654 804 658 776 q 632 692 647 761 q 607 588 617 622 l 442 0 l 266 0 l 138 496 l 8 992 l 173 992 l 315 413 q 362 168 348 274 q 385 297 370 225 q 412 412 400 368 l 573 992 l 734 992 l 900 409 q 950 168 923 329 q 999 415 960 265 l 1140 992 l 1304 992 l 1046 0 m 541 1071 l 541 1087 q 621 1193 580 1135 q 685 1293 662 1251 l 871 1293 l 871 1278 q 765 1172 835 1237 q 647 1071 695 1106 l 541 1071 "},"Ŀ":{"x_min":130.921875,"x_max":712.96875,"ha":753,"o":"m 130 0 l 130 992 l 293 992 l 293 139 l 712 139 l 712 0 l 130 0 m 468 500 q 491 565 468 542 q 558 589 515 589 q 624 565 600 589 q 647 500 647 542 q 624 436 647 459 q 558 413 600 413 q 491 436 515 413 q 468 500 468 459 "},"ŋ":{"x_min":113.984375,"x_max":774.125,"ha":882,"o":"m 554 -334 q 443 -317 487 -334 l 443 -190 q 525 -203 482 -203 q 614 -87 614 -203 l 614 469 q 578 593 614 552 q 468 633 542 633 q 320 574 367 633 q 273 373 273 514 l 273 0 l 113 0 l 113 750 l 238 750 l 261 652 l 270 652 q 364 734 303 705 q 502 764 425 764 q 707 695 640 764 q 774 489 774 626 l 774 -98 q 717 -273 774 -213 q 554 -334 661 -334 "},"}":{"x_min":30.5,"x_max":484.5,"ha":515,"o":"m 313 -13 q 246 -169 313 -119 q 30 -220 178 -218 l 30 -95 q 130 -69 94 -95 q 166 18 166 -44 l 166 195 q 202 322 166 277 q 321 381 238 367 l 321 389 q 166 551 166 416 l 166 753 q 135 836 166 808 q 30 868 104 865 l 30 992 q 247 940 181 992 q 313 769 313 888 l 313 574 q 356 478 313 507 q 484 450 399 450 l 484 320 q 357 291 401 320 q 313 194 313 262 l 313 -13 "},"â":{"x_min":61.0625,"x_max":697.453125,"ha":806,"o":"m 583 0 l 551 104 l 546 104 q 436 10 491 35 q 295 -14 382 -14 q 123 45 185 -14 q 61 215 61 105 q 147 390 61 331 q 409 454 233 449 l 539 459 l 539 498 q 505 606 539 570 q 401 641 472 641 q 291 624 344 641 q 189 584 238 608 l 137 698 q 271 747 198 730 q 408 764 343 764 q 624 701 551 764 q 697 505 697 639 l 697 0 l 583 0 m 346 108 q 485 156 432 108 q 538 293 538 205 l 538 358 l 441 354 q 277 316 329 350 q 226 213 226 283 q 256 135 226 163 q 346 108 286 108 m 552 842 q 397 963 468 891 q 245 842 327 894 l 137 842 l 137 858 q 310 1064 267 992 l 486 1064 q 660 858 529 989 l 660 842 l 552 842 "},"ø":{"x_min":69.140625,"x_max":778.859375,"ha":848,"o":"m 778 376 q 684 89 778 192 q 422 -14 590 -14 q 252 24 324 -14 l 201 -49 l 109 11 l 165 91 q 69 376 69 196 q 162 661 69 558 q 426 764 256 764 q 601 721 523 764 l 648 789 l 740 726 l 687 653 q 778 376 778 550 m 233 376 q 258 227 233 284 l 523 607 q 423 633 482 633 q 278 567 323 633 q 233 376 233 500 m 614 376 q 592 514 614 458 l 330 138 q 425 116 366 116 q 614 376 614 116 "},"‰":{"x_min":55.609375,"x_max":1669.75,"ha":1724,"o":"m 185 694 q 207 543 185 593 q 278 494 229 494 q 349 543 326 494 q 372 694 372 592 q 278 894 372 894 q 207 845 229 894 q 185 694 185 795 m 503 695 q 446 461 503 539 q 278 383 388 383 q 113 463 172 383 q 55 695 55 543 q 278 1006 55 1006 q 445 925 386 1006 q 503 695 503 845 m 946 992 l 396 0 l 265 0 l 815 992 l 946 992 m 1351 298 q 1373 146 1351 197 q 1443 96 1395 96 q 1514 146 1491 96 q 1537 298 1537 195 q 1443 497 1537 497 q 1373 448 1395 497 q 1351 298 1351 399 m 1669 298 q 1612 64 1669 142 q 1443 -14 1554 -14 q 1279 66 1337 -14 q 1220 298 1220 147 q 1443 609 1220 609 q 1610 528 1551 609 q 1669 298 1669 448 m 840 298 q 861 146 840 197 q 930 96 882 96 q 1001 146 978 96 q 1024 298 1024 195 q 930 497 1024 497 q 861 448 882 497 q 840 298 840 399 m 1157 298 q 1099 64 1157 142 q 930 -14 1041 -14 q 766 66 824 -14 q 708 298 708 147 q 930 609 708 609 q 1097 528 1038 609 q 1157 298 1157 448 "},"Ä":{"x_min":0,"x_max":918,"ha":918,"o":"m 745 0 l 646 275 l 267 275 l 170 0 l 0 0 l 370 996 l 547 996 l 918 0 l 745 0 m 604 415 l 511 685 q 483 770 501 712 q 458 856 465 829 q 404 673 440 772 l 315 415 l 604 415 m 245 1177 q 268 1238 245 1219 q 323 1257 291 1257 q 381 1235 359 1257 q 402 1177 402 1214 q 380 1119 402 1141 q 323 1098 358 1098 q 268 1117 291 1098 q 245 1177 245 1137 m 512 1177 q 534 1238 512 1219 q 590 1257 557 1257 q 647 1235 626 1257 q 669 1177 669 1214 q 647 1119 669 1140 q 590 1098 624 1098 q 534 1117 557 1098 q 512 1177 512 1137 "},"Ỵ":{"x_min":0,"x_max":822,"ha":822,"o":"m 411 539 l 645 992 l 822 992 l 491 384 l 491 0 l 328 0 l 328 379 l 0 992 l 176 992 l 411 539 m 319 -177 q 343 -112 319 -135 q 410 -89 366 -89 q 476 -112 453 -89 q 498 -177 498 -135 q 475 -241 498 -217 q 410 -265 452 -265 q 343 -241 366 -265 q 319 -177 319 -218 "},"ř":{"x_min":72.921875,"x_max":595.046875,"ha":599,"o":"m 494 764 q 573 757 542 764 l 558 608 q 487 616 524 616 q 332 554 392 616 q 273 392 273 491 l 273 0 l 113 0 l 113 750 l 238 750 l 259 618 l 267 618 q 365 724 305 685 q 494 764 425 764 m 595 1064 l 595 1045 q 474 915 509 957 q 421 842 439 873 l 245 842 q 72 1045 201 913 l 72 1064 l 180 1064 q 332 940 273 1003 q 487 1064 398 1007 l 595 1064 "},"—":{"x_min":55.609375,"x_max":1333.390625,"ha":1389,"o":"m 55 308 l 55 437 l 1333 437 l 1333 308 l 55 308 "},"N":{"x_min":130.90625,"x_max":957.09375,"ha":1088,"o":"m 957 0 l 758 0 l 270 790 l 265 790 l 268 746 q 278 515 278 620 l 278 0 l 130 0 l 130 992 l 327 992 l 814 205 l 818 205 q 812 319 816 221 q 808 472 808 417 l 808 992 l 957 992 l 957 0 "},"⁄":{"x_min":-266.546875,"x_max":443.828125,"ha":180,"o":"m 443 992 l -136 0 l -266 0 l 314 992 l 443 992 "},"2":{"x_min":61.046875,"x_max":733.296875,"ha":793,"o":"m 733 0 l 61 0 l 61 120 l 316 377 q 467 542 430 493 q 521 633 504 590 q 537 725 537 676 q 497 831 537 792 q 386 869 457 869 q 275 848 329 869 q 152 772 222 827 l 66 877 q 227 976 149 947 q 393 1006 305 1006 q 615 933 531 1006 q 698 739 698 861 q 674 611 698 672 q 600 487 650 551 q 434 314 550 423 l 262 147 l 262 140 l 733 140 l 733 0 "},"ü":{"x_min":107.203125,"x_max":768.703125,"ha":882,"o":"m 643 0 l 620 97 l 612 97 q 518 15 579 45 q 377 -14 456 -14 q 174 53 241 -14 q 107 259 107 121 l 107 750 l 267 750 l 267 287 q 303 157 267 201 q 413 114 338 114 q 561 174 514 114 q 608 376 608 234 l 608 750 l 768 750 l 768 0 l 643 0 m 224 948 q 247 1009 224 990 q 302 1028 270 1028 q 360 1006 338 1028 q 381 948 381 985 q 359 890 381 912 q 302 869 337 869 q 247 888 270 869 q 224 948 224 908 m 491 948 q 513 1009 491 990 q 569 1028 536 1028 q 626 1006 605 1028 q 648 948 648 985 q 626 890 648 911 q 569 869 603 869 q 513 888 536 869 q 491 948 491 908 "},"˜":{"x_min":160.03125,"x_max":693,"ha":832,"o":"m 526 841 q 470 853 497 841 q 416 879 442 865 q 364 906 389 894 q 316 918 339 918 q 242 840 261 918 l 160 840 q 212 984 168 934 q 326 1034 256 1034 q 383 1021 355 1034 q 437 995 410 1009 q 488 968 463 980 q 536 956 513 956 q 608 1035 589 956 l 693 1035 q 640 892 684 943 q 526 841 596 841 "},"Ó":{"x_min":82.046875,"x_max":1010.953125,"ha":1093,"o":"m 1010 496 q 889 120 1010 254 q 547 -14 768 -14 q 202 119 322 -14 q 82 498 82 252 q 203 875 82 743 q 548 1007 324 1007 q 890 873 769 1007 q 1010 496 1010 739 m 254 496 q 328 219 254 313 q 547 124 402 124 q 765 217 691 124 q 838 496 838 311 q 765 773 838 679 q 548 867 692 867 q 328 773 402 867 q 254 496 254 679 m 445 1071 l 445 1087 q 525 1193 484 1135 q 589 1293 566 1251 l 775 1293 l 775 1278 q 669 1172 739 1237 q 551 1071 599 1106 l 445 1071 "}," ":{"x_min":0,"x_max":0,"ha":695},"ˇ":{"x_min":153.921875,"x_max":676.046875,"ha":832,"o":"m 676 1064 l 676 1045 q 555 915 590 957 q 502 842 520 873 l 326 842 q 153 1045 282 913 l 153 1064 l 261 1064 q 413 940 354 1003 q 568 1064 479 1007 l 676 1064 "},"Ÿ":{"x_min":0,"x_max":822,"ha":822,"o":"m 411 539 l 645 992 l 822 992 l 491 384 l 491 0 l 328 0 l 328 379 l 0 992 l 176 992 l 411 539 m 198 1177 q 221 1238 198 1219 q 276 1257 244 1257 q 334 1235 312 1257 q 355 1177 355 1214 q 333 1119 355 1141 q 276 1098 311 1098 q 221 1117 244 1098 q 198 1177 198 1137 m 465 1177 q 487 1238 465 1219 q 543 1257 510 1257 q 600 1235 579 1257 q 622 1177 622 1214 q 600 1119 622 1140 q 543 1098 577 1098 q 487 1117 510 1098 q 465 1177 465 1137 "},"ų":{"x_min":107.203125,"x_max":778.78125,"ha":882,"o":"m 643 0 l 620 97 l 612 97 q 518 15 579 45 q 377 -14 456 -14 q 174 53 241 -14 q 107 259 107 121 l 107 750 l 267 750 l 267 287 q 303 157 267 201 q 413 114 338 114 q 561 174 514 114 q 608 376 608 234 l 608 750 l 768 750 l 768 0 l 643 0 m 648 -157 q 708 -218 648 -218 q 778 -206 737 -218 l 778 -304 q 684 -318 732 -318 q 568 -279 608 -318 q 529 -176 529 -241 q 555 -90 529 -132 q 644 0 580 -48 l 745 0 q 673 -81 698 -44 q 648 -157 648 -118 "},"Ŭ":{"x_min":122.09375,"x_max":908.234375,"ha":1031,"o":"m 908 992 l 908 349 q 861 157 908 239 q 724 30 813 74 q 511 -14 635 -14 q 224 83 326 -14 q 122 352 122 181 l 122 992 l 284 992 l 284 364 q 341 182 284 241 q 516 124 398 124 q 746 365 746 124 l 746 992 l 908 992 m 508 1071 q 341 1125 402 1071 q 274 1277 279 1179 l 367 1277 q 385 1224 370 1244 q 427 1197 400 1205 q 511 1189 455 1189 q 617 1211 582 1189 q 656 1277 651 1234 l 750 1277 q 677 1126 742 1181 q 508 1071 612 1071 "},"ĝ":{"x_min":15.609375,"x_max":747.890625,"ha":773,"o":"m 747 750 l 747 662 l 619 638 q 648 580 637 615 q 660 507 660 545 q 580 324 660 391 q 359 258 500 258 q 294 263 323 258 q 242 189 242 231 q 266 150 242 163 q 355 138 291 138 l 486 138 q 675 85 610 138 q 739 -67 739 32 q 634 -264 739 -195 q 330 -334 529 -334 q 96 -279 177 -334 q 15 -124 15 -225 q 59 -8 15 -55 q 181 57 103 38 q 129 100 149 70 q 108 164 108 131 q 132 235 108 206 q 202 292 156 264 q 108 374 144 317 q 71 507 71 431 q 148 696 71 629 q 368 764 226 764 q 435 759 400 764 q 487 750 470 754 l 747 750 m 158 -116 q 204 -196 158 -168 q 335 -224 251 -224 q 529 -186 465 -224 q 593 -87 593 -149 q 558 -17 593 -38 q 428 3 523 3 l 307 3 q 198 -29 238 3 q 158 -116 158 -61 m 226 507 q 262 398 226 436 q 367 360 299 360 q 505 508 505 360 q 471 621 505 582 q 367 661 437 661 q 262 622 297 661 q 226 507 226 582 m 538 842 q 383 963 454 891 q 231 842 313 894 l 123 842 l 123 858 q 296 1064 253 992 l 472 1064 q 646 858 515 989 l 646 842 l 538 842 "},"ß":{"x_min":113.921875,"x_max":869.390625,"ha":925,"o":"m 779 849 q 753 754 779 799 q 682 674 726 709 q 602 608 621 628 q 584 569 584 588 q 599 531 584 549 q 653 488 615 514 l 718 445 q 810 371 780 403 q 854 300 839 338 q 869 214 869 262 q 796 44 869 102 q 585 -14 724 -14 q 383 30 457 -14 l 383 165 q 477 123 422 139 q 577 106 532 106 q 707 209 707 106 q 684 280 707 250 q 579 360 661 310 q 463 452 498 410 q 427 551 427 494 q 450 629 427 594 q 522 701 474 665 q 594 767 573 738 q 616 830 616 796 q 570 907 616 879 q 450 934 525 934 q 318 898 364 934 q 273 790 273 861 l 273 0 l 113 0 l 113 793 q 201 993 113 923 q 450 1063 288 1063 q 691 1005 602 1063 q 779 849 779 948 "},"Ể":{"x_min":130.859375,"x_max":765.03125,"ha":775,"o":"m 691 0 l 130 0 l 130 992 l 691 992 l 691 855 l 292 855 l 292 585 l 666 585 l 666 449 l 292 449 l 292 137 l 691 137 l 691 0 m 640 1071 l 554 1071 q 411 1183 478 1121 q 267 1071 333 1115 l 180 1071 l 180 1087 q 327 1271 286 1210 l 494 1271 q 640 1087 554 1184 l 640 1071 m 765 1339 q 680 1248 765 1266 l 676 1200 l 605 1200 l 598 1282 q 661 1299 642 1287 q 680 1331 680 1310 q 619 1369 680 1369 q 570 1363 594 1369 l 570 1434 q 628 1439 587 1439 q 765 1339 765 1439 "},"̀":{"x_min":-659.484375,"x_max":-329.875,"ha":0,"o":"m -437 842 q -555 943 -483 877 q -659 1049 -626 1010 l -659 1064 l -474 1064 q -404 955 -448 1016 q -329 858 -359 893 l -329 842 l -437 842 "},"s":{"x_min":66.453125,"x_max":617.6875,"ha":676,"o":"m 617 213 q 537 44 617 103 q 308 -14 457 -14 q 67 31 158 -14 l 67 169 q 313 108 200 108 q 461 197 461 108 q 444 244 461 225 q 391 284 428 263 q 287 330 353 304 q 112 430 157 380 q 66 561 66 480 q 144 710 66 657 q 355 764 221 764 q 605 710 487 764 l 553 590 q 349 640 432 640 q 223 568 223 640 q 256 508 223 533 q 400 441 289 484 q 534 375 492 405 q 597 306 577 345 q 617 213 617 267 "},"ẳ":{"x_min":61.0625,"x_max":697.453125,"ha":806,"o":"m 583 0 l 551 104 l 546 104 q 436 10 491 35 q 295 -14 382 -14 q 123 45 185 -14 q 61 215 61 105 q 147 390 61 331 q 409 454 233 449 l 539 459 l 539 498 q 505 606 539 570 q 401 641 472 641 q 291 624 344 641 q 189 584 238 608 l 137 698 q 271 747 198 730 q 408 764 343 764 q 624 701 551 764 q 697 505 697 639 l 697 0 l 583 0 m 346 108 q 485 156 432 108 q 538 293 538 205 l 538 358 l 441 354 q 277 316 329 350 q 226 213 226 283 q 256 135 226 163 q 346 108 286 108 m 503 1125 q 424 1036 503 1056 l 420 1009 l 356 1009 l 350 1076 q 405 1093 388 1082 q 421 1123 421 1103 q 367 1157 421 1157 q 315 1153 339 1157 l 315 1214 q 375 1220 328 1220 q 469 1196 435 1220 q 503 1125 503 1173 m 404 842 q 244 895 301 842 q 180 1045 186 948 l 267 1045 q 404 943 278 943 q 539 1045 527 943 l 626 1045 q 561 893 618 944 q 404 842 505 842 "},"Ű":{"x_min":122.09375,"x_max":908.234375,"ha":1031,"o":"m 908 992 l 908 349 q 861 157 908 239 q 724 30 813 74 q 511 -14 635 -14 q 224 83 326 -14 q 122 352 122 181 l 122 992 l 284 992 l 284 364 q 341 182 284 241 q 516 124 398 124 q 746 365 746 124 l 746 992 l 908 992 m 302 1071 l 302 1087 q 428 1293 373 1185 l 594 1293 l 594 1278 q 508 1178 574 1245 q 390 1071 443 1111 l 302 1071 m 557 1071 l 557 1087 q 625 1187 586 1126 q 684 1293 663 1249 l 849 1293 l 849 1278 q 763 1178 829 1245 q 645 1071 698 1111 l 557 1071 "},"?":{"x_min":10.84375,"x_max":594.4375,"ha":629,"o":"m 191 301 l 191 344 q 218 468 191 419 q 313 571 246 518 q 417 670 394 634 q 441 754 441 705 q 403 841 441 811 q 294 872 365 872 q 174 854 229 872 q 67 810 119 835 l 10 929 q 305 1006 148 1006 q 516 940 438 1006 q 594 761 594 875 q 579 670 594 710 q 534 594 564 630 q 430 501 504 558 q 346 419 367 451 q 324 331 324 386 l 324 301 l 191 301 m 164 84 q 263 186 164 186 q 338 160 312 186 q 364 84 364 133 q 338 8 364 36 q 263 -20 311 -20 q 189 7 215 -20 q 164 84 164 34 "},"ỡ":{"x_min":69.21875,"x_max":946.546875,"ha":895,"o":"m 779 376 q 685 89 779 192 q 422 -14 591 -14 q 236 33 317 -14 q 112 169 156 81 q 69 376 69 258 q 162 661 69 558 q 426 764 256 764 q 565 739 500 764 q 676 669 629 715 q 748 728 724 683 q 772 864 772 772 l 936 864 l 946 848 q 872 666 921 727 q 737 580 823 605 q 779 376 779 489 m 233 376 q 278 182 233 247 q 425 116 324 116 q 570 182 525 116 q 615 376 615 247 q 570 568 615 503 q 424 633 524 633 q 278 568 323 633 q 233 376 233 503 m 529 841 q 473 853 500 841 q 419 879 445 865 q 367 906 392 894 q 319 918 342 918 q 245 840 264 918 l 163 840 q 215 984 171 934 q 329 1034 259 1034 q 386 1021 358 1034 q 440 995 413 1009 q 491 968 466 980 q 539 956 516 956 q 611 1035 592 956 l 696 1035 q 643 892 687 943 q 529 841 599 841 "},"Ņ":{"x_min":130.90625,"x_max":957.09375,"ha":1088,"o":"m 957 0 l 758 0 l 270 790 l 265 790 l 268 746 q 278 515 278 620 l 278 0 l 130 0 l 130 992 l 327 992 l 814 205 l 818 205 q 812 319 816 221 q 808 472 808 417 l 808 992 l 957 992 l 957 0 m 395 -290 q 426 -188 411 -246 q 446 -85 440 -129 l 598 -85 l 598 -98 q 547 -210 579 -152 q 488 -307 516 -269 l 395 -307 l 395 -290 "},"c":{"x_min":69.203125,"x_max":643.21875,"ha":688,"o":"m 416 -14 q 157 85 246 -14 q 69 370 69 184 q 161 662 69 560 q 429 764 254 764 q 643 719 548 764 l 595 591 q 428 631 493 631 q 233 372 233 631 q 281 182 233 245 q 424 118 330 118 q 625 171 530 118 l 625 32 q 534 -3 582 7 q 416 -14 485 -14 "},"¶":{"x_min":76.6875,"x_max":775.640625,"ha":910,"o":"m 775 -176 l 682 -176 l 682 951 l 553 951 l 553 -176 l 460 -176 l 460 379 q 361 367 418 367 q 145 451 214 367 q 76 706 76 536 q 150 968 76 882 q 382 1055 224 1055 l 775 1055 l 775 -176 "},"Ī":{"x_min":-3.75,"x_max":429.390625,"ha":424,"o":"m 130 0 l 130 992 l 293 992 l 293 0 l 130 0 m -3 1189 l 429 1189 l 429 1071 l -3 1071 l -3 1189 "},"•":{"x_min":88.8125,"x_max":433.359375,"ha":522,"o":"m 88 507 q 133 650 88 601 q 261 699 178 699 q 388 649 343 699 q 433 507 433 600 q 387 366 433 416 q 261 316 342 316 q 134 365 179 316 q 88 507 88 414 "},"Ὅ":{"x_min":-234.375,"x_max":1045.953125,"ha":1129,"o":"m 1045 496 q 924 120 1045 254 q 582 -14 803 -14 q 237 119 357 -14 q 117 498 117 252 q 238 875 117 743 q 583 1007 359 1007 q 925 873 804 1007 q 1045 496 1045 739 m 289 496 q 363 219 289 313 q 582 124 437 124 q 800 217 726 124 q 873 496 873 311 q 800 773 873 679 q 583 867 727 867 q 363 773 437 867 q 289 496 289 679 m -21 787 q 39 992 24 924 l 192 992 l 192 978 q 52 770 151 892 l -21 770 l -21 787 m -234 854 q -186 947 -234 909 q -53 1002 -139 985 l -53 953 q -120 923 -98 938 q -142 890 -142 909 q -131 871 -142 877 q -105 860 -119 865 q -80 845 -91 854 q -68 817 -68 836 q -88 778 -68 792 q -144 765 -107 765 q -209 788 -184 765 q -234 854 -234 812 "},"(":{"x_min":55.59375,"x_max":398.640625,"ha":440,"o":"m 55 380 q 108 717 55 560 q 259 992 160 873 l 398 992 q 254 705 304 864 q 204 381 204 547 q 254 60 204 216 q 397 -220 304 -94 l 259 -220 q 107 49 159 -104 q 55 380 55 203 "},"Ụ":{"x_min":122.09375,"x_max":908.234375,"ha":1031,"o":"m 908 992 l 908 349 q 861 157 908 239 q 724 30 813 74 q 511 -14 635 -14 q 224 83 326 -14 q 122 352 122 181 l 122 992 l 284 992 l 284 364 q 341 182 284 241 q 516 124 398 124 q 746 365 746 124 l 746 992 l 908 992 m 424 -177 q 448 -112 424 -135 q 515 -89 471 -89 q 581 -112 558 -89 q 603 -177 603 -135 q 580 -241 603 -217 q 515 -265 557 -265 q 448 -241 471 -265 q 424 -177 424 -218 "},"◊":{"x_min":66.484375,"x_max":742.15625,"ha":810,"o":"m 66 498 l 372 999 l 436 999 l 742 498 l 436 0 l 372 0 l 66 498 m 594 498 l 404 817 l 213 498 l 404 179 l 594 498 "},"Ỗ":{"x_min":82.046875,"x_max":1010.953125,"ha":1093,"o":"m 1010 496 q 889 120 1010 254 q 547 -14 768 -14 q 202 119 322 -14 q 82 498 82 252 q 203 875 82 743 q 548 1007 324 1007 q 890 873 769 1007 q 1010 496 1010 739 m 254 496 q 328 219 254 313 q 547 124 402 124 q 765 217 691 124 q 838 496 838 311 q 765 773 838 679 q 548 867 692 867 q 328 773 402 867 q 254 496 254 679 m 639 1299 q 590 1308 615 1299 q 542 1328 566 1317 q 496 1349 519 1340 q 455 1359 474 1359 q 414 1345 428 1359 q 390 1298 399 1331 l 321 1298 q 362 1411 327 1368 q 452 1455 397 1455 q 503 1445 477 1455 q 552 1424 528 1435 q 597 1402 576 1412 q 637 1393 619 1393 q 678 1407 664 1393 q 702 1456 692 1422 l 770 1456 q 728 1340 763 1382 q 639 1299 693 1299 m 774 1071 l 695 1071 q 545 1178 612 1118 q 395 1071 483 1123 l 315 1071 l 315 1088 q 469 1265 429 1207 l 622 1265 q 774 1088 667 1199 l 774 1071 "},"­":{"x_min":48.84375,"x_max":397.484375,"ha":447,"o":"m 48 304 l 48 440 l 397 440 l 397 304 l 48 304 "},"Ħ":{"x_min":0,"x_max":1043,"ha":1043,"o":"m 912 842 l 1043 842 l 1043 726 l 912 726 l 912 0 l 750 0 l 750 446 l 293 446 l 293 0 l 130 0 l 130 726 l 0 726 l 0 842 l 130 842 l 130 992 l 293 992 l 293 842 l 750 842 l 750 992 l 912 992 l 912 842 m 750 586 l 750 726 l 293 726 l 293 586 l 750 586 "},":":{"x_min":90.234375,"x_max":291.671875,"ha":382,"o":"m 90 84 q 116 160 90 133 q 190 186 141 186 q 265 159 240 186 q 291 84 291 131 q 265 8 291 36 q 190 -20 239 -20 q 116 7 141 -20 q 90 84 90 35 m 90 663 q 190 766 90 766 q 266 738 241 766 q 291 663 291 711 q 265 587 291 615 q 190 559 239 559 q 116 586 141 559 q 90 663 90 614 "},"Û":{"x_min":122.09375,"x_max":908.234375,"ha":1031,"o":"m 908 992 l 908 349 q 861 157 908 239 q 724 30 813 74 q 511 -14 635 -14 q 224 83 326 -14 q 122 352 122 181 l 122 992 l 284 992 l 284 364 q 341 182 284 241 q 516 124 398 124 q 746 365 746 124 l 746 992 l 908 992 m 662 1071 q 507 1192 578 1120 q 355 1071 437 1123 l 247 1071 l 247 1087 q 420 1293 377 1221 l 596 1293 q 770 1087 639 1218 l 770 1071 l 662 1071 "},"Ầ":{"x_min":0,"x_max":918,"ha":918,"o":"m 745 0 l 646 275 l 267 275 l 170 0 l 0 0 l 370 996 l 547 996 l 918 0 l 745 0 m 604 415 l 511 685 q 483 770 501 712 q 458 856 465 829 q 404 673 440 772 l 315 415 l 604 415 m 228 1087 q 330 1209 304 1176 q 375 1271 356 1243 l 542 1271 q 687 1087 601 1184 l 687 1071 l 601 1071 q 458 1183 536 1115 q 315 1071 386 1118 l 228 1071 l 228 1087 m 285 1203 l 201 1203 q 55 1342 107 1274 l 55 1357 l 196 1357 q 285 1219 232 1282 l 285 1203 "},"ś":{"x_min":66.453125,"x_max":617.6875,"ha":676,"o":"m 617 213 q 537 44 617 103 q 308 -14 457 -14 q 67 31 158 -14 l 67 169 q 313 108 200 108 q 461 197 461 108 q 444 244 461 225 q 391 284 428 263 q 287 330 353 304 q 112 430 157 380 q 66 561 66 480 q 144 710 66 657 q 355 764 221 764 q 605 710 487 764 l 553 590 q 349 640 432 640 q 223 568 223 640 q 256 508 223 533 q 400 441 289 484 q 534 375 492 405 q 597 306 577 345 q 617 213 617 267 m 242 842 l 242 858 q 322 964 281 906 q 386 1064 363 1022 l 572 1064 l 572 1049 q 466 943 536 1008 q 348 842 396 877 l 242 842 "},"V":{"x_min":0,"x_max":864,"ha":864,"o":"m 695 992 l 864 992 l 516 0 l 345 0 l 0 992 l 166 992 l 373 375 q 408 261 389 331 q 432 158 426 192 q 459 277 440 209 q 488 377 477 345 l 695 992 "},"Ŗ":{"x_min":130.921875,"x_max":875.109375,"ha":888,"o":"m 293 531 l 405 531 q 569 573 518 531 q 620 697 620 615 q 565 818 620 781 q 400 855 510 855 l 293 855 l 293 531 m 293 396 l 293 0 l 130 0 l 130 992 l 411 992 q 695 920 603 992 q 787 703 787 848 q 594 439 787 518 l 875 0 l 690 0 l 453 396 l 293 396 m 345 -290 q 376 -188 361 -246 q 396 -85 390 -129 l 548 -85 l 548 -98 q 497 -210 529 -152 q 438 -307 466 -269 l 345 -307 l 345 -290 "}," ":{"x_min":0,"x_max":0,"ha":361},"Ỹ":{"x_min":0,"x_max":822,"ha":822,"o":"m 411 539 l 645 992 l 822 992 l 491 384 l 491 0 l 328 0 l 328 379 l 0 992 l 176 992 l 411 539 m 511 1070 q 455 1082 482 1070 q 401 1108 427 1094 q 349 1135 374 1123 q 301 1147 324 1147 q 227 1069 246 1147 l 145 1069 q 197 1213 153 1163 q 311 1263 241 1263 q 368 1250 340 1263 q 422 1224 395 1238 q 473 1197 448 1209 q 521 1185 498 1185 q 593 1264 574 1185 l 678 1264 q 625 1121 669 1172 q 511 1070 581 1070 "},"ʼ":{"x_min":10.96875,"x_max":245.65625,"ha":267,"o":"m 235 992 l 245 977 q 126 652 209 835 l 10 652 q 78 992 57 848 l 235 992 "},"@":{"x_min":75.265625,"x_max":1170.375,"ha":1247,"o":"m 1170 501 q 1139 323 1170 404 q 1054 198 1109 243 q 926 154 998 154 q 833 182 872 154 q 780 259 794 210 l 772 259 q 690 180 739 206 q 580 154 641 154 q 406 225 469 154 q 343 417 343 296 q 427 644 343 557 q 653 732 511 732 q 767 722 704 732 q 878 697 829 713 l 863 381 l 863 365 q 934 257 863 257 q 1019 326 987 257 q 1051 502 1051 395 q 1003 706 1051 618 q 868 841 956 794 q 667 889 781 889 q 416 829 523 889 q 253 658 309 769 q 197 401 197 548 q 302 99 197 205 q 604 -6 407 -6 q 916 54 754 -6 l 916 -56 q 606 -115 774 -115 q 215 20 355 -115 q 75 397 75 155 q 151 712 75 574 q 361 923 227 850 q 666 997 496 997 q 928 935 813 997 q 1106 762 1043 874 q 1170 501 1170 649 m 473 415 q 597 257 473 257 q 740 455 728 257 l 748 618 q 657 629 705 629 q 521 571 570 629 q 473 415 473 514 "},"¾":{"x_min":37.53125,"x_max":1112.796875,"ha":1153,"o":"m 958 992 l 378 0 l 248 0 l 829 992 l 958 992 m 1112 120 l 1027 120 l 1027 0 l 897 0 l 897 120 l 631 120 l 631 206 l 900 599 l 1027 599 l 1027 217 l 1112 217 l 1112 120 m 897 217 l 897 337 q 901 471 897 403 q 842 364 866 400 l 741 217 l 897 217 m 444 848 q 417 764 444 797 q 335 706 389 732 q 431 654 399 692 q 464 565 464 617 q 401 432 464 479 q 220 386 338 386 q 37 428 120 386 l 37 534 q 220 480 135 480 q 342 572 342 480 q 207 656 342 656 l 129 656 l 129 747 l 200 747 q 325 834 325 747 q 301 888 325 869 q 240 907 278 907 q 168 894 201 907 q 97 855 135 880 l 40 932 q 131 983 81 963 q 247 1004 180 1004 q 391 962 338 1004 q 444 848 444 920 "},"ŉ":{"x_min":1.96875,"x_max":905.125,"ha":1014,"o":"m 905 0 l 745 0 l 745 461 q 710 591 745 548 q 599 633 675 633 q 451 574 498 633 q 404 373 404 514 l 404 0 l 244 0 l 244 750 l 369 750 l 392 652 l 400 652 q 496 734 434 705 q 635 764 559 764 q 905 489 905 764 l 905 0 m 226 992 l 236 977 q 117 652 200 835 l 1 652 q 69 992 48 848 l 226 992 "},"i":{"x_min":104.375,"x_max":283.421875,"ha":387,"o":"m 273 0 l 113 0 l 113 750 l 273 750 l 273 0 m 104 949 q 127 1014 104 991 q 194 1038 151 1038 q 260 1014 236 1038 q 283 949 283 991 q 260 885 283 908 q 194 862 236 862 q 127 885 151 862 q 104 949 104 908 "},"ẽ":{"x_min":69.15625,"x_max":732.875,"ha":800,"o":"m 441 -14 q 167 88 266 -14 q 69 369 69 190 q 160 658 69 553 q 412 764 252 764 q 646 673 560 764 q 732 424 732 583 l 732 338 l 233 338 q 292 170 236 229 q 448 112 347 112 q 572 124 515 112 q 695 166 629 137 l 695 36 q 577 -2 637 9 q 441 -14 517 -14 m 412 643 q 290 594 336 643 q 236 454 244 546 l 576 454 q 531 595 574 547 q 412 643 488 643 m 508 841 q 452 853 479 841 q 398 879 424 865 q 346 906 371 894 q 298 918 321 918 q 224 840 243 918 l 142 840 q 194 984 150 934 q 308 1034 238 1034 q 365 1021 337 1034 q 419 995 392 1009 q 470 968 445 980 q 518 956 495 956 q 590 1035 571 956 l 675 1035 q 622 892 666 943 q 508 841 578 841 "},"Ģ":{"x_min":82.109375,"x_max":901.796875,"ha":1009,"o":"m 536 538 l 901 538 l 901 39 q 729 -1 812 10 q 551 -14 647 -14 q 204 119 326 -14 q 82 495 82 252 q 219 870 82 735 q 599 1006 357 1006 q 893 946 754 1006 l 836 811 q 595 866 715 866 q 343 767 436 866 q 251 494 251 667 q 334 217 251 312 q 574 123 417 123 q 742 142 652 123 l 742 398 l 536 398 l 536 538 m 437 -290 q 468 -188 453 -246 q 488 -85 482 -129 l 640 -85 l 640 -98 q 589 -210 621 -152 q 530 -307 558 -269 l 437 -307 l 437 -290 "},"m":{"x_min":113.9375,"x_max":1219.484375,"ha":1328,"o":"m 746 0 l 586 0 l 586 462 q 553 591 586 548 q 451 633 520 633 q 316 573 359 633 q 273 373 273 513 l 273 0 l 113 0 l 113 750 l 238 750 l 261 652 l 269 652 q 359 734 300 705 q 490 764 419 764 q 719 645 663 764 l 730 645 q 824 732 763 701 q 962 764 884 764 q 1158 696 1096 764 q 1219 489 1219 628 l 1219 0 l 1060 0 l 1060 462 q 1027 591 1060 548 q 925 633 994 633 q 789 575 832 633 q 746 397 746 517 l 746 0 "},"ĕ":{"x_min":69.15625,"x_max":732.875,"ha":800,"o":"m 441 -14 q 167 88 266 -14 q 69 369 69 190 q 160 658 69 553 q 412 764 252 764 q 646 673 560 764 q 732 424 732 583 l 732 338 l 233 338 q 292 170 236 229 q 448 112 347 112 q 572 124 515 112 q 695 166 629 137 l 695 36 q 577 -2 637 9 q 441 -14 517 -14 m 412 643 q 290 594 336 643 q 236 454 244 546 l 576 454 q 531 595 574 547 q 412 643 488 643 m 409 842 q 242 896 303 842 q 175 1048 180 950 l 268 1048 q 286 995 271 1015 q 328 968 301 976 q 412 960 356 960 q 518 982 483 960 q 557 1048 552 1005 l 651 1048 q 578 897 643 952 q 409 842 513 842 "},"Ỉ":{"x_min":99.265625,"x_max":376.671875,"ha":424,"o":"m 130 0 l 130 992 l 293 992 l 293 0 l 130 0 m 376 1240 q 265 1114 376 1140 l 258 1051 l 164 1051 l 151 1160 q 227 1185 202 1169 q 251 1231 251 1202 q 177 1281 251 1281 q 99 1271 137 1281 l 99 1363 q 194 1375 145 1375 q 330 1341 283 1375 q 376 1240 376 1307 "},"ż":{"x_min":46.125,"x_max":615.171875,"ha":664,"o":"m 615 0 l 46 0 l 46 98 l 425 627 l 69 627 l 69 750 l 604 750 l 604 638 l 233 122 l 615 122 l 615 0 m 242 948 q 265 1013 242 990 q 332 1037 289 1037 q 398 1013 374 1037 q 421 948 421 990 q 398 884 421 907 q 332 861 374 861 q 265 884 289 861 q 242 948 242 907 "},"Ị":{"x_min":120.90625,"x_max":299.953125,"ha":424,"o":"m 130 0 l 130 992 l 293 992 l 293 0 l 130 0 m 120 -177 q 144 -112 120 -135 q 211 -89 167 -89 q 277 -112 254 -89 q 299 -177 299 -135 q 276 -241 299 -217 q 211 -265 253 -265 q 144 -241 167 -265 q 120 -177 120 -218 "},"ő":{"x_min":69.140625,"x_max":778.859375,"ha":848,"o":"m 778 376 q 684 89 778 192 q 422 -14 590 -14 q 236 33 317 -14 q 112 169 155 81 q 69 376 69 258 q 162 661 69 558 q 426 764 256 764 q 683 659 589 764 q 778 376 778 554 m 233 376 q 425 116 233 116 q 614 376 614 116 q 423 633 614 633 q 278 567 323 633 q 233 376 233 500 m 202 842 l 202 858 q 328 1064 273 956 l 494 1064 l 494 1049 q 408 949 474 1016 q 290 842 343 882 l 202 842 m 457 842 l 457 858 q 525 958 486 897 q 584 1064 563 1020 l 749 1064 l 749 1049 q 663 949 729 1016 q 545 842 598 882 l 457 842 "},"ž":{"x_min":46.125,"x_max":615.171875,"ha":664,"o":"m 615 0 l 46 0 l 46 98 l 425 627 l 69 627 l 69 750 l 604 750 l 604 638 l 233 122 l 615 122 l 615 0 m 600 1064 l 600 1045 q 479 915 514 957 q 426 842 444 873 l 250 842 q 77 1045 206 913 l 77 1064 l 185 1064 q 337 940 278 1003 q 492 1064 403 1007 l 600 1064 "},"ự":{"x_min":107.171875,"x_max":1044.625,"ha":989,"o":"m 643 0 l 620 97 l 611 97 q 517 15 577 45 q 379 -14 457 -14 q 174 53 242 -14 q 107 259 107 121 l 107 750 l 267 750 l 267 287 q 303 157 267 201 q 413 114 338 114 q 561 174 514 114 q 608 376 608 234 l 608 750 l 768 750 l 768 669 q 847 729 822 681 q 872 865 872 776 l 1035 865 l 1044 849 q 992 696 1025 751 q 903 608 959 641 q 768 565 848 574 l 768 0 l 643 0 m 333 -177 q 357 -112 333 -135 q 424 -89 380 -89 q 490 -112 467 -89 q 512 -177 512 -135 q 489 -241 512 -217 q 424 -265 466 -265 q 357 -241 380 -265 q 333 -177 333 -218 "},"ớ":{"x_min":69.21875,"x_max":946.546875,"ha":895,"o":"m 779 376 q 685 89 779 192 q 422 -14 591 -14 q 236 33 317 -14 q 112 169 156 81 q 69 376 69 258 q 162 661 69 558 q 426 764 256 764 q 565 739 500 764 q 676 669 629 715 q 748 728 724 683 q 772 864 772 772 l 936 864 l 946 848 q 872 666 921 727 q 737 580 823 605 q 779 376 779 489 m 233 376 q 278 182 233 247 q 425 116 324 116 q 570 182 525 116 q 615 376 615 247 q 570 568 615 503 q 424 633 524 633 q 278 568 323 633 q 233 376 233 503 m 324 842 l 324 858 q 404 964 363 906 q 468 1064 445 1022 l 654 1064 l 654 1049 q 548 943 618 1008 q 430 842 478 877 l 324 842 "},"Ŏ":{"x_min":82.046875,"x_max":1010.953125,"ha":1093,"o":"m 1010 496 q 889 120 1010 254 q 547 -14 768 -14 q 202 119 322 -14 q 82 498 82 252 q 203 875 82 743 q 548 1007 324 1007 q 890 873 769 1007 q 1010 496 1010 739 m 254 496 q 328 219 254 313 q 547 124 402 124 q 765 217 691 124 q 838 496 838 311 q 765 773 838 679 q 548 867 692 867 q 328 773 402 867 q 254 496 254 679 m 542 1071 q 375 1125 436 1071 q 308 1277 313 1179 l 401 1277 q 419 1224 404 1244 q 461 1197 434 1205 q 545 1189 489 1189 q 651 1211 616 1189 q 690 1277 685 1234 l 784 1277 q 711 1126 776 1181 q 542 1071 646 1071 "},"á":{"x_min":61.0625,"x_max":697.453125,"ha":806,"o":"m 583 0 l 551 104 l 546 104 q 436 10 491 35 q 295 -14 382 -14 q 123 45 185 -14 q 61 215 61 105 q 147 390 61 331 q 409 454 233 449 l 539 459 l 539 498 q 505 606 539 570 q 401 641 472 641 q 291 624 344 641 q 189 584 238 608 l 137 698 q 271 747 198 730 q 408 764 343 764 q 624 701 551 764 q 697 505 697 639 l 697 0 l 583 0 m 346 108 q 485 156 432 108 q 538 293 538 205 l 538 358 l 441 354 q 277 316 329 350 q 226 213 226 283 q 256 135 226 163 q 346 108 286 108 m 297 842 l 297 858 q 377 964 336 906 q 441 1064 418 1022 l 627 1064 l 627 1049 q 521 943 591 1008 q 403 842 451 877 l 297 842 "},"×":{"x_min":88.859375,"x_max":704.140625,"ha":793,"o":"m 309 490 l 88 711 l 173 797 l 396 576 l 619 797 l 704 714 l 481 490 l 701 268 l 617 183 l 394 404 l 175 183 l 90 268 l 309 490 "},"ẩ":{"x_min":61.0625,"x_max":758.03125,"ha":806,"o":"m 583 0 l 551 104 l 546 104 q 436 10 491 35 q 295 -14 382 -14 q 123 45 185 -14 q 61 215 61 105 q 147 390 61 331 q 409 454 233 449 l 539 459 l 539 498 q 505 606 539 570 q 401 641 472 641 q 291 624 344 641 q 189 584 238 608 l 137 698 q 271 747 198 730 q 408 764 343 764 q 624 701 551 764 q 697 505 697 639 l 697 0 l 583 0 m 346 108 q 485 156 432 108 q 538 293 538 205 l 538 358 l 441 354 q 277 316 329 350 q 226 213 226 283 q 256 135 226 163 q 346 108 286 108 m 633 842 l 547 842 q 404 954 471 892 q 260 842 326 886 l 173 842 l 173 858 q 320 1042 279 981 l 487 1042 q 633 858 547 955 l 633 842 m 758 1110 q 673 1019 758 1037 l 669 971 l 598 971 l 591 1053 q 654 1070 635 1058 q 673 1102 673 1081 q 612 1140 673 1140 q 563 1134 587 1140 l 563 1205 q 621 1210 580 1210 q 758 1110 758 1210 "},"İ":{"x_min":121.375,"x_max":300.421875,"ha":424,"o":"m 130 0 l 130 992 l 293 992 l 293 0 l 130 0 m 121 1177 q 144 1242 121 1219 q 211 1266 168 1266 q 277 1242 253 1266 q 300 1177 300 1219 q 277 1113 300 1136 q 211 1090 253 1090 q 144 1113 168 1090 q 121 1177 121 1136 "},"̏":{"x_min":-747.40625,"x_max":-206.859375,"ha":0,"o":"m -294 842 q -405 946 -340 878 q -491 1049 -471 1015 l -491 1064 l -326 1064 q -273 963 -307 1022 q -206 858 -240 904 l -206 842 l -294 842 m -550 842 q -661 946 -596 878 q -747 1049 -727 1015 l -747 1064 l -581 1064 q -529 963 -562 1022 q -462 858 -495 904 l -462 842 l -550 842 "},"Ě":{"x_min":130.859375,"x_max":691.59375,"ha":775,"o":"m 691 0 l 130 0 l 130 992 l 691 992 l 691 855 l 292 855 l 292 585 l 666 585 l 666 449 l 292 449 l 292 137 l 691 137 l 691 0 m 677 1293 l 677 1274 q 556 1144 591 1186 q 503 1071 521 1102 l 327 1071 q 154 1274 283 1142 l 154 1293 l 262 1293 q 414 1169 355 1232 q 569 1293 480 1236 l 677 1293 "},"Ố":{"x_min":82.046875,"x_max":1010.953125,"ha":1093,"o":"m 1010 496 q 889 120 1010 254 q 547 -14 768 -14 q 202 119 322 -14 q 82 498 82 252 q 203 875 82 743 q 548 1007 324 1007 q 890 873 769 1007 q 1010 496 1010 739 m 254 496 q 328 219 254 313 q 547 124 402 124 q 765 217 691 124 q 838 496 838 311 q 765 773 838 679 q 548 867 692 867 q 328 773 402 867 q 254 496 254 679 m 774 1071 l 688 1071 q 545 1183 612 1121 q 401 1071 467 1115 l 314 1071 l 314 1087 q 461 1271 420 1210 l 628 1271 q 774 1087 688 1184 l 774 1071 m 717 1219 q 807 1357 773 1286 l 947 1357 l 947 1342 q 802 1203 901 1280 l 717 1203 l 717 1219 "},"K":{"x_min":130.921875,"x_max":888,"ha":888,"o":"m 888 0 l 700 0 l 388 449 l 293 371 l 293 0 l 130 0 l 130 992 l 293 992 l 293 518 q 425 675 359 599 l 693 992 l 877 992 q 505 557 618 686 l 888 0 "},"7":{"x_min":50.203125,"x_max":736.015625,"ha":793,"o":"m 173 0 l 565 849 l 50 849 l 50 990 l 736 990 l 736 878 l 345 0 l 173 0 "},"¨":{"x_min":198.71875,"x_max":622.609375,"ha":822,"o":"m 198 948 q 221 1009 198 990 q 276 1028 244 1028 q 334 1006 312 1028 q 355 948 355 985 q 333 890 355 912 q 276 869 311 869 q 221 888 244 869 q 198 948 198 908 m 465 948 q 487 1009 465 990 q 543 1028 510 1028 q 600 1006 579 1028 q 622 948 622 985 q 600 890 622 911 q 543 869 577 869 q 487 888 510 869 q 465 948 465 908 "},"Y":{"x_min":0,"x_max":822,"ha":822,"o":"m 411 539 l 645 992 l 822 992 l 491 384 l 491 0 l 328 0 l 328 379 l 0 992 l 176 992 l 411 539 "},"E":{"x_min":130.859375,"x_max":691.59375,"ha":775,"o":"m 691 0 l 130 0 l 130 992 l 691 992 l 691 855 l 292 855 l 292 585 l 666 585 l 666 449 l 292 449 l 292 137 l 691 137 l 691 0 "},"Ô":{"x_min":82.046875,"x_max":1010.953125,"ha":1093,"o":"m 1010 496 q 889 120 1010 254 q 547 -14 768 -14 q 202 119 322 -14 q 82 498 82 252 q 203 875 82 743 q 548 1007 324 1007 q 890 873 769 1007 q 1010 496 1010 739 m 254 496 q 328 219 254 313 q 547 124 402 124 q 765 217 691 124 q 838 496 838 311 q 765 773 838 679 q 548 867 692 867 q 328 773 402 867 q 254 496 254 679 m 694 1071 q 539 1192 610 1120 q 387 1071 469 1123 l 279 1071 l 279 1087 q 452 1293 409 1221 l 628 1293 q 802 1087 671 1218 l 802 1071 l 694 1071 "},"‹":{"x_min":55.65625,"x_max":411.34375,"ha":467,"o":"m 55 379 l 297 673 l 411 609 l 219 371 l 411 135 l 297 70 l 55 362 l 55 379 "},"ổ":{"x_min":69.140625,"x_max":778.859375,"ha":848,"o":"m 778 376 q 684 89 778 192 q 422 -14 590 -14 q 236 33 317 -14 q 112 169 155 81 q 69 376 69 258 q 162 661 69 558 q 426 764 256 764 q 683 659 589 764 q 778 376 778 554 m 233 376 q 425 116 233 116 q 614 376 614 116 q 423 633 614 633 q 278 567 323 633 q 233 376 233 500 m 650 842 l 564 842 q 421 954 488 892 q 277 842 343 886 l 190 842 l 190 858 q 337 1042 296 981 l 504 1042 q 650 858 564 955 l 650 842 m 775 1110 q 690 1019 775 1037 l 686 971 l 615 971 l 608 1053 q 671 1070 652 1058 q 690 1102 690 1081 q 629 1140 690 1140 q 580 1134 604 1140 l 580 1205 q 638 1210 597 1210 q 775 1110 775 1210 "},"Ï":{"x_min":0.71875,"x_max":424.609375,"ha":424,"o":"m 130 0 l 130 992 l 293 992 l 293 0 l 130 0 m 0 1177 q 23 1238 0 1219 q 78 1257 46 1257 q 136 1235 114 1257 q 157 1177 157 1214 q 135 1119 157 1141 q 78 1098 113 1098 q 23 1117 46 1098 q 0 1177 0 1137 m 267 1177 q 289 1238 267 1219 q 345 1257 312 1257 q 402 1235 381 1257 q 424 1177 424 1214 q 402 1119 424 1140 q 345 1098 379 1098 q 289 1117 312 1098 q 267 1177 267 1137 "},"ġ":{"x_min":15.609375,"x_max":747.890625,"ha":773,"o":"m 747 750 l 747 662 l 619 638 q 648 580 637 615 q 660 507 660 545 q 580 324 660 391 q 359 258 500 258 q 294 263 323 258 q 242 189 242 231 q 266 150 242 163 q 355 138 291 138 l 486 138 q 675 85 610 138 q 739 -67 739 32 q 634 -264 739 -195 q 330 -334 529 -334 q 96 -279 177 -334 q 15 -124 15 -225 q 59 -8 15 -55 q 181 57 103 38 q 129 100 149 70 q 108 164 108 131 q 132 235 108 206 q 202 292 156 264 q 108 374 144 317 q 71 507 71 431 q 148 696 71 629 q 368 764 226 764 q 435 759 400 764 q 487 750 470 754 l 747 750 m 158 -116 q 204 -196 158 -168 q 335 -224 251 -224 q 529 -186 465 -224 q 593 -87 593 -149 q 558 -17 593 -38 q 428 3 523 3 l 307 3 q 198 -29 238 3 q 158 -116 158 -61 m 226 507 q 262 398 226 436 q 367 360 299 360 q 505 508 505 360 q 471 621 505 582 q 367 661 437 661 q 262 622 297 661 q 226 507 226 582 m 290 948 q 313 1013 290 990 q 380 1037 337 1037 q 446 1013 422 1037 q 469 948 469 990 q 446 884 469 907 q 380 861 422 861 q 313 884 337 861 q 290 948 290 907 "},"Ẳ":{"x_min":0,"x_max":918,"ha":918,"o":"m 745 0 l 646 275 l 267 275 l 170 0 l 0 0 l 370 996 l 547 996 l 918 0 l 745 0 m 604 415 l 511 685 q 483 770 501 712 q 458 856 465 829 q 404 673 440 772 l 315 415 l 604 415 m 559 1354 q 480 1265 559 1285 l 476 1238 l 412 1238 l 406 1305 q 461 1322 444 1311 q 477 1352 477 1332 q 423 1386 477 1386 q 371 1382 395 1386 l 371 1443 q 431 1449 384 1449 q 525 1425 491 1449 q 559 1354 559 1402 m 460 1071 q 300 1124 357 1071 q 236 1274 242 1177 l 323 1274 q 460 1172 334 1172 q 595 1274 583 1172 l 682 1274 q 617 1122 674 1173 q 460 1071 561 1071 "},"ứ":{"x_min":107.171875,"x_max":1044.625,"ha":989,"o":"m 643 0 l 620 97 l 611 97 q 517 15 577 45 q 379 -14 457 -14 q 174 53 242 -14 q 107 259 107 121 l 107 750 l 267 750 l 267 287 q 303 157 267 201 q 413 114 338 114 q 561 174 514 114 q 608 376 608 234 l 608 750 l 768 750 l 768 669 q 847 729 822 681 q 872 865 872 776 l 1035 865 l 1044 849 q 992 696 1025 751 q 903 608 959 641 q 768 565 848 574 l 768 0 l 643 0 m 343 842 l 343 858 q 423 964 382 906 q 487 1064 464 1022 l 673 1064 l 673 1049 q 567 943 637 1008 q 449 842 497 877 l 343 842 "},"ủ":{"x_min":107.203125,"x_max":768.703125,"ha":882,"o":"m 643 0 l 620 97 l 612 97 q 518 15 579 45 q 377 -14 456 -14 q 174 53 241 -14 q 107 259 107 121 l 107 750 l 267 750 l 267 287 q 303 157 267 201 q 413 114 338 114 q 561 174 514 114 q 608 376 608 234 l 608 750 l 768 750 l 768 0 l 643 0 m 595 1011 q 484 885 595 911 l 477 822 l 383 822 l 370 931 q 446 956 421 940 q 470 1002 470 973 q 396 1052 470 1052 q 318 1042 356 1052 l 318 1134 q 413 1146 364 1146 q 549 1112 502 1146 q 595 1011 595 1078 "},"Ằ":{"x_min":0,"x_max":918,"ha":918,"o":"m 745 0 l 646 275 l 267 275 l 170 0 l 0 0 l 370 996 l 547 996 l 918 0 l 745 0 m 604 415 l 511 685 q 483 770 501 712 q 458 856 465 829 q 404 673 440 772 l 315 415 l 604 415 m 509 1247 l 433 1247 q 294 1387 355 1308 l 294 1402 l 428 1402 q 509 1264 461 1329 l 509 1247 m 460 1071 q 300 1124 357 1071 q 236 1274 242 1177 l 323 1274 q 460 1172 334 1172 q 595 1274 583 1172 l 682 1274 q 617 1122 674 1173 q 460 1071 561 1071 "},"ķ":{"x_min":113.90625,"x_max":787.21875,"ha":794,"o":"m 267 396 l 358 508 l 584 750 l 768 750 l 466 427 l 787 0 l 600 0 l 359 328 l 271 257 l 271 0 l 113 0 l 113 1055 l 271 1055 l 271 540 l 263 396 l 267 396 m 296 -290 q 327 -188 312 -246 q 347 -85 341 -129 l 499 -85 l 499 -98 q 448 -210 480 -152 q 389 -307 417 -269 l 296 -307 l 296 -290 "},"Ấ":{"x_min":0,"x_max":918,"ha":918,"o":"m 745 0 l 646 275 l 267 275 l 170 0 l 0 0 l 370 996 l 547 996 l 918 0 l 745 0 m 604 415 l 511 685 q 483 770 501 712 q 458 856 465 829 q 404 673 440 772 l 315 415 l 604 415 m 687 1071 l 601 1071 q 458 1183 525 1121 q 314 1071 380 1115 l 227 1071 l 227 1087 q 374 1271 333 1210 l 541 1271 q 687 1087 601 1184 l 687 1071 m 630 1219 q 720 1357 686 1286 l 860 1357 l 860 1342 q 715 1203 814 1280 l 630 1203 l 630 1219 "}," ":{"x_min":0,"x_max":0,"ha":463},"ể":{"x_min":69.15625,"x_max":761.03125,"ha":800,"o":"m 441 -14 q 167 88 266 -14 q 69 369 69 190 q 160 658 69 553 q 412 764 252 764 q 646 673 560 764 q 732 424 732 583 l 732 338 l 233 338 q 292 170 236 229 q 448 112 347 112 q 572 124 515 112 q 695 166 629 137 l 695 36 q 577 -2 637 9 q 441 -14 517 -14 m 412 643 q 290 594 336 643 q 236 454 244 546 l 576 454 q 531 595 574 547 q 412 643 488 643 m 636 842 l 550 842 q 407 954 474 892 q 263 842 329 886 l 176 842 l 176 858 q 323 1042 282 981 l 490 1042 q 636 858 550 955 l 636 842 m 761 1110 q 676 1019 761 1037 l 672 971 l 601 971 l 594 1053 q 657 1070 638 1058 q 676 1102 676 1081 q 615 1140 676 1140 q 566 1134 590 1140 l 566 1205 q 624 1210 583 1210 q 761 1110 761 1210 "},"±":{"x_min":65.125,"x_max":727.875,"ha":793,"o":"m 335 450 l 65 450 l 65 571 l 335 571 l 335 847 l 457 847 l 457 571 l 727 571 l 727 450 l 457 450 l 457 174 l 335 174 l 335 450 m 65 0 l 65 120 l 727 120 l 727 0 l 65 0 "},"ì":{"x_min":-46.484375,"x_max":283.125,"ha":387,"o":"m 273 0 l 113 0 l 113 750 l 273 750 l 273 0 m 175 842 q 57 943 129 877 q -46 1049 -13 1010 l -46 1064 l 138 1064 q 208 955 164 1016 q 283 858 253 893 l 283 842 l 175 842 "},"|":{"x_min":320.78125,"x_max":442.859375,"ha":765,"o":"m 320 1053 l 442 1053 l 442 -326 l 320 -326 l 320 1053 "},"§":{"x_min":78.015625,"x_max":613.921875,"ha":696,"o":"m 87 546 q 113 645 87 601 q 189 719 139 689 q 90 878 90 775 q 164 1015 90 965 q 364 1065 238 1065 q 482 1053 426 1065 q 605 1013 538 1041 l 559 903 q 440 946 480 937 q 358 955 399 955 q 226 881 226 955 q 263 817 226 844 q 393 756 301 791 q 563 657 512 710 q 613 529 613 603 q 519 349 613 409 q 613 198 613 295 q 533 45 613 101 q 312 -10 453 -10 q 78 38 168 -10 l 78 159 q 195 115 130 132 q 315 97 260 97 q 474 186 474 97 q 460 234 474 215 q 412 270 446 252 q 312 314 378 289 q 172 383 217 352 q 108 454 128 415 q 87 546 87 494 m 212 560 q 228 506 212 529 q 281 459 244 482 q 413 398 318 436 q 487 512 487 442 q 445 598 487 563 q 295 668 403 632 q 235 627 259 658 q 212 560 212 596 "},"˳":{"x_min":69.25,"x_max":392.390625,"ha":463,"o":"m 392 -237 q 346 -349 392 -307 q 228 -392 300 -392 q 112 -350 156 -392 q 69 -238 69 -309 q 112 -126 69 -168 q 228 -85 156 -85 q 346 -128 301 -85 q 392 -237 392 -171 m 300 -238 q 279 -185 300 -204 q 228 -167 259 -167 q 175 -185 196 -167 q 155 -238 155 -204 q 173 -291 155 -272 q 228 -311 192 -311 q 280 -291 260 -311 q 300 -238 300 -272 "},"q":{"x_min":69.140625,"x_max":751.109375,"ha":865,"o":"m 410 113 q 554 171 511 113 q 598 347 598 229 l 598 372 q 553 572 598 511 q 408 633 508 633 q 278 565 322 633 q 233 370 233 497 q 410 113 233 113 m 365 -14 q 147 88 226 -14 q 69 373 69 190 q 149 660 69 556 q 369 764 229 764 q 495 737 439 764 q 595 651 551 711 l 601 651 l 618 750 l 751 750 l 751 -334 l 591 -334 l 591 -15 q 593 47 591 13 q 598 98 596 80 l 589 98 q 365 -14 519 -14 "},"b":{"x_min":113.890625,"x_max":793.828125,"ha":865,"o":"m 496 764 q 715 662 637 764 q 793 376 793 560 q 714 88 793 191 q 494 -14 635 -14 q 273 88 351 -14 l 262 88 l 233 0 l 113 0 l 113 1055 l 273 1055 l 273 804 q 270 721 273 776 q 266 651 267 666 l 273 651 q 496 764 349 764 m 455 633 q 316 577 359 633 q 273 387 274 520 l 273 376 q 316 177 273 239 q 458 116 360 116 q 586 183 542 116 q 630 377 630 250 q 455 633 630 633 "},"̃":{"x_min":-696.96875,"x_max":-164,"ha":0,"o":"m -330 841 q -386 853 -359 841 q -440 879 -414 865 q -492 906 -467 894 q -540 918 -517 918 q -614 840 -595 918 l -696 840 q -644 984 -688 934 q -530 1034 -600 1034 q -473 1021 -501 1034 q -419 995 -446 1009 q -368 968 -393 980 q -320 956 -343 956 q -248 1035 -267 956 l -164 1035 q -216 892 -172 943 q -330 841 -260 841 "},"ộ":{"x_min":69.140625,"x_max":778.859375,"ha":848,"o":"m 778 376 q 684 89 778 192 q 422 -14 590 -14 q 236 33 317 -14 q 112 169 155 81 q 69 376 69 258 q 162 661 69 558 q 426 764 256 764 q 683 659 589 764 q 778 376 778 554 m 233 376 q 425 116 233 116 q 614 376 614 116 q 423 633 614 633 q 278 567 323 633 q 233 376 233 500 m 333 -177 q 357 -112 333 -135 q 424 -89 380 -89 q 490 -112 467 -89 q 512 -177 512 -135 q 489 -241 512 -217 q 424 -265 466 -265 q 357 -241 380 -265 q 333 -177 333 -218 m 576 842 q 421 963 492 891 q 269 842 351 894 l 161 842 l 161 858 q 334 1064 291 992 l 510 1064 q 684 858 553 989 l 684 842 l 576 842 "},"®":{"x_min":67.84375,"x_max":1088.15625,"ha":1156,"o":"m 507 522 l 554 522 q 630 545 604 522 q 656 613 656 569 q 631 682 656 662 q 552 701 606 701 l 507 701 l 507 522 m 784 616 q 681 458 784 500 l 841 189 l 698 189 l 568 423 l 507 423 l 507 189 l 379 189 l 379 802 l 556 802 q 729 755 675 802 q 784 616 784 709 m 67 495 q 135 750 67 631 q 322 937 203 868 q 578 1006 440 1006 q 832 938 713 1006 q 1019 751 951 870 q 1088 495 1088 632 q 1022 244 1088 361 q 837 56 956 127 q 578 -14 719 -14 q 318 56 437 -14 q 133 243 200 126 q 67 495 67 361 m 151 495 q 208 281 151 380 q 364 125 265 182 q 578 68 464 68 q 792 126 693 68 q 948 282 891 184 q 1004 495 1004 380 q 947 709 1004 609 q 790 865 890 808 q 578 922 691 922 q 365 866 464 922 q 209 710 267 809 q 151 495 151 611 "},"Ŋ":{"x_min":130.90625,"x_max":957.09375,"ha":1088,"o":"m 672 -277 q 554 -260 601 -277 l 554 -122 q 662 -136 604 -136 q 772 -100 734 -136 q 814 1 810 -64 l 270 790 l 265 790 l 268 748 q 278 505 278 617 l 278 0 l 130 0 l 130 992 l 327 992 l 814 282 l 818 282 q 808 657 808 365 l 808 992 l 957 992 l 957 3 q 883 -204 957 -132 q 672 -277 809 -277 "},"ọ":{"x_min":69.140625,"x_max":778.859375,"ha":848,"o":"m 778 376 q 684 89 778 192 q 422 -14 590 -14 q 236 33 317 -14 q 112 169 155 81 q 69 376 69 258 q 162 661 69 558 q 426 764 256 764 q 683 659 589 764 q 778 376 778 554 m 233 376 q 425 116 233 116 q 614 376 614 116 q 423 633 614 633 q 278 567 323 633 q 233 376 233 500 m 331 -177 q 355 -112 331 -135 q 422 -89 378 -89 q 488 -112 465 -89 q 510 -177 510 -135 q 487 -241 510 -217 q 422 -265 464 -265 q 355 -241 378 -265 q 331 -177 331 -218 "},"Ũ":{"x_min":122.09375,"x_max":908.234375,"ha":1031,"o":"m 908 992 l 908 349 q 861 157 908 239 q 724 30 813 74 q 511 -14 635 -14 q 224 83 326 -14 q 122 352 122 181 l 122 992 l 284 992 l 284 364 q 341 182 284 241 q 516 124 398 124 q 746 365 746 124 l 746 992 l 908 992 m 616 1070 q 560 1082 587 1070 q 506 1108 532 1094 q 454 1135 479 1123 q 406 1147 429 1147 q 332 1069 351 1147 l 250 1069 q 302 1213 258 1163 q 416 1263 346 1263 q 473 1250 445 1263 q 527 1224 500 1238 q 578 1197 553 1209 q 626 1185 603 1185 q 698 1264 679 1185 l 783 1264 q 730 1121 774 1172 q 616 1070 686 1070 "},"L":{"x_min":130.921875,"x_max":712.96875,"ha":753,"o":"m 130 0 l 130 992 l 293 992 l 293 139 l 712 139 l 712 0 l 130 0 "},"ế":{"x_min":69.15625,"x_max":813.859375,"ha":800,"o":"m 441 -14 q 167 88 266 -14 q 69 369 69 190 q 160 658 69 553 q 412 764 252 764 q 646 673 560 764 q 732 424 732 583 l 732 338 l 233 338 q 292 170 236 229 q 448 112 347 112 q 572 124 515 112 q 695 166 629 137 l 695 36 q 577 -2 637 9 q 441 -14 517 -14 m 412 643 q 290 594 336 643 q 236 454 244 546 l 576 454 q 531 595 574 547 q 412 643 488 643 m 640 842 l 554 842 q 411 954 478 892 q 267 842 333 886 l 180 842 l 180 858 q 327 1042 286 981 l 494 1042 q 640 858 554 955 l 640 842 m 583 990 q 673 1128 639 1057 l 813 1128 l 813 1113 q 668 974 767 1051 l 583 974 l 583 990 "},"ď":{"x_min":69.140625,"x_max":1011.203125,"ha":865,"o":"m 366 -14 q 147 87 226 -14 q 69 373 69 189 q 148 661 69 558 q 369 764 228 764 q 594 654 517 764 l 602 654 q 591 782 591 735 l 591 1055 l 751 1055 l 751 0 l 626 0 l 598 98 l 591 98 q 366 -14 514 -14 m 409 114 q 552 170 507 114 q 598 349 597 225 l 598 372 q 552 574 598 514 q 408 633 506 633 q 278 565 324 633 q 233 370 233 497 q 277 180 233 245 q 409 114 321 114 m 813 849 q 857 1055 845 956 l 1011 1055 l 1011 1041 q 965 938 995 999 q 905 833 934 877 l 813 833 l 813 849 "}," ":{"x_min":0,"x_max":0,"ha":361},"Ĭ":{"x_min":-25.703125,"x_max":450.984375,"ha":424,"o":"m 130 0 l 130 992 l 293 992 l 293 0 l 130 0 m 208 1071 q 41 1125 102 1071 q -25 1277 -20 1179 l 67 1277 q 85 1224 70 1244 q 127 1197 100 1205 q 211 1189 155 1189 q 317 1211 282 1189 q 356 1277 351 1234 l 450 1277 q 377 1126 442 1181 q 208 1071 312 1071 "},"ŧ":{"x_min":26.453125,"x_max":510.046875,"ha":546,"o":"m 394 114 q 510 133 446 114 l 510 13 q 441 -6 484 1 q 355 -14 399 -14 q 184 46 239 -14 q 128 229 128 106 l 128 365 l 37 365 l 37 476 l 128 476 l 128 629 l 26 629 l 26 699 l 136 758 l 190 917 l 288 917 l 288 750 l 502 750 l 502 629 l 288 629 l 288 476 l 484 476 l 484 365 l 288 365 l 288 233 q 394 114 288 114 "},"À":{"x_min":0,"x_max":918,"ha":918,"o":"m 745 0 l 646 275 l 267 275 l 170 0 l 0 0 l 370 996 l 547 996 l 918 0 l 745 0 m 604 415 l 511 685 q 483 770 501 712 q 458 856 465 829 q 404 673 440 772 l 315 415 l 604 415 m 448 1071 q 330 1172 402 1106 q 226 1278 259 1239 l 226 1293 l 411 1293 q 481 1184 437 1245 q 556 1087 526 1122 l 556 1071 l 448 1071 "},"ẃ":{"x_min":13.5625,"x_max":1120.078125,"ha":1135,"o":"m 729 0 l 632 349 q 568 608 614 405 l 562 608 q 499 348 523 425 l 400 0 l 223 0 l 13 750 l 176 750 l 272 380 q 318 145 304 243 l 322 145 q 342 259 329 195 q 367 355 356 323 l 481 750 l 656 750 l 766 355 q 792 253 776 322 q 810 147 807 185 l 815 147 q 862 380 825 230 l 960 750 l 1120 750 l 908 0 l 729 0 m 461 842 l 461 858 q 541 964 500 906 q 605 1064 582 1022 l 791 1064 l 791 1049 q 685 943 755 1008 q 567 842 615 877 l 461 842 "},"+":{"x_min":65.125,"x_max":727.875,"ha":793,"o":"m 335 429 l 65 429 l 65 550 l 335 550 l 335 826 l 457 826 l 457 550 l 727 550 l 727 429 l 457 429 l 457 153 l 335 153 l 335 429 "},"ḁ":{"x_min":61.0625,"x_max":697.453125,"ha":806,"o":"m 583 0 l 551 104 l 546 104 q 436 10 491 35 q 295 -14 382 -14 q 123 45 185 -14 q 61 215 61 105 q 147 390 61 331 q 409 454 233 449 l 539 459 l 539 498 q 505 606 539 570 q 401 641 472 641 q 291 624 344 641 q 189 584 238 608 l 137 698 q 271 747 198 730 q 408 764 343 764 q 624 701 551 764 q 697 505 697 639 l 697 0 l 583 0 m 346 108 q 485 156 432 108 q 538 293 538 205 l 538 358 l 441 354 q 277 316 329 350 q 226 213 226 283 q 256 135 226 163 q 346 108 286 108 m 546 -237 q 500 -349 546 -307 q 382 -392 454 -392 q 266 -350 310 -392 q 223 -238 223 -309 q 266 -126 223 -168 q 382 -85 310 -85 q 500 -128 455 -85 q 546 -237 546 -171 m 454 -238 q 433 -185 454 -204 q 382 -167 413 -167 q 329 -185 350 -167 q 309 -238 309 -204 q 327 -291 309 -272 q 382 -311 346 -311 q 434 -291 414 -311 q 454 -238 454 -272 "},"½":{"x_min":30.984375,"x_max":1090.90625,"ha":1153,"o":"m 879 992 l 299 0 l 169 0 l 750 992 l 879 992 m 334 397 l 208 397 l 208 744 l 210 814 l 214 876 q 186 849 202 864 q 90 773 170 834 l 30 850 l 221 992 l 334 992 l 334 397 m 1090 0 l 665 0 l 665 91 l 821 244 q 923 356 900 320 q 945 432 945 392 q 923 485 945 467 q 867 503 901 503 q 730 444 803 503 l 666 526 q 876 607 761 607 q 1020 562 968 607 q 1071 440 1071 517 q 1040 332 1071 383 q 915 195 1008 281 l 821 107 l 1090 107 l 1090 0 "},"Ë":{"x_min":130.859375,"x_max":691.59375,"ha":775,"o":"m 691 0 l 130 0 l 130 992 l 691 992 l 691 855 l 292 855 l 292 585 l 666 585 l 666 449 l 292 449 l 292 137 l 691 137 l 691 0 m 201 1177 q 224 1238 201 1219 q 279 1257 247 1257 q 337 1235 315 1257 q 358 1177 358 1214 q 336 1119 358 1141 q 279 1098 314 1098 q 224 1117 247 1098 q 201 1177 201 1137 m 468 1177 q 490 1238 468 1219 q 546 1257 513 1257 q 603 1235 582 1257 q 625 1177 625 1214 q 603 1119 625 1140 q 546 1098 580 1098 q 490 1117 513 1098 q 468 1177 468 1137 "},"'":{"x_min":90.265625,"x_max":247.609375,"ha":338,"o":"m 247 992 l 219 634 l 118 634 l 90 992 l 247 992 "},"Š":{"x_min":67.84375,"x_max":702.9375,"ha":764,"o":"m 702 269 q 607 61 702 136 q 343 -14 511 -14 q 67 38 175 -14 l 67 191 q 212 141 135 159 q 354 123 288 123 q 496 159 450 123 q 542 258 542 196 q 500 352 542 313 q 326 444 458 391 q 135 569 190 499 q 79 739 79 640 q 167 934 79 863 q 404 1006 255 1006 q 688 943 546 1006 l 636 811 q 400 866 504 866 q 280 832 321 866 q 240 742 240 798 q 256 675 240 703 q 310 623 272 648 q 444 559 347 599 q 604 474 553 513 q 679 385 655 435 q 702 269 702 336 m 660 1293 l 660 1274 q 539 1144 574 1186 q 486 1071 504 1102 l 310 1071 q 137 1274 266 1142 l 137 1293 l 245 1293 q 397 1169 338 1232 q 552 1293 463 1236 l 660 1293 "},"ĳ":{"x_min":104.375,"x_max":657.421875,"ha":761,"o":"m 273 0 l 113 0 l 113 750 l 273 750 l 273 0 m 104 949 q 127 1014 104 991 q 194 1038 151 1038 q 260 1014 236 1038 q 283 949 283 991 q 260 885 283 908 q 194 862 236 862 q 127 885 151 862 q 104 949 104 908 m 411 -334 q 291 -317 339 -334 l 291 -190 q 386 -203 337 -203 q 487 -87 487 -203 l 487 750 l 647 750 l 647 -98 q 586 -274 647 -214 q 411 -334 525 -334 m 478 949 q 501 1014 478 991 q 568 1038 525 1038 q 634 1014 610 1038 q 657 949 657 991 q 634 885 657 908 q 568 862 610 862 q 501 885 525 862 q 478 949 478 908 "}," ":{"x_min":0,"x_max":0,"ha":1389},"˛":{"x_min":15.578125,"x_max":264.78125,"ha":279,"o":"m 134 -157 q 194 -218 134 -218 q 264 -206 223 -218 l 264 -304 q 170 -318 218 -318 q 54 -279 94 -318 q 15 -176 15 -241 q 41 -90 15 -132 q 130 0 66 -48 l 231 0 q 159 -81 184 -44 q 134 -157 134 -118 "},"ở":{"x_min":69.21875,"x_max":946.546875,"ha":895,"o":"m 779 376 q 685 89 779 192 q 422 -14 591 -14 q 236 33 317 -14 q 112 169 156 81 q 69 376 69 258 q 162 661 69 558 q 426 764 256 764 q 565 739 500 764 q 676 669 629 715 q 748 728 724 683 q 772 864 772 772 l 936 864 l 946 848 q 872 666 921 727 q 737 580 823 605 q 779 376 779 489 m 233 376 q 278 182 233 247 q 425 116 324 116 q 570 182 525 116 q 615 376 615 247 q 570 568 615 503 q 424 633 524 633 q 278 568 323 633 q 233 376 233 503 m 591 1011 q 480 885 591 911 l 473 822 l 379 822 l 366 931 q 442 956 417 940 q 466 1002 466 973 q 392 1052 466 1052 q 314 1042 352 1052 l 314 1134 q 409 1146 360 1146 q 545 1112 498 1146 q 591 1011 591 1078 "},"ð":{"x_min":69.171875,"x_max":779.25,"ha":843,"o":"m 779 384 q 686 90 779 194 q 422 -14 592 -14 q 166 78 263 -14 q 69 325 69 170 q 158 573 69 482 q 396 665 246 665 q 600 589 541 665 l 605 592 q 451 826 563 720 l 282 725 l 222 815 l 360 895 q 247 965 302 935 l 304 1064 q 479 966 399 1021 l 636 1060 l 695 972 l 568 895 q 725 671 671 800 q 779 384 779 543 m 616 353 q 565 490 616 439 q 425 541 514 541 q 277 485 322 541 q 231 323 231 430 q 282 164 231 219 q 425 109 332 109 q 571 171 525 109 q 616 353 616 232 "},"ş":{"x_min":66.453125,"x_max":617.6875,"ha":676,"o":"m 617 213 q 537 44 617 103 q 308 -14 457 -14 q 67 31 158 -14 l 67 169 q 313 108 200 108 q 461 197 461 108 q 444 244 461 225 q 391 284 428 263 q 287 330 353 304 q 112 430 157 380 q 66 561 66 480 q 144 710 66 657 q 355 764 221 764 q 605 710 487 764 l 553 590 q 349 640 432 640 q 223 568 223 640 q 256 508 223 533 q 400 441 289 484 q 534 375 492 405 q 597 306 577 345 q 617 213 617 267 m 463 -183 q 256 -334 463 -334 q 174 -323 211 -334 l 174 -230 q 257 -240 210 -240 q 315 -229 294 -240 q 337 -187 337 -218 q 215 -112 337 -129 l 272 0 l 375 0 l 347 -60 q 432 -106 402 -74 q 463 -183 463 -138 "},"Ỡ":{"x_min":82.09375,"x_max":1149.265625,"ha":1114,"o":"m 1010 496 q 889 120 1010 254 q 547 -14 768 -14 q 202 119 322 -14 q 82 498 82 252 q 203 875 82 743 q 548 1007 324 1007 q 897 865 776 1007 q 956 926 937 880 q 975 1055 975 971 l 1139 1055 l 1149 1040 q 1081 863 1127 926 q 957 770 1034 800 q 1010 496 1010 652 m 254 496 q 328 217 254 311 q 547 124 402 124 q 838 496 838 124 q 548 867 838 867 q 328 774 402 867 q 254 496 254 681 m 648 1070 q 592 1082 619 1070 q 538 1108 564 1094 q 486 1135 511 1123 q 438 1147 461 1147 q 364 1069 383 1147 l 282 1069 q 334 1213 290 1163 q 448 1263 378 1263 q 505 1250 477 1263 q 559 1224 532 1238 q 610 1197 585 1209 q 658 1185 635 1185 q 730 1264 711 1185 l 815 1264 q 762 1121 806 1172 q 648 1070 718 1070 "}," ":{"x_min":0,"x_max":0,"ha":777},"ı":{"x_min":113.859375,"x_max":273.25,"ha":387,"o":"m 273 0 l 113 0 l 113 750 l 273 750 l 273 0 "},"Ć":{"x_min":82.03125,"x_max":834.578125,"ha":880,"o":"m 552 866 q 332 767 412 866 q 252 494 252 668 q 329 218 252 311 q 552 124 406 124 q 674 136 615 124 q 797 169 733 149 l 797 30 q 532 -14 680 -14 q 198 117 315 -14 q 82 495 82 249 q 138 766 82 650 q 302 944 195 882 q 553 1006 409 1006 q 834 942 705 1006 l 776 807 q 670 849 726 831 q 552 866 614 866 m 424 1071 l 424 1087 q 504 1193 463 1135 q 568 1293 545 1251 l 754 1293 l 754 1278 q 648 1172 718 1237 q 530 1071 578 1106 l 424 1071 "},"ä":{"x_min":61.0625,"x_max":697.453125,"ha":806,"o":"m 583 0 l 551 104 l 546 104 q 436 10 491 35 q 295 -14 382 -14 q 123 45 185 -14 q 61 215 61 105 q 147 390 61 331 q 409 454 233 449 l 539 459 l 539 498 q 505 606 539 570 q 401 641 472 641 q 291 624 344 641 q 189 584 238 608 l 137 698 q 271 747 198 730 q 408 764 343 764 q 624 701 551 764 q 697 505 697 639 l 697 0 l 583 0 m 346 108 q 485 156 432 108 q 538 293 538 205 l 538 358 l 441 354 q 277 316 329 350 q 226 213 226 283 q 256 135 226 163 q 346 108 286 108 m 191 948 q 214 1009 191 990 q 269 1028 237 1028 q 327 1006 305 1028 q 348 948 348 985 q 326 890 348 912 q 269 869 304 869 q 214 888 237 869 q 191 948 191 908 m 458 948 q 480 1009 458 990 q 536 1028 503 1028 q 593 1006 572 1028 q 615 948 615 985 q 593 890 615 911 q 536 869 570 869 q 480 888 503 869 q 458 948 458 908 "},"¹":{"x_min":56.984375,"x_max":360.84375,"ha":504,"o":"m 360 397 l 234 397 l 234 744 l 236 814 l 240 876 q 212 849 228 864 q 116 773 196 834 l 56 850 l 247 992 l 360 992 l 360 397 "},"£":{"x_min":48.84375,"x_max":752.984375,"ha":793,"o":"m 468 1004 q 722 948 599 1004 l 670 824 q 478 873 561 873 q 339 724 339 873 l 339 559 l 608 559 l 608 442 l 339 442 l 339 319 q 316 214 339 257 q 240 140 294 170 l 752 140 l 752 0 l 48 0 l 48 132 q 147 197 115 152 q 179 317 179 241 l 179 442 l 51 442 l 51 559 l 179 559 l 179 732 q 256 932 179 860 q 468 1004 333 1004 "},"ẹ":{"x_min":69.15625,"x_max":732.875,"ha":800,"o":"m 441 -14 q 167 88 266 -14 q 69 369 69 190 q 160 658 69 553 q 412 764 252 764 q 646 673 560 764 q 732 424 732 583 l 732 338 l 233 338 q 292 170 236 229 q 448 112 347 112 q 572 124 515 112 q 695 166 629 137 l 695 36 q 577 -2 637 9 q 441 -14 517 -14 m 412 643 q 290 594 336 643 q 236 454 244 546 l 576 454 q 531 595 574 547 q 412 643 488 643 m 317 -177 q 341 -112 317 -135 q 408 -89 364 -89 q 474 -112 451 -89 q 496 -177 496 -135 q 473 -241 496 -217 q 408 -265 450 -265 q 341 -241 364 -265 q 317 -177 317 -218 "},"ů":{"x_min":107.203125,"x_max":768.703125,"ha":882,"o":"m 643 0 l 620 97 l 612 97 q 518 15 579 45 q 377 -14 456 -14 q 174 53 241 -14 q 107 259 107 121 l 107 750 l 267 750 l 267 287 q 303 157 267 201 q 413 114 338 114 q 561 174 514 114 q 608 376 608 234 l 608 750 l 768 750 l 768 0 l 643 0 m 598 995 q 553 883 598 926 q 435 840 509 840 q 319 882 362 840 q 275 993 275 924 q 318 1104 275 1062 q 435 1147 362 1147 q 552 1104 506 1147 q 598 995 598 1062 m 507 993 q 487 1047 507 1027 q 435 1066 467 1066 q 383 1047 404 1066 q 363 993 363 1027 q 435 922 363 922 q 487 940 467 922 q 507 993 507 959 "},"Ō":{"x_min":82.046875,"x_max":1010.953125,"ha":1093,"o":"m 1010 496 q 889 120 1010 254 q 547 -14 768 -14 q 202 119 322 -14 q 82 498 82 252 q 203 875 82 743 q 548 1007 324 1007 q 890 873 769 1007 q 1010 496 1010 739 m 254 496 q 328 219 254 313 q 547 124 402 124 q 765 217 691 124 q 838 496 838 311 q 765 773 838 679 q 548 867 692 867 q 328 773 402 867 q 254 496 254 679 m 331 1189 l 764 1189 l 764 1071 l 331 1071 l 331 1189 "},"W":{"x_min":8.140625,"x_max":1304.5,"ha":1314,"o":"m 1046 0 l 869 0 l 701 591 q 674 703 690 630 q 654 804 658 776 q 632 692 647 761 q 607 588 617 622 l 442 0 l 266 0 l 138 496 l 8 992 l 173 992 l 315 413 q 362 168 348 274 q 385 297 370 225 q 412 412 400 368 l 573 992 l 734 992 l 900 409 q 950 168 923 329 q 999 415 960 265 l 1140 992 l 1304 992 l 1046 0 "},"ỉ":{"x_min":80.265625,"x_max":357.671875,"ha":387,"o":"m 273 0 l 113 0 l 113 750 l 273 750 l 273 0 m 357 1011 q 246 885 357 911 l 239 822 l 145 822 l 132 931 q 208 956 183 940 q 232 1002 232 973 q 158 1052 232 1052 q 80 1042 118 1052 l 80 1134 q 175 1146 126 1146 q 311 1112 264 1146 q 357 1011 357 1078 "},"Ğ":{"x_min":82.109375,"x_max":901.796875,"ha":1009,"o":"m 536 538 l 901 538 l 901 39 q 729 -1 812 10 q 551 -14 647 -14 q 204 119 326 -14 q 82 495 82 252 q 219 870 82 735 q 599 1006 357 1006 q 893 946 754 1006 l 836 811 q 595 866 715 866 q 343 767 436 866 q 251 494 251 667 q 334 217 251 312 q 574 123 417 123 q 742 142 652 123 l 742 398 l 536 398 l 536 538 m 561 1071 q 394 1125 455 1071 q 327 1277 332 1179 l 420 1277 q 438 1224 423 1244 q 480 1197 453 1205 q 564 1189 508 1189 q 670 1211 635 1189 q 709 1277 704 1234 l 803 1277 q 730 1126 795 1181 q 561 1071 665 1071 "},"v":{"x_min":0,"x_max":743,"ha":743,"o":"m 284 0 l 0 750 l 168 750 l 320 313 q 368 136 359 204 l 373 136 q 420 313 379 185 l 573 750 l 743 750 l 456 0 l 284 0 "},">":{"x_min":65.125,"x_max":727.875,"ha":793,"o":"m 65 283 l 562 489 l 65 722 l 65 855 l 727 523 l 727 441 l 65 150 l 65 283 "},"Ệ":{"x_min":130.859375,"x_max":691.59375,"ha":775,"o":"m 691 0 l 130 0 l 130 992 l 691 992 l 691 855 l 292 855 l 292 585 l 666 585 l 666 449 l 292 449 l 292 137 l 691 137 l 691 0 m 319 -177 q 343 -112 319 -135 q 410 -89 366 -89 q 476 -112 453 -89 q 498 -177 498 -135 q 475 -241 498 -217 q 410 -265 452 -265 q 343 -241 366 -265 q 319 -177 319 -218 m 565 1071 q 410 1192 481 1120 q 258 1071 340 1123 l 150 1071 l 150 1087 q 323 1293 280 1221 l 499 1293 q 673 1087 542 1218 l 673 1071 l 565 1071 "},"û":{"x_min":107.203125,"x_max":768.703125,"ha":882,"o":"m 643 0 l 620 97 l 612 97 q 518 15 579 45 q 377 -14 456 -14 q 174 53 241 -14 q 107 259 107 121 l 107 750 l 267 750 l 267 287 q 303 157 267 201 q 413 114 338 114 q 561 174 514 114 q 608 376 608 234 l 608 750 l 768 750 l 768 0 l 643 0 m 590 842 q 435 963 506 891 q 283 842 365 894 l 175 842 l 175 858 q 348 1064 305 992 l 524 1064 q 698 858 567 989 l 698 842 l 590 842 "},"Ź":{"x_min":44.765625,"x_max":754.234375,"ha":799,"o":"m 754 0 l 44 0 l 44 112 l 544 852 l 58 852 l 58 992 l 740 992 l 740 878 l 238 139 l 754 139 l 754 0 m 294 1071 l 294 1087 q 374 1193 333 1135 q 438 1293 415 1251 l 624 1293 l 624 1278 q 518 1172 588 1237 q 400 1071 448 1106 l 294 1071 "},"Ų":{"x_min":122.09375,"x_max":908.234375,"ha":1031,"o":"m 908 992 l 908 349 q 861 157 908 239 q 724 30 813 74 q 511 -14 635 -14 q 224 83 326 -14 q 122 352 122 181 l 122 992 l 284 992 l 284 364 q 341 182 284 241 q 516 124 398 124 q 746 365 746 124 l 746 992 l 908 992 m 516 -157 q 576 -218 516 -218 q 646 -206 605 -218 l 646 -304 q 552 -318 600 -318 q 436 -279 476 -318 q 397 -176 397 -241 q 423 -90 397 -132 q 512 0 448 -48 l 613 0 q 541 -81 566 -44 q 516 -157 516 -118 "},"Ŵ":{"x_min":8.140625,"x_max":1304.5,"ha":1314,"o":"m 1046 0 l 869 0 l 701 591 q 674 703 690 630 q 654 804 658 776 q 632 692 647 761 q 607 588 617 622 l 442 0 l 266 0 l 138 496 l 8 992 l 173 992 l 315 413 q 362 168 348 274 q 385 297 370 225 q 412 412 400 368 l 573 992 l 734 992 l 900 409 q 950 168 923 329 q 999 415 960 265 l 1140 992 l 1304 992 l 1046 0 m 808 1071 q 653 1192 724 1120 q 501 1071 583 1123 l 393 1071 l 393 1087 q 566 1293 523 1221 l 742 1293 q 916 1087 785 1218 l 916 1071 l 808 1071 "},"‛":{"x_min":17.015625,"x_max":253.078125,"ha":268,"o":"m 183 992 q 253 652 206 835 l 136 652 q 66 821 100 728 q 17 977 31 914 l 26 992 l 183 992 "},"Ð":{"x_min":31.859375,"x_max":931.609375,"ha":1015,"o":"m 931 505 q 795 130 931 261 q 402 0 659 0 l 130 0 l 130 422 l 31 422 l 31 558 l 130 558 l 130 992 l 433 992 q 800 864 668 992 q 931 505 931 736 m 760 500 q 676 766 760 676 q 426 856 591 856 l 292 856 l 292 558 l 501 558 l 501 422 l 292 422 l 292 136 l 401 136 q 760 500 760 136 "},"ˉ":{"x_min":197.25,"x_max":630.390625,"ha":829,"o":"m 197 960 l 630 960 l 630 842 l 197 842 l 197 960 "},"Ĺ":{"x_min":130.921875,"x_max":712.96875,"ha":753,"o":"m 130 0 l 130 992 l 293 992 l 293 139 l 712 139 l 712 0 l 130 0 m 170 1071 l 170 1087 q 250 1193 209 1135 q 314 1293 291 1251 l 500 1293 l 500 1278 q 394 1172 464 1237 q 276 1071 324 1106 l 170 1071 "},"ỵ":{"x_min":0,"x_max":745,"ha":745,"o":"m 0 750 l 173 750 l 326 324 q 372 153 360 233 l 377 153 q 400 244 384 191 q 572 750 416 297 l 745 750 l 424 -99 q 132 -334 336 -334 q 29 -322 79 -334 l 29 -196 q 111 -204 65 -204 q 273 -70 226 -204 l 301 0 l 0 750 m 523 -178 q 547 -113 523 -136 q 614 -90 570 -90 q 680 -113 657 -90 q 702 -178 702 -136 q 679 -242 702 -218 q 614 -266 656 -266 q 547 -242 570 -266 q 523 -178 523 -219 "},"r":{"x_min":113.96875,"x_max":573.90625,"ha":599,"o":"m 494 764 q 573 757 542 764 l 558 608 q 487 616 524 616 q 332 554 392 616 q 273 392 273 491 l 273 0 l 113 0 l 113 750 l 238 750 l 259 618 l 267 618 q 365 724 305 685 q 494 764 425 764 "},"Č":{"x_min":82.03125,"x_max":834.578125,"ha":880,"o":"m 552 866 q 332 767 412 866 q 252 494 252 668 q 329 218 252 311 q 552 124 406 124 q 674 136 615 124 q 797 169 733 149 l 797 30 q 532 -14 680 -14 q 198 117 315 -14 q 82 495 82 249 q 138 766 82 650 q 302 944 195 882 q 553 1006 409 1006 q 834 942 705 1006 l 776 807 q 670 849 726 831 q 552 866 614 866 m 799 1293 l 799 1274 q 678 1144 713 1186 q 625 1071 643 1102 l 449 1071 q 276 1274 405 1142 l 276 1293 l 384 1293 q 536 1169 477 1232 q 691 1293 602 1236 l 799 1293 "},"x":{"x_min":16.953125,"x_max":747.359375,"ha":765,"o":"m 280 383 l 29 750 l 210 750 l 381 487 l 554 750 l 734 750 l 482 383 l 747 0 l 566 0 l 381 280 l 197 0 l 16 0 l 280 383 "},"è":{"x_min":69.15625,"x_max":732.875,"ha":800,"o":"m 441 -14 q 167 88 266 -14 q 69 369 69 190 q 160 658 69 553 q 412 764 252 764 q 646 673 560 764 q 732 424 732 583 l 732 338 l 233 338 q 292 170 236 229 q 448 112 347 112 q 572 124 515 112 q 695 166 629 137 l 695 36 q 577 -2 637 9 q 441 -14 517 -14 m 412 643 q 290 594 336 643 q 236 454 244 546 l 576 454 q 531 595 574 547 q 412 643 488 643 m 412 842 q 294 943 366 877 q 190 1049 223 1010 l 190 1064 l 375 1064 q 445 955 401 1016 q 520 858 490 893 l 520 842 l 412 842 "},"Ń":{"x_min":130.90625,"x_max":957.09375,"ha":1088,"o":"m 957 0 l 758 0 l 270 790 l 265 790 l 268 746 q 278 515 278 620 l 278 0 l 130 0 l 130 992 l 327 992 l 814 205 l 818 205 q 812 319 816 221 q 808 472 808 417 l 808 992 l 957 992 l 957 0 m 442 1071 l 442 1087 q 522 1193 481 1135 q 586 1293 563 1251 l 772 1293 l 772 1278 q 666 1172 736 1237 q 548 1071 596 1106 l 442 1071 "},"Ø":{"x_min":82.046875,"x_max":1010.953125,"ha":1093,"o":"m 1010 496 q 889 120 1010 254 q 547 -14 768 -14 q 302 40 402 -14 l 238 -51 l 143 11 l 209 109 q 82 498 82 242 q 203 875 82 743 q 548 1007 324 1007 q 788 951 683 1007 l 849 1038 l 945 976 l 878 881 q 1010 496 1010 746 m 838 496 q 784 741 838 649 l 387 165 q 547 124 452 124 q 765 217 691 124 q 838 496 838 311 m 254 496 q 307 251 254 340 l 705 827 q 548 867 642 867 q 328 773 402 867 q 254 496 254 679 "},"Ỳ":{"x_min":0,"x_max":822,"ha":822,"o":"m 411 539 l 645 992 l 822 992 l 491 384 l 491 0 l 328 0 l 328 379 l 0 992 l 176 992 l 411 539 m 386 1071 q 268 1172 340 1106 q 164 1278 197 1239 l 164 1293 l 349 1293 q 419 1184 375 1245 q 494 1087 464 1122 l 494 1071 l 386 1071 "},"Ẽ":{"x_min":130.859375,"x_max":691.59375,"ha":775,"o":"m 691 0 l 130 0 l 130 992 l 691 992 l 691 855 l 292 855 l 292 585 l 666 585 l 666 449 l 292 449 l 292 137 l 691 137 l 691 0 m 511 1070 q 455 1082 482 1070 q 401 1108 427 1094 q 349 1135 374 1123 q 301 1147 324 1147 q 227 1069 246 1147 l 145 1069 q 197 1213 153 1163 q 311 1263 241 1263 q 368 1250 340 1263 q 422 1224 395 1238 q 473 1197 448 1209 q 521 1185 498 1185 q 593 1264 574 1185 l 678 1264 q 625 1121 669 1172 q 511 1070 581 1070 "},"ḿ":{"x_min":113.9375,"x_max":1219.484375,"ha":1328,"o":"m 746 0 l 586 0 l 586 462 q 553 591 586 548 q 451 633 520 633 q 316 573 359 633 q 273 373 273 513 l 273 0 l 113 0 l 113 750 l 238 750 l 261 652 l 269 652 q 359 734 300 705 q 490 764 419 764 q 719 645 663 764 l 730 645 q 824 732 763 701 q 962 764 884 764 q 1158 696 1096 764 q 1219 489 1219 628 l 1219 0 l 1060 0 l 1060 462 q 1027 591 1060 548 q 925 633 994 633 q 789 575 832 633 q 746 397 746 517 l 746 0 m 569 842 l 569 858 q 649 964 608 906 q 713 1064 690 1022 l 899 1064 l 899 1049 q 793 943 863 1008 q 675 842 723 877 l 569 842 "},"÷":{"x_min":65.125,"x_max":727.875,"ha":793,"o":"m 65 429 l 65 550 l 727 550 l 727 429 l 65 429 m 310 252 q 331 320 310 296 q 396 344 352 344 q 459 320 437 344 q 480 252 480 295 q 457 185 480 210 q 396 160 434 160 q 332 184 355 160 q 310 252 310 208 m 310 726 q 331 793 310 769 q 396 818 352 818 q 459 793 437 818 q 480 726 480 769 q 457 658 480 683 q 396 633 434 633 q 332 657 355 633 q 310 726 310 681 "},"h":{"x_min":113.984375,"x_max":774.125,"ha":882,"o":"m 774 0 l 614 0 l 614 461 q 579 591 614 548 q 468 633 544 633 q 320 573 367 633 q 273 372 273 513 l 273 0 l 113 0 l 113 1055 l 273 1055 l 273 787 q 265 650 273 723 l 275 650 q 366 734 307 704 q 501 764 424 764 q 774 489 774 764 l 774 0 "},".":{"x_min":90.234375,"x_max":291.671875,"ha":382,"o":"m 90 84 q 116 160 90 133 q 190 186 141 186 q 265 159 240 186 q 291 84 291 131 q 265 8 291 36 q 190 -20 239 -20 q 116 7 141 -20 q 90 84 90 35 "},"f":{"x_min":23.734375,"x_max":565.671875,"ha":504,"o":"m 490 629 l 307 629 l 307 0 l 147 0 l 147 629 l 23 629 l 23 703 l 147 752 l 147 801 q 209 998 147 934 q 400 1063 272 1063 q 565 1035 484 1063 l 523 914 q 411 933 464 933 q 332 899 356 933 q 307 798 307 866 l 307 750 l 490 750 l 490 629 "},"“":{"x_min":16.8125,"x_max":534.0625,"ha":551,"o":"m 298 666 q 418 992 334 804 l 534 992 q 466 652 487 791 l 308 652 l 298 666 m 16 666 q 64 818 30 723 q 136 992 99 914 l 251 992 q 182 652 208 818 l 24 652 l 16 666 "},"A":{"x_min":0,"x_max":918,"ha":918,"o":"m 745 0 l 646 275 l 267 275 l 170 0 l 0 0 l 370 996 l 547 996 l 918 0 l 745 0 m 604 415 l 511 685 q 483 770 501 712 q 458 856 465 829 q 404 673 440 772 l 315 415 l 604 415 "},"‘":{"x_min":17.015625,"x_max":251.71875,"ha":268,"o":"m 25 652 l 17 666 q 65 818 30 723 q 136 992 99 914 l 251 992 q 183 652 208 818 l 25 652 "},"O":{"x_min":82.046875,"x_max":1010.953125,"ha":1093,"o":"m 1010 496 q 889 120 1010 254 q 547 -14 768 -14 q 202 119 322 -14 q 82 498 82 252 q 203 875 82 743 q 548 1007 324 1007 q 890 873 769 1007 q 1010 496 1010 739 m 254 496 q 328 219 254 313 q 547 124 402 124 q 765 217 691 124 q 838 496 838 311 q 765 773 838 679 q 548 867 692 867 q 328 773 402 867 q 254 496 254 679 "},"Ỏ":{"x_min":82.046875,"x_max":1010.953125,"ha":1093,"o":"m 1010 496 q 889 120 1010 254 q 547 -14 768 -14 q 202 119 322 -14 q 82 498 82 252 q 203 875 82 743 q 548 1007 324 1007 q 890 873 769 1007 q 1010 496 1010 739 m 254 496 q 328 219 254 313 q 547 124 402 124 q 765 217 691 124 q 838 496 838 311 q 765 773 838 679 q 548 867 692 867 q 328 773 402 867 q 254 496 254 679 m 710 1240 q 599 1114 710 1140 l 592 1051 l 498 1051 l 485 1160 q 561 1185 536 1169 q 585 1231 585 1202 q 511 1281 585 1281 q 433 1271 471 1281 l 433 1363 q 528 1375 479 1375 q 664 1341 617 1375 q 710 1240 710 1307 "},"Đ":{"x_min":31.859375,"x_max":931.609375,"ha":1015,"o":"m 931 505 q 795 130 931 261 q 402 0 659 0 l 130 0 l 130 422 l 31 422 l 31 558 l 130 558 l 130 992 l 433 992 q 800 864 668 992 q 931 505 931 736 m 760 500 q 676 766 760 676 q 426 856 591 856 l 292 856 l 292 558 l 501 558 l 501 422 l 292 422 l 292 136 l 401 136 q 760 500 760 136 "},"Ớ":{"x_min":82.09375,"x_max":1149.265625,"ha":1114,"o":"m 1010 496 q 889 120 1010 254 q 547 -14 768 -14 q 202 119 322 -14 q 82 498 82 252 q 203 875 82 743 q 548 1007 324 1007 q 897 865 776 1007 q 956 926 937 880 q 975 1055 975 971 l 1139 1055 l 1149 1040 q 1081 863 1127 926 q 957 770 1034 800 q 1010 496 1010 652 m 254 496 q 328 217 254 311 q 547 124 402 124 q 838 496 838 124 q 548 867 838 867 q 328 774 402 867 q 254 496 254 681 m 441 1071 l 441 1087 q 521 1193 480 1135 q 585 1293 562 1251 l 771 1293 l 771 1278 q 665 1172 735 1237 q 547 1071 595 1106 l 441 1071 "},"3":{"x_min":58.34375,"x_max":725.171875,"ha":793,"o":"m 696 763 q 641 606 696 669 q 486 522 586 543 l 486 516 q 665 442 605 501 q 725 284 725 382 q 624 63 725 141 q 336 -14 523 -14 q 58 39 171 -14 l 58 181 q 191 133 121 150 q 327 116 262 116 q 500 158 443 116 q 556 291 556 201 q 493 408 556 370 q 295 445 430 445 l 209 445 l 209 575 l 297 575 q 534 739 534 575 q 493 837 534 803 q 371 872 451 872 q 262 856 314 872 q 139 794 210 840 l 61 905 q 377 1006 197 1006 q 611 941 527 1006 q 696 763 696 877 "},"9":{"x_min":58.34375,"x_max":731.953125,"ha":793,"o":"m 731 567 q 613 130 731 274 q 258 -14 495 -14 q 128 -3 168 -14 l 128 130 q 250 113 189 113 q 491 200 411 113 q 578 473 570 287 l 569 473 q 473 385 529 412 q 340 358 416 358 q 133 440 208 358 q 58 665 58 522 q 145 912 58 820 q 383 1004 232 1004 q 567 952 489 1004 q 689 802 646 900 q 731 567 731 704 m 386 871 q 259 817 303 871 q 215 666 215 764 q 256 533 215 581 q 380 484 297 484 q 516 532 461 484 q 571 645 571 581 q 547 758 571 705 q 482 841 524 810 q 386 871 440 871 "},"l":{"x_min":113.859375,"x_max":273.25,"ha":387,"o":"m 273 0 l 113 0 l 113 1055 l 273 1055 l 273 0 "},"Ẫ":{"x_min":0,"x_max":918,"ha":918,"o":"m 745 0 l 646 275 l 267 275 l 170 0 l 0 0 l 370 996 l 547 996 l 918 0 l 745 0 m 604 415 l 511 685 q 483 770 501 712 q 458 856 465 829 q 404 673 440 772 l 315 415 l 604 415 m 553 1299 q 504 1308 529 1299 q 456 1328 480 1317 q 410 1349 433 1340 q 369 1359 388 1359 q 328 1345 342 1359 q 304 1298 313 1331 l 235 1298 q 276 1411 241 1368 q 366 1455 311 1455 q 417 1445 391 1455 q 466 1424 442 1435 q 511 1402 490 1412 q 551 1393 533 1393 q 592 1407 578 1393 q 616 1456 606 1422 l 684 1456 q 642 1340 677 1382 q 553 1299 607 1299 m 688 1071 l 609 1071 q 459 1178 526 1118 q 309 1071 397 1123 l 229 1071 l 229 1088 q 383 1265 343 1207 l 536 1265 q 688 1088 581 1199 l 688 1071 "},"4":{"x_min":26.453125,"x_max":768.578125,"ha":793,"o":"m 768 216 l 634 216 l 634 0 l 479 0 l 479 216 l 26 216 l 26 339 l 479 994 l 634 994 l 634 349 l 768 349 l 768 216 m 479 349 l 479 597 q 486 814 479 730 l 480 814 q 421 706 461 770 l 174 349 l 479 349 "},"Ẁ":{"x_min":8.140625,"x_max":1304.5,"ha":1314,"o":"m 1046 0 l 869 0 l 701 591 q 674 703 690 630 q 654 804 658 776 q 632 692 647 761 q 607 588 617 622 l 442 0 l 266 0 l 138 496 l 8 992 l 173 992 l 315 413 q 362 168 348 274 q 385 297 370 225 q 412 412 400 368 l 573 992 l 734 992 l 900 409 q 950 168 923 329 q 999 415 960 265 l 1140 992 l 1304 992 l 1046 0 m 646 1071 q 528 1172 600 1106 q 424 1278 457 1239 l 424 1293 l 609 1293 q 679 1184 635 1245 q 754 1087 724 1122 l 754 1071 l 646 1071 "}," ":{"x_min":0,"x_max":0,"ha":139},"Ť":{"x_min":19.671875,"x_max":764.984375,"ha":786,"o":"m 473 0 l 311 0 l 311 852 l 19 852 l 19 992 l 764 992 l 764 852 l 473 852 l 473 0 m 656 1293 l 656 1274 q 535 1144 570 1186 q 482 1071 500 1102 l 306 1071 q 133 1274 262 1142 l 133 1293 l 241 1293 q 393 1169 334 1232 q 548 1293 459 1236 l 656 1293 "},"Ś":{"x_min":67.84375,"x_max":702.9375,"ha":764,"o":"m 702 269 q 607 61 702 136 q 343 -14 511 -14 q 67 38 175 -14 l 67 191 q 212 141 135 159 q 354 123 288 123 q 496 159 450 123 q 542 258 542 196 q 500 352 542 313 q 326 444 458 391 q 135 569 190 499 q 79 739 79 640 q 167 934 79 863 q 404 1006 255 1006 q 688 943 546 1006 l 636 811 q 400 866 504 866 q 280 832 321 866 q 240 742 240 798 q 256 675 240 703 q 310 623 272 648 q 444 559 347 599 q 604 474 553 513 q 679 385 655 435 q 702 269 702 336 m 298 1071 l 298 1087 q 378 1193 337 1135 q 442 1293 419 1251 l 628 1293 l 628 1278 q 522 1172 592 1237 q 404 1071 452 1106 l 298 1071 "},"Ü":{"x_min":122.09375,"x_max":908.234375,"ha":1031,"o":"m 908 992 l 908 349 q 861 157 908 239 q 724 30 813 74 q 511 -14 635 -14 q 224 83 326 -14 q 122 352 122 181 l 122 992 l 284 992 l 284 364 q 341 182 284 241 q 516 124 398 124 q 746 365 746 124 l 746 992 l 908 992 m 301 1177 q 324 1238 301 1219 q 379 1257 347 1257 q 437 1235 415 1257 q 458 1177 458 1214 q 436 1119 458 1141 q 379 1098 414 1098 q 324 1117 347 1098 q 301 1177 301 1137 m 568 1177 q 590 1238 568 1219 q 646 1257 613 1257 q 703 1235 682 1257 q 725 1177 725 1214 q 703 1119 725 1140 q 646 1098 680 1098 q 590 1117 613 1098 q 568 1177 568 1137 "},"à":{"x_min":61.0625,"x_max":697.453125,"ha":806,"o":"m 583 0 l 551 104 l 546 104 q 436 10 491 35 q 295 -14 382 -14 q 123 45 185 -14 q 61 215 61 105 q 147 390 61 331 q 409 454 233 449 l 539 459 l 539 498 q 505 606 539 570 q 401 641 472 641 q 291 624 344 641 q 189 584 238 608 l 137 698 q 271 747 198 730 q 408 764 343 764 q 624 701 551 764 q 697 505 697 639 l 697 0 l 583 0 m 346 108 q 485 156 432 108 q 538 293 538 205 l 538 358 l 441 354 q 277 316 329 350 q 226 213 226 283 q 256 135 226 163 q 346 108 286 108 m 397 842 q 279 943 351 877 q 175 1049 208 1010 l 175 1064 l 360 1064 q 430 955 386 1016 q 505 858 475 893 l 505 842 l 397 842 "},"ó":{"x_min":69.140625,"x_max":778.859375,"ha":848,"o":"m 778 376 q 684 89 778 192 q 422 -14 590 -14 q 236 33 317 -14 q 112 169 155 81 q 69 376 69 258 q 162 661 69 558 q 426 764 256 764 q 683 659 589 764 q 778 376 778 554 m 233 376 q 425 116 233 116 q 614 376 614 116 q 423 633 614 633 q 278 567 323 633 q 233 376 233 500 m 320 842 l 320 858 q 400 964 359 906 q 464 1064 441 1022 l 650 1064 l 650 1049 q 544 943 614 1008 q 426 842 474 877 l 320 842 "},"ŗ":{"x_min":65.984375,"x_max":573.90625,"ha":599,"o":"m 494 764 q 573 757 542 764 l 558 608 q 487 616 524 616 q 332 554 392 616 q 273 392 273 491 l 273 0 l 113 0 l 113 750 l 238 750 l 259 618 l 267 618 q 365 724 305 685 q 494 764 425 764 m 65 -290 q 96 -188 81 -246 q 116 -85 110 -129 l 268 -85 l 268 -98 q 217 -210 249 -152 q 158 -307 186 -269 l 65 -307 l 65 -290 "}}}
